<svg xmlns:xlink="http://www.w3.org/1999/xlink" width="350" height="280" viewBox="0 0 350 280" fill="none" xmlns="http://www.w3.org/2000/svg">
<path d="M340 0H10C4.47715 0 0 4.47715 0 10V270C0 275.523 4.47715 280 10 280H340C345.523 280 350 275.523 350 270V10C350 4.47715 345.523 0 340 0Z" fill="#F9F9F9"/>
<path d="M219.068 263.554C194.476 256.212 171.249 245.543 146.172 239.447C117.683 232.469 85.6191 230.863 56.4381 231.601C-13.3199 233.354 78.0352 39.7855 258.832 26.1555C370.167 18.5185 323.451 294.665 219.068 263.554Z" fill="#FFD9AB"/>
<path d="M156.337 38H162.124M166.947 38H173.216M178.039 38H184.791V44.2809M184.791 48.1461V54.4273M184.791 59.2583V67.472M184.791 73.7531V81M153.069 38H141.791" stroke="black" stroke-width="0.6"/>
<path d="M296 155H290V167H296V155Z" fill="#AA691D"/>
<path d="M290.791 68H173.791V93H290.791V68Z" fill="#1A2026"/>
<path d="M296 225H290V236H296V225Z" fill="#AA691D"/>
<path d="M174.791 225H170.791V236H174.791V225Z" fill="#1A2026" stroke="#1A2026" stroke-miterlimit="10"/>
<path d="M173.791 87H169.791V99H173.791V87Z" fill="#AA691D"/>
<path d="M173.791 190H169.791V202H173.791V190Z" fill="#1A2026" stroke="#1A2026" stroke-miterlimit="10"/>
<path d="M173.791 155H169.791V167H173.791V155Z" fill="#1A2026" stroke="#1A2026" stroke-miterlimit="10"/>
<path d="M295.791 87H290.791V99H295.791V87Z" fill="#AA691D"/>
<path d="M295.791 190H290.791V202H295.791V190Z" fill="#AA691D"/>
<path d="M173.791 121H169.791V133H173.791V121Z" fill="#AA691D" stroke="#1A2026" stroke-miterlimit="10"/>
<path d="M295.791 121H290.791V133H295.791V121Z" fill="#AA691D"/>
<path d="M290.791 80H173.791V106H290.791V80Z" fill="#DB8725"/>
<path d="M205.791 87H198.791V99H205.791V87Z" fill="#AA691D"/>
<path d="M194.791 87H188.791V99H194.791V87Z" fill="#AA691D"/>
<path d="M184.791 87H179.791V99H184.791V87Z" fill="#AA691D"/>
<path d="M215.791 87H208.791V99H215.791V87Z" fill="#AA691D"/>
<path d="M260.791 87H218.791V99H260.791V87Z" fill="#AA691D"/>
<path d="M271.291 96C273.224 96 274.791 94.433 274.791 92.5C274.791 90.567 273.224 89 271.291 89C269.358 89 267.791 90.567 267.791 92.5C267.791 94.433 269.358 96 271.291 96Z" fill="#FFD9AB"/>
<path d="M286.791 92.5C286.791 91.8073 286.614 91.1302 286.284 90.5544C285.954 89.9786 285.485 89.53 284.936 89.2654C284.388 89.0008 283.784 88.9321 283.202 89.068C282.62 89.2039 282.085 89.5383 281.666 90.0288C281.247 90.5194 280.962 91.144 280.847 91.8236C280.732 92.5032 280.793 93.2073 281.021 93.8466C281.25 94.486 281.636 95.0319 282.13 95.4152C282.625 95.7985 283.206 96.0021 283.799 96C284.594 95.9972 285.354 95.6272 285.915 94.9712C286.476 94.3151 286.791 93.4264 286.791 92.5V92.5Z" fill="#F8B364"/>
<path d="M252.791 96C254.447 96 255.791 94.6568 255.791 93C255.791 91.3431 254.447 90 252.791 90C251.134 90 249.791 91.3431 249.791 93C249.791 94.6568 251.134 96 252.791 96Z" fill="#F8B364"/>
<path d="M286.791 106H177.791V115H286.791V106Z" fill="#7C4D15"/>
<path d="M290.791 115H173.791V140H290.791V115Z" fill="#DB8725"/>
<path d="M194.791 121H188.791V133H194.791V121Z" fill="#AA691D"/>
<path d="M215.791 121H208.791V133H215.791V121Z" fill="#AA691D"/>
<path d="M205.791 121H198.791V133H205.791V121Z" fill="#AA691D"/>
<path d="M184.791 121H179.791V133H184.791V121Z" fill="#AA691D"/>
<path d="M260.791 121H218.791V133H260.791V121Z" fill="#AA691D"/>
<path d="M271.291 130C273.224 130 274.791 128.657 274.791 127C274.791 125.343 273.224 124 271.291 124C269.358 124 267.791 125.343 267.791 127C267.791 128.657 269.358 130 271.291 130Z" fill="#F8B364"/>
<path d="M286.791 127.009C286.792 126.415 286.618 125.834 286.289 125.339C285.96 124.844 285.491 124.458 284.943 124.23C284.394 124.002 283.79 123.942 283.207 124.057C282.625 124.173 282.089 124.459 281.669 124.879C281.249 125.299 280.963 125.834 280.848 126.417C280.732 127 280.792 127.604 281.021 128.152C281.249 128.701 281.635 129.169 282.129 129.498C282.624 129.827 283.205 130.002 283.799 130C284.593 130 285.354 129.685 285.914 129.124C286.475 128.563 286.791 127.802 286.791 127.009V127.009Z" fill="#FFD9AB"/>
<path d="M252.791 130C254.447 130 255.791 128.657 255.791 127C255.791 125.343 254.447 124 252.791 124C251.134 124 249.791 125.343 249.791 127C249.791 128.657 251.134 130 252.791 130Z" fill="#F8B364"/>
<path d="M286.791 140H177.791V149H286.791V140Z" fill="#7C4D15"/>
<path d="M290.791 149H173.791V174H290.791V149Z" fill="#DB8725"/>
<path d="M205.791 155H198.791V168H205.791V155Z" fill="#6EB883" stroke="#1A2026" stroke-miterlimit="10"/>
<path d="M215.791 155H208.791V168H215.791V155Z" fill="#AA691D"/>
<path d="M194.791 155H188.791V168H194.791V155Z" fill="#6EB883" stroke="#1A2026" stroke-miterlimit="10"/>
<path d="M260.791 155H218.791V168H260.791V155Z" fill="#AA691D"/>
<path d="M184.791 155H179.791V168H184.791V155Z" fill="#6EB883" stroke="#1A2026" stroke-miterlimit="10"/>
<path d="M271.291 164C273.224 164 274.791 162.657 274.791 161C274.791 159.343 273.224 158 271.291 158C269.358 158 267.791 159.343 267.791 161C267.791 162.657 269.358 164 271.291 164Z" fill="#FFD9AB"/>
<path d="M286.791 161C286.791 160.406 286.614 159.826 286.284 159.332C285.954 158.839 285.485 158.454 284.936 158.227C284.388 158.001 283.784 157.942 283.202 158.058C282.62 158.175 282.085 158.461 281.666 158.882C281.247 159.302 280.962 159.838 280.847 160.42C280.732 161.003 280.793 161.606 281.021 162.154C281.25 162.702 281.636 163.17 282.13 163.499C282.625 163.827 283.206 164.002 283.799 164C284.594 163.998 285.354 163.68 285.915 163.118C286.476 162.556 286.791 161.794 286.791 161V161Z" fill="#F8B364"/>
<path d="M252.791 165C254.447 165 255.791 163.657 255.791 162C255.791 160.343 254.447 159 252.791 159C251.134 159 249.791 160.343 249.791 162C249.791 163.657 251.134 165 252.791 165Z" fill="#F8B364"/>
<path d="M286.791 174H177.791V183H286.791V174Z" fill="#7C4D15"/>
<path d="M290.791 183H173.791V208H290.791V183Z" fill="#DB8725"/>
<path d="M215.791 189H208.791V202H215.791V189Z" fill="#AA691D"/>
<path d="M194.791 189H188.791V202H194.791V189Z" fill="#6EB883" stroke="#1A2026" stroke-miterlimit="10"/>
<path d="M205.791 189H198.791V202H205.791V189Z" fill="#6EB883" stroke="#1A2026" stroke-miterlimit="10"/>
<path d="M184.791 189H179.791V202H184.791V189Z" fill="#6EB883" stroke="#1A2026" stroke-miterlimit="10"/>
<path d="M260.791 189H218.791V202H260.791V189Z" fill="#AA691D"/>
<path d="M271.291 198C273.224 198 274.791 196.657 274.791 195C274.791 193.343 273.224 192 271.291 192C269.358 192 267.791 193.343 267.791 195C267.791 196.657 269.358 198 271.291 198Z" fill="#F8B364"/>
<path d="M286.791 195.009C286.792 194.415 286.618 193.834 286.289 193.339C285.96 192.844 285.491 192.458 284.943 192.23C284.394 192.002 283.79 191.942 283.207 192.057C282.625 192.173 282.089 192.459 281.669 192.879C281.249 193.299 280.963 193.834 280.848 194.417C280.732 195 280.792 195.604 281.021 196.152C281.249 196.701 281.635 197.169 282.129 197.498C282.624 197.827 283.205 198.002 283.799 198C284.593 198 285.354 197.685 285.914 197.124C286.475 196.563 286.791 195.802 286.791 195.009V195.009Z" fill="#FFD9AB"/>
<path d="M252.791 199C254.447 199 255.791 197.657 255.791 196C255.791 194.343 254.447 193 252.791 193C251.134 193 249.791 194.343 249.791 196C249.791 197.657 251.134 199 252.791 199Z" fill="#F8B364"/>
<path d="M286.791 208H177.791V217H286.791V208Z" fill="#7C4D15"/>
<path d="M290.791 217H173.791V242H290.791V217Z" fill="#DB8725"/>
<path d="M194.791 223H188.791V236H194.791V223Z" fill="#6EB883" stroke="#1A2026" stroke-miterlimit="10"/>
<path d="M205.791 223H198.791V236H205.791V223Z" fill="#6EB883" stroke="#1A2026" stroke-miterlimit="10"/>
<path d="M215.791 223H208.791V236H215.791V223Z" fill="#AA691D"/>
<path d="M184.791 223H179.791V236H184.791V223Z" fill="#6EB883" stroke="#1A2026" stroke-miterlimit="10"/>
<path d="M260.791 223H218.791V236H260.791V223Z" fill="#AA691D"/>
<path d="M271.291 232C273.224 232 274.791 230.657 274.791 229C274.791 227.343 273.224 226 271.291 226C269.358 226 267.791 227.343 267.791 229C267.791 230.657 269.358 232 271.291 232Z" fill="#FFD9AB"/>
<path d="M286.791 229C286.791 228.406 286.614 227.826 286.284 227.332C285.954 226.839 285.485 226.454 284.936 226.227C284.388 226.001 283.784 225.942 283.202 226.058C282.62 226.175 282.085 226.461 281.666 226.882C281.247 227.302 280.962 227.838 280.847 228.42C280.732 229.003 280.793 229.606 281.021 230.154C281.25 230.702 281.636 231.17 282.13 231.499C282.625 231.827 283.206 232.002 283.799 232C284.594 231.998 285.354 231.681 285.915 231.118C286.476 230.556 286.791 229.794 286.791 229V229Z" fill="#F8B364"/>
<path d="M252.791 233C254.447 233 255.791 231.657 255.791 230C255.791 228.343 254.447 227 252.791 227C251.134 227 249.791 228.343 249.791 230C249.791 231.657 251.134 233 252.791 233Z" fill="#F8B364"/>
<path d="M206.039 125.813H74.6924V215.8H206.039V125.813Z" fill="#1A2026" stroke="#1A2026" stroke-miterlimit="10"/>
<path d="M225.746 255.583H55L74.6924 215.8H206.039L225.746 255.583Z" fill="#CBDFFF" stroke="#1A2026" stroke-linecap="round" stroke-linejoin="round"/>
<path d="M198.08 132.932H82.652V208.68H198.08V132.932Z" fill="white" stroke="#1A2026" stroke-miterlimit="10"/>
<path d="M134.89 228.402L135.111 223.553H128.183L127.712 228.402H134.89Z" fill="white" stroke="#1A2026" stroke-miterlimit="10"/>
<path d="M149.232 228.402L148.996 223.553H142.054L142.068 228.402H149.232Z" fill="white" stroke="#1A2026" stroke-miterlimit="10"/>
<path d="M186.583 233.576H194.012L192.258 228.402H185.094L186.583 233.576Z" fill="white" stroke="#1A2026" stroke-miterlimit="10"/>
<path d="M127.712 228.402L128.184 223.553H121.241L120.548 228.402H127.712Z" fill="white" stroke="#1A2026" stroke-miterlimit="10"/>
<path d="M113.37 228.402L114.298 223.553H107.356L106.206 228.402H113.37Z" fill="white" stroke="#1A2026" stroke-miterlimit="10"/>
<path d="M177.916 228.402L176.751 223.553H169.809L170.752 228.402H177.916Z" fill="white" stroke="#1A2026" stroke-miterlimit="10"/>
<path d="M185.094 228.402L183.694 223.553H176.751L177.916 228.402H185.094Z" fill="white" stroke="#1A2026" stroke-miterlimit="10"/>
<path d="M106.206 228.402L107.356 223.553H100.413L99.028 228.402H106.206Z" fill="white" stroke="#1A2026" stroke-miterlimit="10"/>
<path d="M156.41 228.402L155.939 223.553H148.996L149.232 228.402H156.41Z" fill="white" stroke="#1A2026" stroke-miterlimit="10"/>
<path d="M192.258 228.402L190.636 223.553H183.694L185.094 228.402H192.258Z" fill="white" stroke="#1A2026" stroke-miterlimit="10"/>
<path d="M170.752 228.402L169.809 223.553H162.881L163.574 228.402H170.752Z" fill="white" stroke="#1A2026" stroke-miterlimit="10"/>
<path d="M163.574 228.402L162.881 223.553H155.939L156.41 228.402H163.574Z" fill="white" stroke="#1A2026" stroke-miterlimit="10"/>
<path d="M142.068 228.402L142.054 223.553H135.111L134.89 228.402H142.068Z" fill="white" stroke="#1A2026" stroke-miterlimit="10"/>
<path d="M91.8645 228.402H84.6861L82.711 233.576H90.1251L91.8645 228.402Z" fill="white" stroke="#1A2026" stroke-miterlimit="10"/>
<path d="M93.471 223.553H86.5433L84.6861 228.402H91.8644L93.471 223.553Z" fill="white" stroke="#1A2026" stroke-miterlimit="10"/>
<path d="M99.028 228.402L100.414 223.553H93.471L91.8644 228.402H99.028Z" fill="white" stroke="#1A2026" stroke-miterlimit="10"/>
<path d="M80.5885 239.133L78.3038 245.102H86.2781L88.268 239.133H80.5885Z" fill="white" stroke="#1A2026" stroke-miterlimit="10"/>
<path d="M90.125 233.576H82.7109L80.5883 239.133H88.2678L90.125 233.576Z" fill="white" stroke="#1A2026" stroke-miterlimit="10"/>
<path d="M88.268 239.133L86.2781 245.102H94.2524L95.9622 239.133H88.268Z" fill="white" stroke="#1A2026" stroke-miterlimit="10"/>
<path d="M120.548 228.402L121.241 223.553H114.298L113.37 228.402H120.548Z" fill="white" stroke="#1A2026" stroke-miterlimit="10"/>
<path d="M119.811 233.576L120.548 228.402H113.37L112.382 233.576H119.811Z" fill="white" stroke="#1A2026" stroke-miterlimit="10"/>
<path d="M112.382 233.576L113.37 228.402H106.206L104.968 233.576H112.382Z" fill="white" stroke="#1A2026" stroke-miterlimit="10"/>
<path d="M127.225 233.576L127.712 228.402H120.548L119.811 233.576H127.225Z" fill="white" stroke="#1A2026" stroke-miterlimit="10"/>
<path d="M99.0279 228.402H91.8643L90.125 233.576H97.5539L99.0279 228.402Z" fill="white" stroke="#1A2026" stroke-miterlimit="10"/>
<path d="M188.189 239.133H195.869L194.012 233.576H186.583L188.189 239.133Z" fill="white" stroke="#1A2026" stroke-miterlimit="10"/>
<path d="M104.968 233.576L106.206 228.402H99.0279L97.554 233.576H104.968Z" fill="white" stroke="#1A2026" stroke-miterlimit="10"/>
<path d="M90.1252 233.576L88.2679 239.133H95.9622L97.5541 233.576H90.1252Z" fill="white" stroke="#1A2026" stroke-miterlimit="10"/>
<path d="M171.74 233.576L170.752 228.402H163.574L164.326 233.576H171.74Z" fill="white" stroke="#1A2026" stroke-miterlimit="10"/>
<path d="M164.326 233.576L163.574 228.402H156.41L156.911 233.576H164.326Z" fill="white" stroke="#1A2026" stroke-miterlimit="10"/>
<path d="M186.583 233.576L185.094 228.402H177.916L179.169 233.576H186.583Z" fill="white" stroke="#1A2026" stroke-miterlimit="10"/>
<path d="M142.068 233.576V228.402H134.89L134.639 233.576H142.068Z" fill="white" stroke="#1A2026" stroke-miterlimit="10"/>
<path d="M156.911 233.576L156.41 228.402H149.232L149.483 233.576H156.911Z" fill="white" stroke="#1A2026" stroke-miterlimit="10"/>
<path d="M149.483 233.576L149.232 228.402H142.068V233.576H149.483Z" fill="white" stroke="#1A2026" stroke-miterlimit="10"/>
<path d="M134.639 233.576L134.89 228.402H127.712L127.225 233.576H134.639Z" fill="white" stroke="#1A2026" stroke-miterlimit="10"/>
<path d="M156.911 233.576L157.442 239.133H165.136L164.326 233.576H156.911Z" fill="white" stroke="#1A2026" stroke-miterlimit="10"/>
<path d="M164.326 233.576L165.136 239.133H172.816L171.74 233.576H164.326Z" fill="white" stroke="#1A2026" stroke-miterlimit="10"/>
<path d="M97.554 233.576L95.9621 239.133H103.642L104.968 233.576H97.554Z" fill="white" stroke="#1A2026" stroke-miterlimit="10"/>
<path d="M171.74 233.576L172.816 239.133H180.495L179.169 233.576H171.74Z" fill="white" stroke="#1A2026" stroke-miterlimit="10"/>
<path d="M142.068 233.576V239.133H149.763L149.483 233.576H142.068Z" fill="white" stroke="#1A2026" stroke-miterlimit="10"/>
<path d="M179.169 233.576L180.495 239.133H188.189L186.583 233.576H179.169Z" fill="white" stroke="#1A2026" stroke-miterlimit="10"/>
<path d="M149.482 233.576L149.762 239.133H157.442L156.911 233.576H149.482Z" fill="white" stroke="#1A2026" stroke-miterlimit="10"/>
<path d="M112.382 233.576L111.321 239.133H119.015L119.811 233.576H112.382Z" fill="white" stroke="#1A2026" stroke-miterlimit="10"/>
<path d="M104.968 233.576L103.642 239.133H111.321L112.382 233.576H104.968Z" fill="white" stroke="#1A2026" stroke-miterlimit="10"/>
<path d="M134.639 233.576L134.389 239.133H142.068V233.576H134.639Z" fill="white" stroke="#1A2026" stroke-miterlimit="10"/>
<path d="M127.225 233.576L126.695 239.133H134.389L134.639 233.576H127.225Z" fill="white" stroke="#1A2026" stroke-miterlimit="10"/>
<path d="M119.811 233.576L119.015 239.133H126.695L127.225 233.576H119.811Z" fill="white" stroke="#1A2026" stroke-miterlimit="10"/>
<path d="M179.169 233.576L177.916 228.402H170.752L171.74 233.576H179.169Z" fill="white" stroke="#1A2026" stroke-miterlimit="10"/>
<path d="M93.471 223.553L95.1366 218.585H88.43L86.5433 223.553H93.471Z" fill="white" stroke="#1A2026" stroke-miterlimit="10"/>
<path d="M86.5433 223.553H80.1315L78.0679 228.402H84.6861L86.5433 223.553Z" fill="white" stroke="#1A2026" stroke-miterlimit="10"/>
<path d="M88.4301 218.585H82.2541L80.1315 223.553H86.5434L88.4301 218.585Z" fill="white" stroke="#1A2026" stroke-miterlimit="10"/>
<path d="M84.6861 228.402H78.0679L75.8569 233.576H82.711L84.6861 228.402Z" fill="white" stroke="#1A2026" stroke-miterlimit="10"/>
<path d="M82.711 233.576H75.8569L73.4838 239.133H80.5884L82.711 233.576Z" fill="white" stroke="#1A2026" stroke-miterlimit="10"/>
<path d="M80.5885 239.133H73.4839L70.9486 245.102H78.3038L80.5885 239.133Z" fill="white" stroke="#1A2026" stroke-miterlimit="10"/>
<path d="M199.436 228.402L201.426 233.576H207.985L205.774 228.402H199.436Z" fill="white" stroke="#1A2026" stroke-miterlimit="10"/>
<path d="M203.563 239.133H210.358L207.985 233.576H201.426L203.563 239.133Z" fill="white" stroke="#1A2026" stroke-miterlimit="10"/>
<path d="M205.848 245.102H212.893L210.358 239.133H203.563L205.848 245.102Z" fill="white" stroke="#1A2026" stroke-miterlimit="10"/>
<path d="M148.996 223.553L148.76 218.585H142.054V223.553H148.996Z" fill="white" stroke="#1A2026" stroke-miterlimit="10"/>
<path d="M199.436 228.402H205.774L203.711 223.553H197.579L199.436 228.402Z" fill="white" stroke="#1A2026" stroke-miterlimit="10"/>
<path d="M195.869 239.133H203.563L201.426 233.576H194.012L195.869 239.133Z" fill="white" stroke="#1A2026" stroke-miterlimit="10"/>
<path d="M100.413 223.553L101.843 218.585H95.1366L93.471 223.553H100.413Z" fill="white" stroke="#1A2026" stroke-miterlimit="10"/>
<path d="M190.636 223.553L192.258 228.402H199.436L197.579 223.553H190.636Z" fill="white" stroke="#1A2026" stroke-miterlimit="10"/>
<path d="M203.71 223.553L201.603 218.585H195.663L197.579 223.553H203.71Z" fill="white" stroke="#1A2026" stroke-miterlimit="10"/>
<path d="M197.579 223.553L195.662 218.585H188.971L190.636 223.553H197.579Z" fill="white" stroke="#1A2026" stroke-miterlimit="10"/>
<path d="M172.816 239.133L173.965 245.102H181.94L180.495 239.133H172.816Z" fill="white" stroke="#1A2026" stroke-miterlimit="10"/>
<path d="M197.873 245.102H205.848L203.563 239.133H195.869L197.873 245.102Z" fill="white" stroke="#1A2026" stroke-miterlimit="10"/>
<path d="M190.636 223.553L188.971 218.585H182.264L183.694 223.553H190.636Z" fill="white" stroke="#1A2026" stroke-miterlimit="10"/>
<path d="M188.189 239.133L189.899 245.102H197.873L195.869 239.133H188.189Z" fill="white" stroke="#1A2026" stroke-miterlimit="10"/>
<path d="M180.495 239.133L181.94 245.102H189.899L188.189 239.133H180.495Z" fill="white" stroke="#1A2026" stroke-miterlimit="10"/>
<path d="M194.012 233.576H201.426L199.436 228.402H192.258L194.012 233.576Z" fill="white" stroke="#1A2026" stroke-miterlimit="10"/>
<path d="M128.183 223.553L128.655 218.585H121.949L121.241 223.553H128.183Z" fill="white" stroke="#1A2026" stroke-miterlimit="10"/>
<path d="M183.694 223.553L182.264 218.585H175.557L176.751 223.553H183.694Z" fill="white" stroke="#1A2026" stroke-miterlimit="10"/>
<path d="M121.241 223.553L121.949 218.585H115.242L114.299 223.553H121.241Z" fill="white" stroke="#1A2026" stroke-miterlimit="10"/>
<path d="M142.054 223.553V218.585H135.347L135.111 223.553H142.054Z" fill="white" stroke="#1A2026" stroke-miterlimit="10"/>
<path d="M114.298 223.553L115.242 218.585H108.535L107.356 223.553H114.298Z" fill="white" stroke="#1A2026" stroke-miterlimit="10"/>
<path d="M107.356 223.553L108.535 218.585H101.843L100.414 223.553H107.356Z" fill="white" stroke="#1A2026" stroke-miterlimit="10"/>
<path d="M135.111 223.553L135.347 218.585H128.655L128.183 223.553H135.111Z" fill="white" stroke="#1A2026" stroke-miterlimit="10"/>
<path d="M176.751 223.553L175.557 218.585H168.865L169.809 223.553H176.751Z" fill="white" stroke="#1A2026" stroke-miterlimit="10"/>
<path d="M169.809 223.553L168.865 218.585H162.159L162.881 223.553H169.809Z" fill="white" stroke="#1A2026" stroke-miterlimit="10"/>
<path d="M155.938 223.553L155.452 218.585H148.76L148.996 223.553H155.938Z" fill="white" stroke="#1A2026" stroke-miterlimit="10"/>
<path d="M172.816 239.133H165.136H157.442H149.763H142.068H134.389H126.695H119.015H111.321H103.642H95.9621L94.2523 245.102H102.227H110.186H118.16H126.135H134.109H142.068H150.043H158.017H165.991H173.965L172.816 239.133Z" fill="#EFF6FF" stroke="#1A2026" stroke-miterlimit="10"/>
<path d="M162.881 223.553L162.159 218.585H155.452L155.939 223.553H162.881Z" fill="white" stroke="#1A2026" stroke-miterlimit="10"/>
<path d="M225.82 255.583H55V258H225.82V255.583Z" fill="#1A2026" stroke="#1A2026" stroke-miterlimit="10"/>
<path d="M200.791 138H80.7906V210H200.791V138Z" fill="white" stroke="#1A2026" stroke-linecap="round" stroke-linejoin="round"/>
<path d="M200.791 138H101.791V145H200.791V138Z" fill="#7BA4DD" stroke="#1A2026" stroke-linecap="round" stroke-linejoin="round"/>
<path d="M200.791 138H122.791V145H200.791V138Z" fill="#ADCFFF" stroke="#1A2026" stroke-linecap="round" stroke-linejoin="round"/>
<path d="M200.791 131H80.7906V138H200.791V131Z" fill="#1A2026" stroke="#1A2026" stroke-linecap="round" stroke-linejoin="round"/>
<path d="M163.508 136H86.073C85.7329 136 85.4067 135.842 85.1662 135.56C84.9257 135.278 84.7906 134.896 84.7906 134.498V134.498C84.7906 134.301 84.8238 134.106 84.8882 133.924C84.9527 133.742 85.0473 133.576 85.1664 133.437C85.2855 133.298 85.4269 133.188 85.5825 133.113C85.7381 133.038 85.9047 132.999 86.073 133H163.508C163.848 133 164.173 133.158 164.414 133.438C164.654 133.719 164.79 134.1 164.791 134.498V134.498C164.79 134.896 164.654 135.277 164.414 135.559C164.174 135.84 163.848 135.999 163.508 136Z" fill="#ADCFFF" stroke="#1A2026" stroke-linecap="round" stroke-linejoin="round"/>
<path d="M187.291 136C188.119 136 188.791 135.552 188.791 135C188.791 134.448 188.119 134 187.291 134C186.462 134 185.791 134.448 185.791 135C185.791 135.552 186.462 136 187.291 136Z" fill="white" stroke="#1A2026" stroke-linecap="round" stroke-linejoin="round"/>
<path d="M192.791 135.003C192.791 134.805 192.733 134.612 192.623 134.447C192.514 134.282 192.358 134.153 192.175 134.077C191.992 134.001 191.791 133.981 191.596 134.019C191.402 134.058 191.224 134.153 191.083 134.293C190.943 134.433 190.848 134.611 190.81 134.806C190.771 135 190.791 135.201 190.867 135.384C190.943 135.567 191.072 135.723 191.237 135.833C191.402 135.943 191.596 136.001 191.794 136C192.058 136 192.312 135.895 192.499 135.708C192.686 135.521 192.791 135.268 192.791 135.003V135.003Z" fill="white" stroke="#1A2026" stroke-linecap="round" stroke-linejoin="round"/>
<path d="M196.791 136C197.343 136 197.791 135.552 197.791 135C197.791 134.448 197.343 134 196.791 134C196.238 134 195.791 134.448 195.791 135C195.791 135.552 196.238 136 196.791 136Z" fill="white" stroke="#1A2026" stroke-linecap="round" stroke-linejoin="round"/>
<path d="M87.7906 167H101.791V156.55H93.6651L92.8383 154H87.7906V167Z" fill="#3385FF" stroke="#ADCFFF" stroke-miterlimit="10"/>
<path d="M87.7906 186H101.791V176.353H93.6651L92.8383 174H87.7906V186Z" fill="#3385FF" stroke="#ADCFFF" stroke-miterlimit="10"/>
<path d="M87.7906 206H101.791V195.553H93.6651L92.8383 193H87.7906V206Z" fill="#3385FF" stroke="#ADCFFF" stroke-miterlimit="10"/>
<path d="M106.791 167H119.791V156.55H112.243L111.479 154H106.791V167Z" fill="#3385FF" stroke="#ADCFFF" stroke-miterlimit="10"/>
<path d="M106.791 186H119.791V176.353H112.243L111.479 174H106.791V186Z" fill="#3385FF" stroke="#ADCFFF" stroke-miterlimit="10"/>
<path d="M106.791 206H119.791V195.553H112.243L111.479 193H106.791V206Z" fill="#3385FF" stroke="#ADCFFF" stroke-miterlimit="10"/>
<path d="M124.791 167H138.791V156.55H130.667L129.84 154H124.791V167Z" fill="#3385FF" stroke="#ADCFFF" stroke-miterlimit="10"/>
<path d="M124.791 186H138.791V176.353H130.667L129.84 174H124.791V186Z" fill="#3385FF" stroke="#3385FF" stroke-miterlimit="10"/>
<path d="M124.791 206H138.791V195.553H130.667L129.84 193H124.791V206Z" fill="#3385FF" stroke="#ADCFFF" stroke-miterlimit="10"/>
<path d="M143.791 167H156.791V156.55H149.245L148.478 154H143.791V167Z" fill="#3385FF" stroke="#ADCFFF" stroke-miterlimit="10"/>
<path d="M143.791 186H156.791V176.353H149.245L148.478 174H143.791V186Z" fill="#3385FF" stroke="#ADCFFF" stroke-miterlimit="10"/>
<path d="M143.791 206H156.791V195.553H149.245L148.478 193H143.791V206Z" fill="#3385FF" stroke="#ADCFFF" stroke-miterlimit="10"/>
<path d="M162.791 167H175.791V156.55H168.243L167.479 154H162.791V167Z" fill="#3385FF" stroke="#ADCFFF" stroke-miterlimit="10"/>
<path d="M162.791 186H175.791V176.353H168.243L167.479 174H162.791V186Z" fill="#3385FF" stroke="#ADCFFF" stroke-miterlimit="10"/>
<path d="M162.791 206H175.791V195.553H168.243L167.479 193H162.791V206Z" fill="#3385FF" stroke="#ADCFFF" stroke-miterlimit="10"/>
<path d="M180.791 167H193.791V156.55H186.245L185.478 154H180.791V167Z" fill="#3385FF" stroke="#ADCFFF" stroke-miterlimit="10"/>
<path d="M180.791 186H193.791V176.353H186.245L185.478 174H180.791V186Z" fill="#3385FF" stroke="#ADCFFF" stroke-miterlimit="10"/>
<path d="M180.791 206H193.791V195.553H186.245L185.478 193H180.791V206Z" fill="#3385FF" stroke="#ADCFFF" stroke-miterlimit="10"/>
<path d="M103.791 62.7902V57H109.101M103.791 69.0629V75.3356M103.791 79.678V86.9163M103.791 94.1536V100.426M103.791 105.734V113.937M103.791 118.28V126M113.928 57H117.791" stroke="black" stroke-width="0.6"/>
<path d="M150.925 45.7811C148.11 45.7826 145.344 46.5253 142.906 47.9348C143.122 46.6859 143.232 45.4211 143.236 44.1537C143.238 38.634 141.18 33.3126 137.466 29.2323C133.753 25.152 128.651 22.6068 123.161 22.0953C117.67 21.5839 112.187 23.143 107.785 26.4673C103.383 29.7916 100.38 34.6415 99.364 40.0667C96.6856 39.0716 93.8218 38.6759 90.9743 38.9076C88.1267 39.1393 85.3644 39.9926 82.8817 41.4075C80.3989 42.8225 78.2559 44.7648 76.6035 47.0977C74.951 49.4307 73.8292 52.0977 73.317 54.9113C72.8047 57.7248 72.9144 60.6165 73.6384 63.383C74.3623 66.1495 75.683 68.7237 77.5074 70.9245C79.3319 73.1253 81.6158 74.8993 84.1986 76.1217C86.7814 77.3441 89.6005 77.9852 92.4574 78H150.925C155.189 78 159.277 76.3047 162.292 73.287C165.306 70.2694 167 66.1765 167 61.9089C167 57.6413 165.306 53.5485 162.292 50.5308C159.277 47.5132 155.189 45.8179 150.925 45.8179V45.7811Z" fill="#CCE1FF"/>
<path d="M110.963 52.2948V41.1974C110.963 39.1799 111.764 37.245 113.191 35.8183C114.618 34.3917 116.553 33.5902 118.57 33.5902C120.588 33.5902 122.523 34.3917 123.949 35.8183C125.376 37.245 126.177 39.1799 126.177 41.1974V47.6818H129.209V41.1974C129.209 38.3758 128.088 35.6698 126.093 33.6746C124.098 31.6795 121.392 30.5586 118.57 30.5586C115.749 30.5586 113.043 31.6795 111.047 33.6746C109.052 35.6698 107.931 38.3758 107.931 41.1974V52.2948H110.963Z" fill="white" stroke="#1A2026" stroke-linecap="round" stroke-linejoin="round"/>
<path d="M130.032 51.2095H106.799V70.4286H130.032V51.2095Z" fill="#FFD9AB" stroke="#1A2026" stroke-linecap="round" stroke-linejoin="round"/>
<path d="M133.345 44.1636L134.851 40.7202" stroke="#1A2026" stroke-linecap="round" stroke-linejoin="round"/>
<path d="M133.56 48.2437H139.155" stroke="#1A2026" stroke-linecap="round" stroke-linejoin="round"/>
<path d="M132.914 52.1169L135.927 55.3451" stroke="#1A2026" stroke-linecap="round" stroke-linejoin="round"/>
<path d="M120.835 59.191C120.843 58.741 120.732 58.2967 120.512 57.9038C120.293 57.5109 119.972 57.1836 119.584 56.9555C119.196 56.7273 118.754 56.6066 118.304 56.6057C117.854 56.6048 117.412 56.7238 117.023 56.9503C116.634 57.1769 116.312 57.5029 116.091 57.895C115.87 58.287 115.757 58.7308 115.764 59.1809C115.771 59.631 115.898 60.0711 116.131 60.456C116.364 60.841 116.696 61.1568 117.092 61.3712L116.671 65.7409H119.918L119.496 61.3712C119.898 61.1654 120.235 60.8531 120.471 60.4686C120.707 60.0841 120.833 59.6422 120.835 59.191V59.191Z" fill="#1A2026" stroke="#1A2026" stroke-linecap="round" stroke-linejoin="round"/>
</svg>
