<svg xmlns:xlink="http://www.w3.org/1999/xlink" width="350" height="290" viewBox="0 0 350 290" fill="none" xmlns="http://www.w3.org/2000/svg">
<path fill-rule="evenodd" clip-rule="evenodd" d="M344.681 238.653C362.88 221.567 336.738 105.98 229.48 51.8183C96.53 -15.3199 57.7323 -2.99677 35.1409 11.0725C7.36244 28.3716 -17.9517 96.5393 17.1094 198.901C49.9988 294.92 91.2388 291.324 117.284 289.337C143.33 287.349 151.189 274.601 199.428 259.523C272.555 236.665 321.541 260.373 344.681 238.653Z" fill="#ADCFFF"/>
<path fill-rule="evenodd" clip-rule="evenodd" d="M2.11613 58H89.9055C89.9055 58 96.8681 46.6723 89.9055 39.6308C87.9857 37.6307 85.5108 36.2671 82.8081 35.7204C80.1053 35.1737 77.3022 35.4697 74.7694 36.5693C74.7694 36.5693 79.4616 15.9452 64.1741 10.5462C45.1027 3.81082 38.4428 21.2616 38.4428 21.2616C38.4428 21.2616 28.8223 16.4381 21.7931 22.7923C14.2856 29.5782 18.7658 39.6308 18.7658 39.6308C18.7658 39.6308 8.47329 36.5693 3.62974 42.6923C-1.21381 48.8154 2.11613 58 2.11613 58Z" fill="#F39629"/>
<path d="M73.3298 8H71.8146C66.7938 8 62.7236 12.0702 62.7236 17.091V29.2122C62.7236 34.233 66.7938 38.3032 71.8146 38.3032H73.3298C78.3505 38.3032 82.4207 34.233 82.4207 29.2122V17.091C82.4207 12.0702 78.3505 8 73.3298 8Z" stroke="#1A2026" stroke-width="0.6" stroke-linejoin="round"/>
<path d="M61.2081 26.4821H82.4203C83.9282 26.4821 85.1506 27.7045 85.1506 29.2124V41.3337C85.1506 42.8416 83.9282 44.064 82.4203 44.064H61.2081C59.7001 44.064 58.4777 42.8416 58.4777 41.3337V29.2124C58.4777 27.7045 59.7001 26.4821 61.2081 26.4821Z" fill="white" stroke="#1A2026" stroke-width="0.6"/>
<path d="M74.5443 33.0003C74.5443 34.0898 73.6611 34.973 72.5716 34.973C71.4821 34.973 70.5988 34.0898 70.5988 33.0003C70.5988 31.9108 71.4821 31.0275 72.5716 31.0275C73.6611 31.0275 74.5443 31.9108 74.5443 33.0003Z" fill="#ADCFFF" stroke="#1A2026" stroke-width="0.6"/>
<path d="M72.572 34.0578C72.8247 34.0578 73.0296 34.2627 73.0296 34.5154V39.0609C73.0296 39.3136 72.8247 39.5185 72.572 39.5185C72.3193 39.5185 72.1145 39.3136 72.1145 39.0609V34.5154C72.1145 34.2627 72.3193 34.0578 72.572 34.0578Z" fill="#ADCFFF" stroke="#1A2026" stroke-width="0.6"/>
<path d="M146.773 58.857C146.957 58.9397 147.198 59.0448 147.488 59.1661C148.211 59.4689 149.239 59.8724 150.463 60.2759C152.905 61.0814 156.145 61.8933 159.291 61.8933L159.291 61.8935L159.303 61.893C163.291 61.7299 167.193 60.7026 170.741 58.8845V59.2768C167.202 61.1482 163.287 62.2026 159.285 62.3615C156.247 62.3604 153.08 61.5705 150.661 60.7742C149.453 60.3765 148.437 59.9788 147.723 59.6807C147.366 59.5318 147.085 59.4077 146.894 59.3212C146.848 59.3006 146.808 59.2821 146.773 59.266V58.857Z" stroke="#1A2026" stroke-width="0.6"/>
<path d="M146.773 80.3528V79.9438C146.808 79.9277 146.848 79.9092 146.894 79.8886C147.085 79.8021 147.366 79.678 147.723 79.5291C148.437 79.231 149.453 78.8333 150.661 78.4356C153.08 77.6393 156.247 76.8494 159.285 76.8483C163.287 77.0072 167.202 78.0616 170.741 79.933V80.3253C167.193 78.5072 163.291 77.4799 159.303 77.3168L159.303 77.3165H159.291C156.145 77.3165 152.905 78.1284 150.463 78.9339C149.239 79.3374 148.211 79.7409 147.488 80.0437C147.198 80.165 146.957 80.2701 146.773 80.3528Z" stroke="#1A2026" stroke-width="0.6"/>
<path d="M158.756 86.162C163.771 86.162 167.836 78.7491 167.836 69.6049C167.836 60.4607 163.771 53.0479 158.756 53.0479C153.742 53.0479 149.677 60.4607 149.677 69.6049C149.677 78.7491 153.742 86.162 158.756 86.162Z" stroke="#1A2026" stroke-width="0.6" stroke-linejoin="round"/>
<path d="M158.523 54.4162H158.991V85.8621H158.523V54.4162Z" stroke="#1A2026" stroke-width="0.6"/>
<path d="M175.012 68.8542V69.2882H142.498V68.8542H175.012Z" stroke="#1A2026" stroke-width="0.6"/>
<path fill-rule="evenodd" clip-rule="evenodd" d="M151.213 42.381C155.59 41.2079 160.189 41.124 164.606 42.1366C169.024 43.1491 173.126 45.2274 176.556 48.19C179.986 51.1526 182.639 54.9095 184.283 59.133C185.927 63.3564 186.512 67.918 185.988 72.4197C185.464 76.9214 183.846 81.2265 181.276 84.9592C178.705 88.692 175.26 91.7389 171.242 93.8343C167.223 95.9297 162.753 97.0097 158.221 96.9802C153.688 96.9507 149.233 95.8126 145.241 93.6651C144.797 93.4259 143.928 92.911 143.928 92.911L129.381 94.7077L132.78 79.9356C132.78 79.9356 131.902 77.6166 131.574 76.3967C131.437 75.8861 131.315 75.3755 131.209 74.8649C129.764 67.9198 131.031 60.6852 134.751 54.6449C138.471 48.6046 144.361 44.2166 151.213 42.381V42.381Z" stroke="#1A2026" stroke-width="0.6" stroke-linejoin="round"/>
<path d="M158.755 86.162C167.9 86.162 175.312 78.7491 175.312 69.6049C175.312 60.4607 167.9 53.0479 158.755 53.0479C149.611 53.0479 142.198 60.4607 142.198 69.6049C142.198 78.7491 149.611 86.162 158.755 86.162Z" stroke="#1A2026" stroke-width="0.6" stroke-linejoin="round"/>
<path d="M200.63 109.587H54V278.935H200.63V109.587Z" fill="#4A586E"/>
<path d="M63.5939 225.539H191.037V267.276H63.5939V225.539Z" fill="#F39629" stroke="black" stroke-width="0.6"/>
<path d="M78.7821 229.37H68.4561V264.478H78.7821V229.37Z" fill="white"/>
<path d="M86.5272 243.826C88.5232 243.826 90.1413 242.208 90.1413 240.212C90.1413 238.216 88.5232 236.598 86.5272 236.598C84.5312 236.598 82.9131 238.216 82.9131 240.212C82.9131 242.208 84.5312 243.826 86.5272 243.826Z" fill="#ADCFFF"/>
<path d="M86.5272 257.25C88.5232 257.25 90.1413 255.632 90.1413 253.636C90.1413 251.64 88.5232 250.022 86.5272 250.022C84.5312 250.022 82.9131 251.64 82.9131 253.636C82.9131 255.632 84.5312 257.25 86.5272 257.25Z" fill="#ADCFFF"/>
<path d="M107.695 232.467H99.4346V260.348H107.695V232.467Z" fill="white"/>
<path d="M120.087 232.467H111.826V260.348H120.087V232.467Z" fill="white"/>
<path d="M132.479 232.467H124.218V260.348H132.479V232.467Z" fill="white"/>
<path d="M144.869 232.467H136.608V260.348H144.869V232.467Z" fill="white"/>
<path d="M157.261 232.467H149V260.348H157.261V232.467Z" fill="white"/>
<path d="M169.652 232.467H161.392V260.348H169.652V232.467Z" fill="white"/>
<path d="M182.043 232.467H173.782V260.348H182.043V232.467Z" fill="white"/>
<path d="M63.5939 173.909H191.037V215.646H63.5939V173.909Z" fill="#F39629" stroke="black" stroke-width="0.6"/>
<path d="M78.7821 177.739H68.4561V212.848H78.7821V177.739Z" fill="white"/>
<path d="M86.5272 192.196C88.5232 192.196 90.1413 190.577 90.1413 188.581C90.1413 186.585 88.5232 184.967 86.5272 184.967C84.5312 184.967 82.9131 186.585 82.9131 188.581C82.9131 190.577 84.5312 192.196 86.5272 192.196Z" fill="#ADCFFF"/>
<path d="M86.5272 205.619C88.5232 205.619 90.1413 204.001 90.1413 202.005C90.1413 200.009 88.5232 198.391 86.5272 198.391C84.5312 198.391 82.9131 200.009 82.9131 202.005C82.9131 204.001 84.5312 205.619 86.5272 205.619Z" fill="#ADCFFF"/>
<path d="M107.695 180.837H99.4346V208.717H107.695V180.837Z" fill="white"/>
<path d="M120.087 180.837H111.826V208.717H120.087V180.837Z" fill="white"/>
<path d="M132.479 180.837H124.218V208.717H132.479V180.837Z" fill="white"/>
<path d="M144.869 180.837H136.608V208.717H144.869V180.837Z" fill="white"/>
<path d="M157.261 180.837H149V208.717H157.261V180.837Z" fill="white"/>
<path d="M169.652 180.837H161.392V208.717H169.652V180.837Z" fill="white"/>
<path d="M182.043 180.837H173.782V208.717H182.043V180.837Z" fill="white"/>
<path d="M63.5939 122.278H191.037V164.015H63.5939V122.278Z" fill="#F39629" stroke="black" stroke-width="0.6"/>
<path d="M78.7821 126.109H68.4561V161.218H78.7821V126.109Z" fill="white"/>
<path d="M86.5272 140.565C88.5232 140.565 90.1413 138.947 90.1413 136.951C90.1413 134.955 88.5232 133.337 86.5272 133.337C84.5312 133.337 82.9131 134.955 82.9131 136.951C82.9131 138.947 84.5312 140.565 86.5272 140.565Z" fill="#ADCFFF"/>
<path d="M86.5272 153.989C88.5232 153.989 90.1413 152.371 90.1413 150.375C90.1413 148.379 88.5232 146.761 86.5272 146.761C84.5312 146.761 82.9131 148.379 82.9131 150.375C82.9131 152.371 84.5312 153.989 86.5272 153.989Z" fill="#ADCFFF"/>
<path d="M107.695 129.207H99.4346V157.087H107.695V129.207Z" fill="white"/>
<path d="M120.087 129.207H111.826V157.087H120.087V129.207Z" fill="white"/>
<path d="M132.479 129.207H124.218V157.087H132.479V129.207Z" fill="white"/>
<path d="M144.869 129.207H136.608V157.087H144.869V129.207Z" fill="white"/>
<path d="M157.261 129.207H149V157.087H157.261V129.207Z" fill="white"/>
<path d="M169.652 129.207H161.392V157.087H169.652V129.207Z" fill="white"/>
<path d="M182.043 129.207H173.782V157.087H182.043V129.207Z" fill="white"/>
<path d="M239.87 51.7607H223.134V150.891H200.631" stroke="#1A2026" stroke-width="0.6"/>
<path d="M239.87 118.88H229.544V165.864H200.631M239.87 183.418H200.631" stroke="#1A2026" stroke-width="0.6"/>
<path d="M239.87 252.603H222.832V200.973H200.114" stroke="#1A2026" stroke-width="0.6"/>
<circle cx="222.832" cy="150.375" r="2.58152" fill="#1A2026"/>
<circle cx="222.832" cy="51.2446" r="2.58152" fill="#1A2026"/>
<circle cx="229.027" cy="164.832" r="2.58152" fill="#1A2026"/>
<circle cx="220.766" cy="183.418" r="2.58152" fill="#1A2026"/>
<circle cx="222.832" cy="202.005" r="2.58152" fill="#1A2026"/>
<circle cx="222.832" cy="252.604" r="2.58152" fill="#1A2026"/>
<rect x="240.169" y="24.1804" width="98.5304" height="54.1283" rx="3.7" fill="white" stroke="black" stroke-width="0.6"/>
<rect x="240.169" y="91.3" width="98.5304" height="54.1283" rx="3.7" fill="white" stroke="black" stroke-width="0.6"/>
<rect x="240.169" y="158.42" width="98.5304" height="54.1283" rx="3.7" fill="#4A586E" stroke="black" stroke-width="0.6"/>
<rect x="240.169" y="226.572" width="98.5304" height="54.1283" rx="3.7" fill="white" stroke="black" stroke-width="0.6"/>
<rect x="303.637" y="36.2715" width="4.73909" height="30.2844" rx="2.36954" transform="rotate(45 303.637 36.2715)" fill="#ADCFFF"/>
<rect x="273.945" y="49.4351" width="4.73909" height="16.6556" rx="2.36954" transform="rotate(-45 273.945 49.4351)" fill="#ADCFFF"/>
<rect x="303.637" y="104.424" width="4.73909" height="30.2844" rx="2.36954" transform="rotate(45 303.637 104.424)" fill="#ADCFFF"/>
<rect x="273.945" y="117.587" width="4.73909" height="16.6556" rx="2.36954" transform="rotate(-45 273.945 117.587)" fill="#ADCFFF"/>
<rect x="303.637" y="240.729" width="4.73909" height="30.2844" rx="2.36954" transform="rotate(45 303.637 240.729)" fill="#ADCFFF"/>
<rect x="273.945" y="253.892" width="4.73909" height="16.6556" rx="2.36954" transform="rotate(-45 273.945 253.892)" fill="#ADCFFF"/>
<g clip-path="url(#clip0)">
<path d="M298.631 198.522L289.951 189.841L281.271 198.522C280.067 199.725 278.116 199.725 276.913 198.522C275.71 197.318 275.71 195.367 276.913 194.164L285.594 185.484L276.913 176.803C275.71 175.6 275.71 173.649 276.913 172.446C278.116 171.243 280.067 171.243 281.271 172.446L289.951 181.126L298.631 172.446C299.835 171.243 301.786 171.243 302.989 172.446C304.192 173.649 304.192 175.6 302.989 176.803L294.308 185.484L302.989 194.164C304.192 195.367 304.192 197.318 302.989 198.522C301.786 199.725 299.835 199.725 298.631 198.522V198.522Z" fill="#F39629"/>
</g>
<defs>
<clipPath id="clip0">
<rect width="27.8804" height="27.8804" fill="white" transform="translate(276.011 171.543)"/>
</clipPath>
</defs>
</svg>
