<svg xmlns:xlink="http://www.w3.org/1999/xlink" width="350" height="280" viewBox="0 0 350 280" fill="none" xmlns="http://www.w3.org/2000/svg">
<g clip-path="url(#clip0_97_2082)">
<path d="M124.643 277.086C153.899 268.336 181.532 255.623 211.364 248.358C245.257 240.043 283.401 238.129 318.116 239.009C401.105 241.098 292.424 10.4278 77.3382 -5.8146C-55.1127 -14.9145 0.46331 314.159 124.643 277.086Z" fill="#FFD9AB"/>
<path d="M193.109 256.547V223.351H161.708V256.547H193.109Z" fill="#ADCFFF"/>
<path fill-rule="evenodd" clip-rule="evenodd" d="M166.473 246.561H188.321C188.321 246.561 190.054 243.742 188.321 241.989C187.843 241.492 187.228 241.152 186.555 241.016C185.882 240.88 185.185 240.954 184.554 241.227C184.554 241.227 185.722 236.095 181.917 234.751C177.171 233.075 175.514 237.418 175.514 237.418C175.514 237.418 173.119 236.217 171.37 237.799C169.502 239.488 170.617 241.989 170.617 241.989C170.617 241.989 168.055 241.227 166.85 242.751C165.644 244.275 166.473 246.561 166.473 246.561Z" fill="#F39629"/>
<path d="M184.198 234.119H183.821C182.572 234.119 181.559 235.132 181.559 236.382V239.398C181.559 240.648 182.572 241.661 183.821 241.661H184.198C185.448 241.661 186.461 240.648 186.461 239.398V236.382C186.461 235.132 185.448 234.119 184.198 234.119Z" stroke="#1A2026" stroke-width="0.6" stroke-linejoin="round"/>
<path d="M181.18 238.944H186.459C186.71 238.944 186.913 239.147 186.913 239.398V242.414C186.913 242.665 186.71 242.868 186.459 242.868H181.18C180.929 242.868 180.726 242.665 180.726 242.414V239.398C180.726 239.147 180.929 238.944 181.18 238.944Z" fill="white" stroke="#1A2026" stroke-width="0.6"/>
<path d="M184.269 240.34C184.269 240.487 184.15 240.606 184.003 240.606C183.856 240.606 183.738 240.487 183.738 240.34C183.738 240.193 183.856 240.074 184.003 240.074C184.15 240.074 184.269 240.193 184.269 240.34Z" fill="#ADCFFF" stroke="#1A2026" stroke-width="0.6"/>
<mask id="path-8-inside-1_97_2082" fill="white">
<path d="M184.193 240.72C184.193 240.616 184.109 240.531 184.005 240.531C183.901 240.531 183.816 240.616 183.816 240.72V241.851C183.816 241.955 183.901 242.04 184.005 242.04C184.109 242.04 184.193 241.955 184.193 241.851V240.72Z"/>
</mask>
<path d="M184.193 240.72C184.193 240.616 184.109 240.531 184.005 240.531C183.901 240.531 183.816 240.616 183.816 240.72V241.851C183.816 241.955 183.901 242.04 184.005 242.04C184.109 242.04 184.193 241.955 184.193 241.851V240.72Z" fill="#ADCFFF"/>
<path d="M184.005 241.131C183.778 241.131 183.593 240.947 183.593 240.72H184.793C184.793 240.284 184.44 239.931 184.005 239.931V241.131ZM183.593 240.72V241.851H184.793V240.72H183.593ZM183.593 241.851C183.593 241.624 183.778 241.44 184.005 241.44V242.64C184.44 242.64 184.793 242.287 184.793 241.851H183.593ZM184.005 241.44C184.232 241.44 184.416 241.624 184.416 241.851H183.216C183.216 242.287 183.569 242.64 184.005 242.64V241.44ZM184.416 241.851V240.72H183.216V241.851H184.416ZM184.416 240.72C184.416 240.947 184.232 241.131 184.005 241.131V239.931C183.569 239.931 183.216 240.284 183.216 240.72H184.416Z" fill="#1A2026" mask="url(#path-8-inside-1_97_2082)"/>
<path d="M240.664 151.576H268.589V112.997H324.998" stroke="#F39629"/>
<path d="M116.852 171.315H99.324V120.176H63.9183" stroke="#F39629"/>
<path d="M176.957 59.166L176.957 105.819" stroke="#F39629"/>
<path d="M176.957 182.978V223.35" stroke="#F39629"/>
<path d="M203.875 105.82V83.1483H275.649V56.4756" stroke="#F39629"/>
<path d="M212.852 182.977V200.333H283.728V223.35" stroke="#F39629"/>
<path d="M141.074 105.819V84.3504H69.3003V59.166" stroke="#F39629"/>
<path d="M140.176 182.977V200.234H69.2991V223.35" stroke="#F39629"/>
<path d="M85.4453 59.166V25.9706H54.0442V59.166H85.4453Z" fill="#ADCFFF"/>
<path d="M192.211 59.166V25.9706H160.81V59.166H192.211Z" fill="#ADCFFF"/>
<path d="M290.906 56.4756V23.2802H259.505V56.4756H290.906Z" fill="#ADCFFF"/>
<path d="M324.992 126.455V93.2597H293.591V126.455H324.992Z" fill="#ADCFFF"/>
<path d="M299.875 256.545V223.349H268.474V256.545H299.875Z" fill="#ADCFFF"/>
<path d="M84.5547 256.545V223.349H53.1536V256.545H84.5547Z" fill="#ADCFFF"/>
<path d="M68.4023 135.427V102.231H37.0013V135.427H68.4023Z" fill="#ADCFFF"/>
<rect x="116.852" y="105.82" width="123.81" height="77.1569" fill="#ADCFFF" fill-opacity="0.8"/>
<rect x="127.613" y="113.895" width="16.6499" height="4.7571" rx="2.37855" fill="white"/>
<rect x="127.613" y="142.436" width="16.6499" height="4.7571" rx="2.37855" fill="white"/>
<rect x="127.613" y="123.408" width="16.6499" height="4.7571" rx="2.37855" fill="white"/>
<rect x="127.613" y="151.952" width="16.6499" height="4.7571" rx="2.37855" fill="white"/>
<rect x="127.613" y="170.979" width="16.6499" height="4.7571" rx="2.37855" fill="white"/>
<rect x="127.613" y="132.922" width="16.6499" height="4.7571" rx="2.37855" fill="white"/>
<rect x="127.613" y="161.465" width="16.6499" height="4.7571" rx="2.37855" fill="white"/>
<rect x="151.398" y="113.895" width="33.2997" height="4.7571" rx="2.37855" fill="#4A586E" fill-opacity="0.8"/>
<rect x="151.398" y="151.952" width="33.2997" height="4.7571" rx="2.37855" fill="#4A586E" fill-opacity="0.8"/>
<rect x="151.398" y="132.922" width="21.407" height="4.7571" rx="2.37855" fill="#F39629"/>
<rect x="151.398" y="170.979" width="21.407" height="4.7571" rx="2.37855" fill="#4A586E" fill-opacity="0.8"/>
<rect x="184.695" y="132.922" width="45.1925" height="4.7571" rx="2.37855" fill="#4A586E" fill-opacity="0.8"/>
<rect x="184.695" y="170.979" width="45.1925" height="4.7571" rx="2.37855" fill="#F39629"/>
<rect x="187.078" y="113.895" width="11.8928" height="4.7571" rx="2.37855" fill="white"/>
<rect x="187.078" y="151.952" width="11.8928" height="4.7571" rx="2.37855" fill="white"/>
<rect x="175.176" y="132.922" width="7.13565" height="4.7571" rx="2.37855" fill="#F39629"/>
<rect x="175.176" y="170.979" width="7.13565" height="4.7571" rx="2.37855" fill="white"/>
<rect x="151.398" y="123.408" width="11.8928" height="4.7571" rx="2.37855" fill="white"/>
<rect x="151.398" y="161.465" width="11.8928" height="4.7571" rx="2.37855" fill="white"/>
<rect x="151.398" y="142.436" width="11.8928" height="4.7571" rx="2.37855" fill="white"/>
<rect x="203.723" y="123.408" width="11.8928" height="4.7571" rx="2.37855" fill="white"/>
<rect x="203.723" y="161.465" width="11.8928" height="4.7571" rx="2.37855" fill="white"/>
<rect x="203.723" y="142.436" width="11.8928" height="4.7571" rx="2.37855" fill="white"/>
<rect x="218.004" y="123.408" width="11.8928" height="4.7571" rx="2.37855" fill="white"/>
<rect x="218.004" y="161.465" width="11.8928" height="4.7571" rx="2.37855" fill="white"/>
<rect x="218.004" y="142.436" width="11.8928" height="4.7571" rx="2.37855" fill="white"/>
<rect x="203.723" y="113.895" width="26.1641" height="4.7571" rx="2.37855" fill="#F39629"/>
<rect x="203.723" y="151.952" width="26.1641" height="4.7571" rx="2.37855" fill="#F39629"/>
<rect x="168.043" y="123.408" width="33.2997" height="4.7571" rx="2.37855" fill="white"/>
<rect x="168.043" y="161.465" width="33.2997" height="4.7571" rx="2.37855" fill="white"/>
<rect x="168.043" y="142.436" width="33.2997" height="4.7571" rx="2.37855" fill="#F39629"/>
<path d="M285.463 151.238C285.411 151.158 285.329 151.1 285.237 151.06C284.969 150.94 284.592 151.009 284.319 151.238C284.22 151.307 284.145 151.399 284.087 151.485C284.023 151.583 283.982 151.692 283.959 151.795C283.913 152.002 283.959 152.203 284.081 152.363C284.139 152.432 284.215 152.495 284.307 152.535C284.389 152.576 284.493 152.599 284.598 152.599C284.708 152.599 284.813 152.576 284.923 152.535C285.033 152.495 285.126 152.438 285.225 152.363C285.312 152.283 285.393 152.197 285.451 152.105C285.515 152.007 285.556 151.904 285.579 151.795C285.602 151.697 285.602 151.588 285.585 151.485C285.556 151.399 285.515 151.307 285.463 151.238ZM292.164 151.06C292.053 151.1 291.949 151.158 291.862 151.238C291.763 151.307 291.699 151.399 291.635 151.485C291.566 151.583 291.531 151.692 291.508 151.795C291.461 152.013 291.496 152.214 291.618 152.363C291.676 152.432 291.751 152.495 291.844 152.535C291.926 152.576 292.036 152.599 292.135 152.599C292.245 152.599 292.349 152.576 292.46 152.535C292.57 152.495 292.663 152.438 292.756 152.363C292.942 152.203 293.064 152.007 293.11 151.795C293.157 151.588 293.122 151.376 293 151.238C292.826 151.009 292.477 150.94 292.164 151.06ZM300.542 151.238C300.49 151.158 300.409 151.1 300.316 151.06C300.049 150.94 299.671 151.009 299.399 151.238C299.306 151.307 299.236 151.399 299.172 151.497C299.102 151.588 299.062 151.697 299.039 151.795C299.015 151.904 299.015 152.002 299.033 152.105C299.056 152.197 299.097 152.283 299.161 152.363C299.282 152.513 299.462 152.593 299.677 152.593C299.898 152.593 300.119 152.513 300.299 152.363C300.479 152.214 300.606 152.013 300.653 151.795C300.676 151.697 300.676 151.588 300.659 151.497C300.635 151.399 300.595 151.307 300.542 151.238ZM307.237 151.06C307.127 151.1 307.022 151.158 306.935 151.238C306.842 151.307 306.761 151.399 306.697 151.497C306.639 151.588 306.593 151.697 306.57 151.795C306.523 152.013 306.57 152.214 306.692 152.363C306.75 152.432 306.825 152.495 306.918 152.535C306.999 152.576 307.11 152.599 307.208 152.599C307.319 152.599 307.423 152.576 307.533 152.535C307.644 152.495 307.737 152.438 307.83 152.363C307.917 152.283 307.992 152.203 308.056 152.105C308.12 152.007 308.161 151.904 308.184 151.795C308.23 151.588 308.19 151.387 308.073 151.238C307.893 151.009 307.557 150.94 307.237 151.06ZM314.234 152.363C314.292 152.432 314.368 152.495 314.461 152.535C314.542 152.576 314.652 152.599 314.751 152.599C314.861 152.599 314.966 152.576 315.076 152.535C315.186 152.495 315.279 152.438 315.378 152.363C315.465 152.283 315.546 152.197 315.604 152.105C315.668 152.007 315.715 151.904 315.738 151.795C315.785 151.588 315.738 151.387 315.622 151.227C315.378 150.94 314.85 150.94 314.484 151.227C314.298 151.387 314.164 151.588 314.118 151.795C314.095 151.904 314.095 152.002 314.112 152.105C314.13 152.191 314.17 152.283 314.234 152.363ZM275.482 158.511C275.371 158.551 275.267 158.608 275.18 158.689C274.994 158.838 274.86 159.039 274.82 159.246C274.796 159.355 274.796 159.452 274.814 159.556C274.831 159.653 274.878 159.734 274.942 159.814C275 159.883 275.075 159.946 275.168 159.98C275.261 160.021 275.36 160.038 275.458 160.038C275.679 160.038 275.9 159.957 276.08 159.808C276.167 159.728 276.242 159.647 276.306 159.55C276.37 159.452 276.411 159.349 276.434 159.24C276.48 159.033 276.445 158.821 276.324 158.683C276.149 158.459 275.813 158.39 275.482 158.511ZM283.018 158.511C282.908 158.551 282.804 158.608 282.717 158.689C282.537 158.827 282.403 159.039 282.357 159.246C282.31 159.452 282.357 159.653 282.473 159.814C282.595 159.963 282.775 160.043 282.989 160.043C283.1 160.043 283.204 160.026 283.315 159.986C283.425 159.946 283.518 159.889 283.617 159.82C283.704 159.739 283.785 159.653 283.843 159.561C283.907 159.464 283.947 159.36 283.971 159.251C284.017 159.045 283.977 158.844 283.86 158.695C283.686 158.459 283.338 158.39 283.018 158.511ZM290.561 158.511C290.451 158.551 290.346 158.608 290.259 158.689C290.166 158.758 290.097 158.85 290.033 158.947C289.963 159.039 289.928 159.148 289.905 159.246C289.858 159.464 289.893 159.665 290.015 159.814C290.073 159.883 290.149 159.946 290.242 159.98C290.323 160.021 290.433 160.038 290.532 160.038C290.753 160.038 290.973 159.957 291.153 159.808C291.24 159.728 291.322 159.642 291.38 159.55C291.444 159.452 291.484 159.349 291.508 159.24C291.554 159.033 291.513 158.832 291.397 158.683C291.223 158.459 290.88 158.39 290.561 158.511ZM297.796 158.689C297.616 158.838 297.482 159.039 297.436 159.246C297.39 159.464 297.436 159.665 297.552 159.814C297.674 159.963 297.854 160.043 298.069 160.043C298.29 160.043 298.51 159.963 298.69 159.814C298.87 159.665 298.998 159.464 299.044 159.246C299.091 159.039 299.056 158.827 298.934 158.689C298.696 158.39 298.156 158.39 297.796 158.689ZM306.477 158.689C306.302 158.459 305.954 158.39 305.641 158.511C305.53 158.551 305.426 158.608 305.339 158.689C305.159 158.827 305.019 159.039 304.979 159.246C304.955 159.355 304.955 159.452 304.973 159.556C304.996 159.647 305.037 159.734 305.101 159.814C305.159 159.883 305.234 159.946 305.327 159.98C305.408 160.021 305.519 160.038 305.617 160.038C305.728 160.038 305.832 160.021 305.942 159.98C306.053 159.94 306.146 159.883 306.239 159.814C306.424 159.653 306.546 159.452 306.593 159.246C306.616 159.148 306.616 159.039 306.599 158.936C306.57 158.85 306.529 158.758 306.477 158.689ZM313.177 158.511C313.067 158.551 312.963 158.608 312.875 158.689C312.695 158.838 312.562 159.039 312.515 159.246C312.492 159.355 312.492 159.452 312.51 159.556C312.527 159.653 312.574 159.734 312.637 159.814C312.695 159.883 312.771 159.946 312.864 159.98C312.945 160.021 313.055 160.038 313.154 160.038C313.264 160.038 313.369 160.021 313.479 159.98C313.59 159.94 313.683 159.883 313.781 159.814C313.868 159.734 313.944 159.653 314.008 159.556C314.072 159.458 314.118 159.355 314.141 159.246C314.188 159.039 314.141 158.838 314.019 158.689C313.834 158.459 313.497 158.39 313.177 158.511ZM274.715 166.139C274.541 165.91 274.204 165.841 273.879 165.962C273.769 166.002 273.664 166.059 273.577 166.139C273.484 166.208 273.403 166.3 273.339 166.398C273.281 166.49 273.234 166.599 273.211 166.696C273.165 166.903 273.217 167.104 273.333 167.265C273.449 167.414 273.635 167.494 273.85 167.494C274.071 167.494 274.291 167.414 274.471 167.265C274.657 167.115 274.779 166.914 274.825 166.696C274.849 166.599 274.849 166.49 274.831 166.398C274.814 166.3 274.773 166.214 274.715 166.139ZM281.422 165.962C281.311 166.002 281.207 166.059 281.12 166.139C280.94 166.277 280.806 166.49 280.76 166.696C280.713 166.903 280.76 167.104 280.882 167.265C281.004 167.414 281.184 167.494 281.398 167.494C281.509 167.494 281.613 167.471 281.724 167.431C281.834 167.391 281.927 167.333 282.026 167.259C282.113 167.178 282.194 167.092 282.252 167C282.316 166.903 282.357 166.8 282.38 166.69C282.426 166.484 282.391 166.271 282.269 166.134C282.084 165.916 281.735 165.841 281.422 165.962ZM288.958 165.962C288.848 166.002 288.744 166.059 288.657 166.139C288.564 166.208 288.494 166.3 288.43 166.398C288.36 166.49 288.326 166.599 288.302 166.696C288.256 166.914 288.291 167.115 288.413 167.265C288.471 167.333 288.546 167.397 288.639 167.437C288.72 167.477 288.831 167.5 288.929 167.5C289.04 167.5 289.144 167.477 289.255 167.437C289.365 167.397 289.458 167.339 289.551 167.265C289.737 167.104 289.858 166.909 289.905 166.696C289.951 166.49 289.911 166.289 289.795 166.139C289.62 165.916 289.278 165.841 288.958 165.962ZM296.193 166.139C296.013 166.289 295.88 166.49 295.833 166.696C295.81 166.805 295.81 166.903 295.828 167.006C295.851 167.098 295.891 167.184 295.955 167.265C296.077 167.414 296.257 167.494 296.472 167.494C296.693 167.494 296.913 167.414 297.093 167.265C297.273 167.115 297.401 166.914 297.448 166.696C297.494 166.49 297.459 166.277 297.337 166.139C297.093 165.841 296.565 165.841 296.193 166.139ZM304.032 165.962C303.922 166.002 303.817 166.059 303.73 166.139C303.637 166.208 303.556 166.3 303.492 166.398C303.434 166.49 303.388 166.599 303.364 166.696C303.318 166.914 303.364 167.115 303.486 167.265C303.544 167.333 303.62 167.397 303.713 167.437C303.794 167.477 303.904 167.5 304.003 167.5C304.113 167.5 304.218 167.477 304.328 167.437C304.439 167.397 304.532 167.339 304.624 167.265C304.712 167.184 304.793 167.098 304.851 167.006C304.915 166.909 304.955 166.805 304.979 166.696C305.025 166.49 304.984 166.289 304.868 166.139C304.7 165.916 304.352 165.841 304.032 165.962ZM311.273 166.139C311.093 166.289 310.959 166.49 310.913 166.696C310.89 166.805 310.89 166.903 310.907 167.006C310.93 167.098 310.971 167.184 311.035 167.265C311.093 167.333 311.168 167.397 311.261 167.437C311.343 167.477 311.453 167.5 311.552 167.5C311.662 167.5 311.766 167.477 311.877 167.437C311.987 167.397 312.08 167.339 312.179 167.265C312.266 167.184 312.347 167.098 312.405 167.006C312.469 166.909 312.515 166.805 312.539 166.696C312.585 166.49 312.539 166.289 312.417 166.139C312.173 165.841 311.639 165.841 311.273 166.139ZM273.113 173.596C272.938 173.366 272.602 173.297 272.276 173.418C272.166 173.458 272.062 173.515 271.974 173.596C271.882 173.665 271.8 173.757 271.736 173.854C271.678 173.946 271.632 174.055 271.609 174.153C271.562 174.371 271.609 174.572 271.731 174.721C271.847 174.87 272.033 174.95 272.247 174.95C272.468 174.95 272.689 174.87 272.869 174.721C273.055 174.572 273.176 174.371 273.223 174.153C273.246 174.055 273.246 173.946 273.229 173.854C273.211 173.757 273.171 173.665 273.113 173.596ZM280.429 173.412C280.15 173.292 279.784 173.36 279.511 173.59C279.331 173.728 279.198 173.94 279.151 174.147C279.105 174.365 279.151 174.566 279.267 174.715C279.326 174.784 279.401 174.847 279.494 174.882C279.575 174.922 279.68 174.939 279.784 174.939C279.895 174.939 279.999 174.922 280.109 174.882C280.22 174.841 280.313 174.784 280.411 174.715C280.591 174.566 280.719 174.365 280.766 174.147C280.812 173.94 280.777 173.728 280.655 173.59C280.603 173.515 280.522 173.452 280.429 173.412ZM288.192 173.596C288.018 173.366 287.669 173.297 287.356 173.418C287.246 173.458 287.141 173.515 287.054 173.596C286.961 173.665 286.891 173.757 286.828 173.854C286.769 173.946 286.723 174.055 286.7 174.153C286.653 174.371 286.688 174.572 286.81 174.721C286.868 174.79 286.944 174.853 287.037 174.887C287.129 174.927 287.228 174.945 287.327 174.945C287.437 174.945 287.542 174.927 287.652 174.887C287.762 174.847 287.855 174.79 287.948 174.721C288.134 174.572 288.256 174.359 288.302 174.153C288.326 174.055 288.326 173.946 288.308 173.854C288.291 173.757 288.25 173.665 288.192 173.596ZM294.597 173.584C294.411 173.745 294.277 173.946 294.231 174.153C294.184 174.359 294.231 174.56 294.347 174.721C294.405 174.79 294.48 174.853 294.573 174.887C294.655 174.927 294.759 174.945 294.864 174.945C294.974 174.945 295.079 174.927 295.189 174.887C295.299 174.847 295.392 174.79 295.491 174.721C295.671 174.572 295.799 174.371 295.845 174.153C295.891 173.946 295.857 173.734 295.735 173.584C295.491 173.297 294.962 173.297 294.597 173.584ZM303.271 173.596C303.097 173.366 302.749 173.297 302.435 173.418C302.325 173.458 302.221 173.515 302.133 173.596C301.953 173.734 301.814 173.946 301.773 174.153C301.75 174.262 301.75 174.359 301.768 174.463C301.791 174.554 301.831 174.64 301.895 174.721C301.953 174.79 302.029 174.853 302.122 174.887C302.203 174.927 302.313 174.945 302.412 174.945C302.522 174.945 302.627 174.927 302.737 174.887C302.848 174.847 302.941 174.79 303.033 174.721C303.219 174.56 303.341 174.359 303.388 174.153C303.411 174.055 303.411 173.946 303.393 173.843C303.364 173.757 303.324 173.665 303.271 173.596ZM309.67 173.584C309.484 173.745 309.351 173.946 309.304 174.153C309.281 174.262 309.281 174.359 309.299 174.463C309.322 174.554 309.363 174.64 309.426 174.721C309.484 174.79 309.56 174.853 309.653 174.887C309.734 174.927 309.844 174.945 309.943 174.945C310.053 174.945 310.158 174.927 310.268 174.887C310.379 174.847 310.472 174.79 310.57 174.721C310.657 174.64 310.739 174.554 310.797 174.463C310.861 174.365 310.907 174.262 310.93 174.153C310.977 173.946 310.93 173.745 310.814 173.584C310.57 173.297 310.036 173.297 309.67 173.584ZM271.516 181.046C271.342 180.817 271.005 180.748 270.68 180.868C270.569 180.909 270.465 180.966 270.378 181.046C270.192 181.196 270.058 181.397 270.018 181.603C269.971 181.81 270.018 182.022 270.14 182.171C270.198 182.24 270.273 182.303 270.366 182.338C270.459 182.378 270.558 182.401 270.656 182.401C270.877 182.401 271.098 182.321 271.278 182.171C271.365 182.091 271.446 182.005 271.504 181.913C271.568 181.816 271.609 181.712 271.632 181.603C271.655 181.506 271.655 181.397 271.638 181.305C271.609 181.207 271.568 181.115 271.516 181.046ZM278.826 180.868C278.547 180.748 278.182 180.817 277.909 181.046C277.729 181.184 277.595 181.397 277.549 181.603C277.502 181.81 277.549 182.011 277.671 182.171C277.729 182.24 277.804 182.303 277.897 182.338C277.978 182.378 278.083 182.401 278.187 182.401C278.298 182.401 278.402 182.378 278.513 182.338C278.623 182.298 278.716 182.24 278.815 182.171C278.995 182.022 279.122 181.821 279.169 181.603C279.215 181.397 279.18 181.184 279.058 181.046C279 180.966 278.919 180.909 278.826 180.868ZM285.753 180.868C285.643 180.909 285.538 180.966 285.451 181.046C285.358 181.115 285.289 181.207 285.225 181.305C285.155 181.397 285.12 181.506 285.097 181.603C285.051 181.821 285.086 182.022 285.207 182.171C285.266 182.24 285.341 182.303 285.434 182.338C285.527 182.378 285.62 182.401 285.724 182.401C285.835 182.401 285.939 182.378 286.049 182.338C286.16 182.298 286.253 182.24 286.346 182.171C286.531 182.011 286.653 181.816 286.7 181.603C286.746 181.397 286.706 181.196 286.589 181.046C286.421 180.817 286.073 180.748 285.753 180.868ZM293.906 180.868C293.639 180.748 293.261 180.817 292.988 181.046C292.808 181.196 292.675 181.397 292.628 181.603C292.582 181.81 292.628 182.011 292.75 182.171C292.872 182.321 293.052 182.401 293.267 182.401C293.488 182.401 293.708 182.321 293.888 182.171C294.068 182.022 294.196 181.821 294.242 181.603C294.289 181.397 294.254 181.184 294.132 181.046C294.074 180.966 293.999 180.909 293.906 180.868ZM300.827 180.868C300.717 180.909 300.612 180.966 300.525 181.046C300.432 181.115 300.351 181.207 300.287 181.305C300.229 181.397 300.182 181.506 300.159 181.603C300.113 181.821 300.159 182.022 300.281 182.171C300.339 182.24 300.415 182.303 300.508 182.338C300.589 182.378 300.699 182.401 300.798 182.401C300.908 182.401 301.013 182.378 301.123 182.338C301.233 182.298 301.326 182.24 301.419 182.171C301.506 182.091 301.588 182.005 301.646 181.913C301.71 181.816 301.75 181.712 301.773 181.603C301.82 181.397 301.779 181.196 301.663 181.046C301.495 180.817 301.146 180.748 300.827 180.868ZM308.37 180.868C308.259 180.909 308.155 180.966 308.068 181.046C307.888 181.196 307.754 181.397 307.708 181.603C307.684 181.712 307.684 181.81 307.702 181.913C307.725 182.005 307.766 182.091 307.83 182.171C307.888 182.24 307.963 182.303 308.056 182.338C308.137 182.378 308.248 182.401 308.346 182.401C308.457 182.401 308.561 182.378 308.672 182.338C308.782 182.298 308.875 182.24 308.973 182.171C309.061 182.091 309.142 182.005 309.2 181.913C309.264 181.816 309.31 181.712 309.333 181.603C309.38 181.397 309.333 181.196 309.212 181.046C309.032 180.817 308.689 180.748 308.37 180.868Z" fill="white"/>
<g clip-path="url(#clip1_97_2082)">
<path d="M183.053 45.4327C182.523 46.8705 181.72 48.1207 180.668 49.1482C179.471 50.3176 177.902 51.2469 176.007 51.9098C175.945 51.9315 175.88 51.9493 175.815 51.9624C175.729 51.9794 175.641 51.9886 175.554 51.9898H175.537C175.444 51.9898 175.351 51.9804 175.259 51.9624C175.194 51.9493 175.13 51.9315 175.068 51.9103C173.17 51.2484 171.6 50.3196 170.401 49.1501C169.349 48.1227 168.547 46.8732 168.017 45.4354C167.054 42.8212 167.108 39.9414 167.153 37.6272L167.153 37.5916C167.162 37.4005 167.168 37.1998 167.171 36.9781C167.187 35.8898 168.052 34.9895 169.141 34.9288C171.41 34.8021 173.166 34.062 174.666 32.6L174.679 32.5879C174.928 32.3595 175.242 32.2474 175.554 32.2521C175.855 32.256 176.155 32.3679 176.395 32.5879L176.408 32.6C177.909 34.062 179.664 34.8021 181.933 34.9288C183.022 34.9895 183.887 35.8898 183.903 36.9781C183.906 37.2013 183.912 37.4017 183.921 37.5916L183.922 37.6067C183.965 39.9253 184.02 42.8108 183.053 45.4327Z" fill="#FAB400"/>
<path d="M183.054 45.4326C182.523 46.8704 181.721 48.1206 180.669 49.148C179.471 50.3175 177.903 51.2468 176.008 51.9097C175.945 51.9313 175.881 51.9491 175.815 51.9622C175.729 51.9792 175.642 51.9884 175.555 51.9896V32.252C175.856 32.2559 176.156 32.3678 176.396 32.5878L176.409 32.5998C177.909 34.0619 179.665 34.802 181.934 34.9286C183.022 34.9893 183.888 35.8897 183.904 36.978C183.907 37.2012 183.913 37.4016 183.922 37.5915L183.922 37.6065C183.966 39.9251 184.021 42.8107 183.054 45.4326Z" fill="#FAB400"/>
<path d="M180.456 42.1212C180.456 44.8278 178.258 47.0308 175.554 47.0405H175.536C172.824 47.0405 170.617 44.8336 170.617 42.1212C170.617 39.409 172.824 37.2021 175.536 37.2021H175.554C178.258 37.2118 180.456 39.4149 180.456 42.1212Z" fill="white"/>
<path d="M180.456 42.1212C180.456 44.8278 178.259 47.0308 175.555 47.0405V37.2021C178.259 37.2118 180.456 39.4149 180.456 42.1212Z" fill="white"/>
<path d="M177.771 41.4125L175.556 43.6282L175.077 44.1069C174.964 44.22 174.815 44.2765 174.667 44.2765C174.519 44.2765 174.371 44.22 174.257 44.1069L173.228 43.0772C173.002 42.851 173.002 42.4847 173.228 42.2583C173.454 42.0321 173.821 42.0321 174.047 42.2583L174.667 42.8784L176.952 40.5936C177.178 40.3672 177.545 40.3672 177.771 40.5936C177.997 40.8198 177.997 41.1866 177.771 41.4125Z" fill="#F39629"/>
<path d="M177.77 41.4125L175.555 43.6282V41.99L176.951 40.5936C177.177 40.3672 177.544 40.3672 177.77 40.5936C177.996 40.8198 177.996 41.1866 177.77 41.4125Z" fill="#F39629"/>
</g>
<g clip-path="url(#clip2_97_2082)">
<path d="M72.2033 38.0125H67.2969V32.0547H70.1005L72.2033 34.1574V38.0125Z" fill="#F39629"/>
<path d="M64.1408 38.0125H59.2344V32.0547H62.038L64.1408 34.1574V38.0125Z" fill="#F39629"/>
<path d="M62.0391 32.0547V34.1574H64.1418L62.0391 32.0547Z" fill="#7BA6E3"/>
<path d="M80.2619 38.0125H75.3555V32.0547H78.1591L80.2619 34.1574V38.0125Z" fill="#F39629"/>
<path d="M70.1016 32.0547V34.1574H72.2043L70.1016 32.0547Z" fill="#7BA6E3"/>
<path d="M78.1602 32.0547V34.1574H80.2629L78.1602 32.0547Z" fill="#7BA6E3"/>
<path d="M66.9453 41.8672H72.5526V44.6709H66.9453V41.8672Z" fill="#F39629"/>
<path d="M66.9453 46.0732H72.5526V48.8769H66.9453V46.0732Z" fill="#F39629"/>
<path d="M66.9453 50.2783H72.5526V53.082H66.9453V50.2783Z" fill="#F39629"/>
<path d="M78.1618 40.1154H61.3398V38.0127H62.0408V39.4145H77.4609V38.0127H78.1618V40.1154Z" fill="#4A586E"/>
<path d="M69.3984 38.0127H70.0994V39.765H69.3984V38.0127Z" fill="#4A586E"/>
<path d="M69.3984 39.7646H70.0994V41.8674H69.3984V39.7646Z" fill="#4A586E"/>
<path d="M75.7088 47.8254H73.2556V47.1244H75.7088C76.675 47.1244 77.4611 46.3383 77.4611 45.3722C77.4611 44.406 76.675 43.6199 75.7088 43.6199H72.5547V42.9189H75.7088C77.0615 42.9189 78.162 44.0194 78.162 45.3722C78.162 46.7249 77.0615 47.8254 75.7088 47.8254Z" fill="#4A586E"/>
<path d="M74.0609 48.7741L72.7617 47.4749L74.0609 46.1758L74.5564 46.6714L73.7529 47.4749L74.5564 48.2785L74.0609 48.7741Z" fill="#4A586E"/>
<path d="M66.2463 52.0314H63.7931C62.4403 52.0314 61.3398 50.9309 61.3398 49.5782C61.3398 48.2255 62.4403 47.125 63.7931 47.125H66.9472V47.8259H63.7931C62.8269 47.8259 62.0408 48.6121 62.0408 49.5782C62.0408 50.5444 62.8269 51.3305 63.7931 51.3305H66.2463V52.0314Z" fill="#4A586E"/>
<path d="M65.4409 52.9802L64.9453 52.4846L65.7489 51.681L64.9453 50.8774L65.4409 50.3818L66.74 51.681L65.4409 52.9802Z" fill="#4A586E"/>
</g>
<path d="M53.6341 118.104V115.938H52.5508V121.715H53.6341V119.548H60.888V121.715H62.3324V118.104H53.6341Z" fill="#4A586E"/>
<path d="M52.1827 115.938V118.104H43.4844V121.715H44.9287V119.548H52.1827V121.715H52.9049V115.938H52.1827Z" fill="#4A586E"/>
<path d="M56.5357 120.995H52.9087L50.7422 124.622L52.9087 128.249H56.5357V120.995Z" fill="#FAB400"/>
<path d="M49.2812 120.995H52.9082V128.249H49.2812V120.995Z" fill="#FAB400"/>
<path d="M56.5357 109.408H52.9087L50.7422 113.035L52.9087 116.662H56.5357V109.408Z" fill="#F39629"/>
<path d="M49.2812 109.408H52.9082V116.662H49.2812V109.408Z" fill="#F39629"/>
<path d="M47.8399 128.249H40.5859V120.995H47.8399V128.249Z" fill="#FAB400"/>
<path d="M65.2422 128.249H57.9883V120.995H65.2422V128.249Z" fill="#FAB400"/>
<g clip-path="url(#clip3_97_2082)">
<path d="M74.2759 234.844L73.5491 234.497L73.8963 233.77L74.6231 234.117L74.2759 234.844ZM72.8184 234.149L72.0836 233.802L72.4308 233.076L73.1575 233.423L72.8184 234.149ZM71.3609 233.455L70.6302 233.108L70.9774 232.381L71.7081 232.728L71.3609 233.455ZM69.9035 232.761L69.1727 232.413L69.5199 231.687L70.2507 232.034L69.9035 232.761ZM68.4501 232.066L67.7193 231.719L68.0463 230.992L68.7771 231.339L68.4501 232.066ZM66.9926 231.372L66.2578 231.025L66.605 230.298L67.3358 230.661L66.9926 231.372Z" fill="#E4E9F0"/>
<path d="M66.6264 249.588L66.2227 248.878L66.9292 248.474L67.3329 249.18L66.6264 249.588ZM68.0475 248.829L67.6438 248.102L68.3543 247.699L68.7581 248.405L68.0475 248.829ZM69.4565 248.022L69.0528 247.315L69.7593 246.911L70.163 247.622L69.4565 248.022ZM70.8736 247.251L70.4699 246.544L71.1804 246.14L71.5842 246.847L70.8736 247.251ZM72.2867 246.475L71.8829 245.765L72.5894 245.361L72.9932 246.068L72.2867 246.475ZM73.6997 245.696L73.296 244.99L74.0025 244.586L74.4062 245.292L73.6997 245.696Z" fill="#E4E9F0"/>
<path d="M68.8594 241.07L69.2065 240.341L69.9355 240.688L69.5884 241.417L68.8594 241.07Z" fill="#E4E9F0"/>
<path d="M63.0273 238.292L63.3744 237.562L64.1035 237.91L63.7564 238.639L63.0273 238.292Z" fill="#E4E9F0"/>
<path d="M64.4883 238.986L64.8354 238.257L65.5644 238.604L65.2173 239.333L64.4883 238.986Z" fill="#E4E9F0"/>
<path d="M70.3164 241.764L70.6635 241.035L71.3925 241.382L71.0454 242.111L70.3164 241.764Z" fill="#E4E9F0"/>
<path d="M70.3711 237.963L71.0785 237.574L71.4678 238.282L70.7603 238.671L70.3711 237.963Z" fill="#E4E9F0"/>
<path d="M63.2969 241.852L64.0043 241.463L64.3935 242.17L63.6861 242.56L63.2969 241.852Z" fill="#E4E9F0"/>
<path d="M66.6923 239.988L67.0194 239.301L66.2886 238.954L65.9414 239.681L66.6439 240.016L66.1271 240.299L66.5147 241.005L67.2253 240.617L66.8336 239.911L66.6923 239.988Z" fill="#E4E9F0"/>
<path d="M68.9609 238.742L69.6684 238.353L70.0576 239.06L69.3502 239.449L68.9609 238.742Z" fill="#E4E9F0"/>
<path d="M64.7109 241.079L65.4185 240.69L65.8075 241.398L65.0999 241.787L64.7109 241.079Z" fill="#E4E9F0"/>
<path d="M68.2542 239.131L67.5477 239.518L67.689 239.777L67.4023 240.374L68.1331 240.722L68.4803 239.995L68.4157 239.963L68.6418 239.837L68.2542 239.131Z" fill="#E4E9F0"/>
<path d="M66.3953 232.106L66.359 231.808L65.0428 231.565C64.9835 231.379 64.9079 231.198 64.8167 231.024L65.5758 229.922L65.3941 229.688C65.1575 229.388 64.8865 229.117 64.5866 228.881L64.3525 228.699L63.2422 229.45C63.0689 229.359 62.8878 229.283 62.7012 229.224L62.459 227.908L62.1602 227.871C61.7796 227.823 61.3943 227.823 61.0136 227.871L60.7149 227.908L60.4726 229.224C60.286 229.283 60.105 229.359 59.9316 229.45L58.8295 228.691L58.5953 228.873C58.2954 229.109 58.0244 229.38 57.7878 229.68L57.6062 229.914L58.3571 231.024C58.266 231.198 58.1903 231.379 58.131 231.565L56.8149 231.808L56.7785 232.106C56.7301 232.487 56.7301 232.872 56.7785 233.253L56.8149 233.552L58.131 233.794C58.1903 233.981 58.266 234.162 58.3571 234.335L57.5981 235.437L57.7798 235.671C58.0163 235.971 58.2874 236.242 58.5872 236.479L58.8214 236.66L59.9316 235.91C60.105 236.001 60.286 236.076 60.4726 236.136L60.7149 237.452L61.0136 237.488C61.3943 237.537 61.7796 237.537 62.1602 237.488L62.459 237.452L62.7012 236.136C62.8878 236.076 63.0689 236.001 63.2422 235.91L64.3444 236.669L64.5785 236.487C64.8784 236.25 65.1495 235.979 65.386 235.679L65.5677 235.445L64.8167 234.335C64.9079 234.162 64.9835 233.981 65.0428 233.794L66.359 233.552L66.3953 233.253C66.4438 232.872 66.4438 232.487 66.3953 232.106ZM62.7981 232.68C62.7981 233.349 62.2559 233.891 61.5869 233.891C60.918 233.891 60.3757 233.349 60.3757 232.68C60.3757 232.011 60.918 231.469 61.5869 231.469C62.2559 231.469 62.7981 232.011 62.7981 232.68Z" fill="#F39629"/>
<path d="M80.9305 239.374L80.8941 239.075L79.578 238.833C79.5187 238.646 79.443 238.465 79.3519 238.292L80.1109 237.19L79.9292 236.956C79.6927 236.656 79.4217 236.385 79.1218 236.148L78.8876 235.967L77.7774 236.717C77.604 236.626 77.423 236.551 77.2364 236.491L76.9941 235.175L76.6954 235.139C76.3147 235.09 75.9295 235.09 75.5488 235.139L75.25 235.175L75.0078 236.491C74.8212 236.551 74.6401 236.626 74.4668 236.717L73.3646 235.958L73.1305 236.14C72.8306 236.377 72.5595 236.648 72.323 236.948L72.1413 237.182L72.8923 238.292C72.8011 238.465 72.7255 238.646 72.6662 238.833L71.35 239.075L71.3137 239.374C71.2652 239.755 71.2652 240.14 71.3137 240.521L71.35 240.819L72.6662 241.062C72.7255 241.248 72.8011 241.429 72.8923 241.603L72.1332 242.705L72.3149 242.939C72.5515 243.239 72.8225 243.51 73.1224 243.746L73.3565 243.928L74.4668 243.177C74.6401 243.268 74.8212 243.344 75.0078 243.403L75.25 244.719L75.5488 244.756C75.9295 244.804 76.3147 244.804 76.6954 244.756L76.9941 244.719L77.2364 243.403C77.423 243.344 77.604 243.268 77.7774 243.177L78.8795 243.936L79.1137 243.754C79.4136 243.518 79.6846 243.247 79.9212 242.947L80.1028 242.713L79.3519 241.603C79.443 241.429 79.5187 241.248 79.578 241.062L80.8941 240.819L80.9305 240.521C80.9789 240.14 80.9789 239.755 80.9305 239.374ZM77.3333 239.947C77.3333 240.616 76.791 241.158 76.1221 241.158C75.4532 241.158 74.9109 240.616 74.9109 239.947C74.9109 239.278 75.4532 238.736 76.1221 238.736C76.791 238.736 77.3333 239.278 77.3333 239.947Z" fill="#4A586E"/>
<path d="M66.3953 246.641L66.359 246.342L65.0428 246.1C64.9835 245.913 64.9079 245.732 64.8167 245.559L65.5758 244.456L65.3941 244.222C65.1575 243.922 64.8865 243.651 64.5866 243.415L64.3525 243.233L63.2422 243.984C63.0689 243.893 62.8878 243.817 62.7012 243.758L62.459 242.442L62.1602 242.405C61.7796 242.357 61.3943 242.357 61.0136 242.405L60.7149 242.442L60.4726 243.758C60.286 243.817 60.105 243.893 59.9316 243.984L58.8295 243.225L58.5953 243.407C58.2954 243.643 58.0244 243.914 57.7878 244.214L57.6062 244.448L58.3571 245.559C58.266 245.732 58.1903 245.913 58.131 246.1L56.8149 246.342L56.7785 246.641C56.7301 247.021 56.7301 247.407 56.7785 247.787L56.8149 248.086L58.131 248.328C58.1903 248.515 58.266 248.696 58.3571 248.869L57.5981 249.971L57.7798 250.206C58.0163 250.505 58.2874 250.776 58.5872 251.013L58.8214 251.195L59.9316 250.444C60.105 250.535 60.286 250.61 60.4726 250.67L60.7149 251.986L61.0136 252.022C61.3943 252.071 61.7796 252.071 62.1602 252.022L62.459 251.986L62.7012 250.67C62.8878 250.61 63.0689 250.535 63.2422 250.444L64.3444 251.203L64.5785 251.021C64.8784 250.784 65.1495 250.513 65.386 250.214L65.5677 249.979L64.8167 248.869C64.9079 248.696 64.9835 248.515 65.0428 248.328L66.359 248.086L66.3953 247.787C66.4438 247.407 66.4438 247.021 66.3953 246.641ZM62.7981 247.214C62.7981 247.883 62.2559 248.425 61.5869 248.425C60.918 248.425 60.3757 247.883 60.3757 247.214C60.3757 246.545 60.918 246.003 61.5869 246.003C62.2559 246.003 62.7981 246.545 62.7981 247.214Z" fill="#F39629"/>
</g>
<g clip-path="url(#clip4_97_2082)">
<path d="M286.376 228.743H281.105C280.526 228.743 280.051 229.202 280.051 229.781V231.503H287.41V229.781C287.41 229.202 286.955 228.743 286.376 228.743V228.743Z" fill="#707384"/>
<path d="M280.051 234.244V235.952C280.051 236.531 280.525 236.979 281.105 236.979H286.375C286.955 236.979 287.41 236.531 287.41 235.952V231.503H280.051V234.244Z" fill="#707384"/>
<path d="M287.423 231.489H280.055V229.781C280.055 229.202 280.524 228.732 281.103 228.732H286.374C286.953 228.732 287.423 229.202 287.423 229.781V231.489Z" fill="#4A586E"/>
<path d="M280.055 231.488H287.423V234.244H280.055V231.488Z" fill="#637187"/>
<path d="M286.374 237.001H281.103C280.524 237.001 280.055 236.532 280.055 235.953V234.245H287.423V235.953C287.423 236.532 286.953 237.001 286.374 237.001Z" fill="#4A586E"/>
<path d="M281.721 230.11C281.721 230.307 281.561 230.467 281.364 230.467C281.167 230.467 281.008 230.307 281.008 230.11C281.008 229.914 281.167 229.754 281.364 229.754C281.561 229.754 281.721 229.914 281.721 230.11Z" fill="#F39629"/>
<path d="M283.018 230.11C283.018 230.307 282.858 230.467 282.661 230.467C282.464 230.467 282.305 230.307 282.305 230.11C282.305 229.914 282.464 229.754 282.661 229.754C282.858 229.754 283.018 229.914 283.018 230.11Z" fill="#ADCFFF"/>
<path d="M281.721 232.866C281.721 233.063 281.561 233.223 281.364 233.223C281.167 233.223 281.008 233.063 281.008 232.866C281.008 232.669 281.167 232.51 281.364 232.51C281.561 232.51 281.721 232.669 281.721 232.866Z" fill="#F39629"/>
<path d="M283.018 232.866C283.018 233.063 282.858 233.223 282.661 233.223C282.464 233.223 282.305 233.063 282.305 232.866C282.305 232.669 282.464 232.51 282.661 232.51C282.858 232.51 283.018 232.669 283.018 232.866Z" fill="#ADCFFF"/>
<path d="M281.721 235.623C281.721 235.82 281.561 235.979 281.364 235.979C281.167 235.979 281.008 235.82 281.008 235.623C281.008 235.426 281.167 235.267 281.364 235.267C281.561 235.267 281.721 235.426 281.721 235.623Z" fill="#F39629"/>
<path d="M283.018 235.623C283.018 235.82 282.858 235.979 282.661 235.979C282.464 235.979 282.305 235.82 282.305 235.623C282.305 235.426 282.464 235.267 282.661 235.267C282.858 235.267 283.018 235.426 283.018 235.623Z" fill="#ADCFFF"/>
<path d="M285.243 230.447H286.186C286.372 230.447 286.523 230.296 286.523 230.11C286.523 229.924 286.372 229.773 286.186 229.773H285.243C285.057 229.773 284.906 229.924 284.906 230.11C284.906 230.296 285.057 230.447 285.243 230.447V230.447Z" fill="white"/>
<path d="M286.186 232.53H285.243C285.057 232.53 284.906 232.681 284.906 232.867C284.906 233.053 285.057 233.204 285.243 233.204H286.186C286.372 233.204 286.523 233.053 286.523 232.867C286.523 232.681 286.372 232.53 286.186 232.53V232.53Z" fill="white"/>
<path d="M286.186 235.286H285.243C285.057 235.286 284.906 235.437 284.906 235.623C284.906 235.809 285.057 235.96 285.243 235.96H286.186C286.372 235.96 286.523 235.809 286.523 235.623C286.523 235.437 286.372 235.286 286.186 235.286V235.286Z" fill="white"/>
<path d="M281.782 248.74H273.008V243.662C273.008 243.225 273.362 242.871 273.799 242.871H280.991C281.428 242.871 281.782 243.225 281.782 243.662V248.74Z" fill="#F39629"/>
<path d="M276.398 249.405H278.395V250.65H276.398V249.405Z" fill="#4A586E"/>
<path d="M273.008 248.302H281.782V249.387C281.782 249.494 281.696 249.58 281.589 249.58H273.201C273.094 249.58 273.008 249.494 273.008 249.387V248.302Z" fill="#4A586E"/>
<path d="M278.823 251.162H275.966C275.78 251.162 275.629 251.011 275.629 250.825C275.629 250.639 275.78 250.488 275.966 250.488H278.823C279.009 250.488 279.16 250.639 279.16 250.825C279.16 251.011 279.009 251.162 278.823 251.162Z" fill="#4A586E"/>
<path d="M276.627 247.185C276.627 247.371 276.476 247.522 276.29 247.522C276.104 247.522 275.953 247.371 275.953 247.185C275.953 246.998 276.104 246.848 276.29 246.848C276.476 246.848 276.627 246.998 276.627 247.185Z" fill="white"/>
<path d="M277.721 247.185C277.721 247.371 277.57 247.522 277.384 247.522C277.198 247.522 277.047 247.371 277.047 247.185C277.047 246.998 277.198 246.848 277.384 246.848C277.57 246.848 277.721 246.998 277.721 247.185Z" fill="white"/>
<path d="M278.807 247.185C278.807 247.371 278.656 247.522 278.47 247.522C278.284 247.522 278.133 247.371 278.133 247.185C278.133 246.998 278.284 246.848 278.47 246.848C278.656 246.848 278.807 246.998 278.807 247.185Z" fill="white"/>
<path d="M279.947 247.185C279.947 247.371 279.796 247.522 279.61 247.522C279.424 247.522 279.273 247.371 279.273 247.185C279.273 246.998 279.424 246.848 279.61 246.848C279.796 246.848 279.947 246.998 279.947 247.185Z" fill="white"/>
<path d="M275.514 247.185C275.514 247.371 275.363 247.522 275.177 247.522C274.991 247.522 274.84 247.371 274.84 247.185C274.84 246.998 274.991 246.848 275.177 246.848C275.363 246.848 275.514 246.998 275.514 247.185Z" fill="white"/>
<path d="M291.899 250.825H288.752C288.358 250.825 288.039 250.506 288.039 250.112V243.584C288.039 243.19 288.358 242.871 288.752 242.871H291.899C292.293 242.871 292.612 243.19 292.612 243.584V250.112C292.612 250.506 292.293 250.825 291.899 250.825Z" fill="#4A586E"/>
<path d="M291.899 249.896H288.752C288.358 249.896 288.039 249.577 288.039 249.183V244.514C288.039 244.12 288.358 243.801 288.752 243.801H291.899C292.293 243.801 292.612 244.12 292.612 244.514V249.183C292.612 249.577 292.293 249.896 291.899 249.896V249.896Z" fill="#F39629"/>
<path d="M289.269 239.536H284.075V238.299C284.075 238.113 283.924 237.962 283.738 237.962C283.552 237.962 283.401 238.113 283.401 238.299V239.536H278.206C277.522 239.536 276.965 240.093 276.965 240.777V241.567C276.965 241.753 277.116 241.903 277.302 241.903C277.488 241.903 277.639 241.753 277.639 241.567V240.777C277.639 240.464 277.893 240.21 278.206 240.21H289.269C289.582 240.21 289.836 240.464 289.836 240.777V241.567C289.836 241.753 289.987 241.903 290.173 241.903C290.36 241.903 290.511 241.753 290.511 241.567V240.777C290.511 240.093 289.954 239.536 289.269 239.536V239.536Z" fill="#4A586E"/>
</g>
<path d="M309.294 114.335L308.32 116.598L309.294 120.175C314.983 120.175 319.611 115.546 319.611 109.857L316.552 108.884L313.771 109.857C313.771 112.326 311.762 114.335 309.294 114.335Z" fill="#FFD9AB"/>
<path d="M302.004 117.15C303.872 119.018 306.452 120.175 309.296 120.175V114.335C308.062 114.335 306.942 113.833 306.131 113.022L303.331 114.069L302.004 117.15Z" fill="#E4E9F0"/>
<path d="M309.294 99.541L308.32 102.558L309.294 105.381C311.762 105.381 313.771 107.39 313.771 109.859H319.611C319.611 104.169 314.983 99.541 309.294 99.541Z" fill="#F39629"/>
<path d="M304.821 109.859C304.821 107.39 306.829 105.381 309.298 105.381V99.541C303.609 99.541 298.98 104.169 298.98 109.859C298.98 112.703 300.138 115.282 302.006 117.151L306.134 113.023C305.323 112.212 304.821 111.093 304.821 109.859V109.859Z" fill="white"/>
<path d="M271.281 31.7197H279.132V35.6449H271.281V31.7197Z" fill="#F39629"/>
<path d="M271.281 37.6074H279.132V41.5326H271.281V37.6074Z" fill="#F39629"/>
<path d="M271.281 43.4951H279.132V47.4203H271.281V43.4951Z" fill="#F39629"/>
<path d="M283.545 40.0604H280.11V39.0791H283.545C284.897 39.0791 285.998 37.9785 285.998 36.6259C285.998 35.2733 284.897 34.1727 283.545 34.1727H279.129V33.1914H283.545C285.438 33.1914 286.979 34.7321 286.979 36.6259C286.979 38.5197 285.438 40.0604 283.545 40.0604Z" fill="#4A586E"/>
<path d="M281.237 41.3886L279.418 39.5698L281.237 37.751L281.931 38.4448L280.806 39.5698L281.931 40.6948L281.237 41.3886Z" fill="#4A586E"/>
<path d="M270.299 45.9481H266.864C264.97 45.9481 263.43 44.4074 263.43 42.5136C263.43 40.6198 264.97 39.0791 266.864 39.0791H271.28V40.0604H266.864C265.512 40.0604 264.411 41.161 264.411 42.5136C264.411 43.8662 265.512 44.9668 266.864 44.9668H270.299V45.9481Z" fill="#4A586E"/>
<path d="M269.174 47.2763L268.48 46.5825L269.605 45.4575L268.48 44.3325L269.174 43.6387L270.993 45.4575L269.174 47.2763Z" fill="#4A586E"/>
</g>
<defs>
<clipPath id="clip0_97_2082">
<rect width="350" height="280" rx="4" fill="white"/>
</clipPath>
<clipPath id="clip1_97_2082">
<rect width="19.7378" height="19.7378" fill="white" transform="translate(167.094 32.252)"/>
</clipPath>
<clipPath id="clip2_97_2082">
<rect width="22.4293" height="22.4293" fill="white" transform="translate(58.5352 31.3535)"/>
</clipPath>
<clipPath id="clip3_97_2082">
<rect width="24.2237" height="24.2237" fill="white" transform="translate(56.7422 227.835)"/>
</clipPath>
<clipPath id="clip4_97_2082">
<rect width="22.4293" height="22.4293" fill="white" transform="translate(272.965 228.732)"/>
</clipPath>
</defs>
</svg>
