<svg width="192" height="40" viewBox="0 0 192 40" fill="none" xmlns="http://www.w3.org/2000/svg">
<path fill-rule="evenodd" clip-rule="evenodd" d="M24.1891 12.4717C22.9039 10.9854 20.7394 10.5977 18.7778 10.5977H5.72323L4.91155 15.1211H17.2897C17.9661 15.1211 18.7778 15.1857 19.2513 15.7673C19.6571 16.2196 19.7248 16.7366 19.6571 17.3182V17.4474H7.27896C5.58795 17.4474 4.09986 18.0936 2.81469 19.1276C1.3266 20.2261 0.447277 21.777 0.109075 23.5217C-0.161486 25.0726 0.0414306 26.5589 1.05604 27.8513C2.07064 29.0145 3.35581 29.5961 4.97918 29.5961H15.5311C17.7632 29.5961 19.7248 29.0145 21.4158 27.5928C22.9039 26.3004 23.9185 24.6849 24.2567 22.7463L25.2713 17.2536C25.6095 15.5735 25.3389 13.8287 24.1891 12.4717ZM18.6425 22.9402C18.5073 23.5864 18.1691 24.1033 17.6279 24.5557C17.0868 25.0726 16.4104 25.2665 15.6664 25.2665H6.67019C6.19671 25.2665 5.85851 25.0726 5.52031 24.7495C5.1821 24.3618 5.11446 23.9095 5.1821 23.3925C5.24974 22.8756 5.58794 22.4232 5.99379 22.0355C6.39963 21.7124 6.80548 21.5831 7.27896 21.5185H18.8455L18.6425 22.9402Z" fill="#212F41"/>
<path fill-rule="evenodd" clip-rule="evenodd" d="M45.2929 10.5977H37.6495C35.2144 10.5977 33.1176 11.4377 31.2236 12.924C29.3297 14.4749 28.1122 16.4781 27.7063 18.8691L25.0007 33.7964H30.4796L31.2236 29.5961H41.7079C44.2106 29.5961 46.3751 28.8206 48.269 27.2051C50.163 25.6542 51.3128 23.7156 51.7187 21.3893L52.1922 18.8045C52.598 16.672 52.3275 14.6041 50.8394 12.924C49.4866 11.3085 47.525 10.5977 45.2929 10.5977ZM46.6457 19.5153L46.3751 21.0662C46.1722 22.2293 45.6311 23.3279 44.7517 24.1679C43.8724 25.008 42.7225 25.2665 41.4374 25.2665H32.1706L33.2529 19.5153C33.4558 18.2875 33.9969 17.2536 34.9439 16.4135C35.8908 15.6381 36.9054 15.2503 38.1906 15.2503H43.196C44.3459 15.2503 45.4281 15.5088 46.1722 16.4135C46.7809 17.2536 46.7809 18.4167 46.6457 19.5153Z" fill="#212F41"/>
<path fill-rule="evenodd" clip-rule="evenodd" d="M191.667 10.7269H173.81L173.674 11.4378C172.66 16.4781 171.036 24.8142 164.272 25.1373L163.461 29.5961H190.111L190.923 25.1373H189.029L191.667 10.7269ZM183.55 25.1373H173.269L173.404 25.008C175.636 22.2294 176.853 18.6106 177.665 15.1857V15.1211H185.444L183.55 25.1373Z" fill="#212F41"/>
<path fill-rule="evenodd" clip-rule="evenodd" d="M146.753 24.168C146.212 23.4571 146.077 22.6817 146.212 21.8416V21.777H164.34L164.881 18.8045C165.287 16.7366 165.016 14.6041 163.528 12.924C162.108 11.3085 160.146 10.7269 157.982 10.7269H151.218C148.85 10.7269 146.686 11.6316 144.859 13.0533C142.898 14.5395 141.68 16.5428 141.275 18.8691L140.801 21.5185C140.395 23.651 140.666 25.6542 142.086 27.3343C143.507 28.9499 145.468 29.5961 147.7 29.5961H159.334L160.146 25.1373H149.527C148.58 25.1373 147.362 25.008 146.753 24.168ZM147.024 18.029C147.227 17.2536 147.768 16.6074 148.444 16.0904C149.324 15.4442 150.338 15.1211 151.421 15.1211L156.291 15.0565C157.238 15.0565 158.252 15.2504 158.929 15.9612C159.47 16.5428 159.673 17.2536 159.537 18.029V18.0936H147.092L147.024 18.029Z" fill="#212F41"/>
<path fill-rule="evenodd" clip-rule="evenodd" d="M123.147 23.1986L116.112 10.6623H111.31L107.86 29.5961H113.271L115.098 19.7091L120.712 29.5961H123.147L132.549 19.6445L130.655 29.5961H136.134L139.584 10.6623H134.916L123.147 23.1986Z" fill="#212F41"/>
<path fill-rule="evenodd" clip-rule="evenodd" d="M103.261 10.5977L86.8241 22.8109L89.0562 10.5977H83.645L80.1277 29.5961H84.7949L101.096 17.4474L98.8641 29.5961H104.343L107.86 10.5977H103.261Z" fill="#212F41"/>
<path fill-rule="evenodd" clip-rule="evenodd" d="M66.329 15.9612L90.3413 0L69.9139 20.1616L75.5281 30.5654L65.1115 24.0388L41.0991 40L61.5265 19.8385L55.98 9.62843L66.329 15.9612Z" fill="#26C1C9"/>
</svg>
