<svg width="124" height="108" viewBox="0 0 124 108" fill="none" xmlns="http://www.w3.org/2000/svg">
<g clip-path="url(#clip0_2407_703)">
<path d="M35.7765 83.653C34.8524 83.6475 33.867 83.6445 32.8122 83.6445C29.8686 83.6445 27.1737 84.9493 26.0862 88.171C22.3859 88.171 19.3862 91.1706 19.3862 94.8709C19.3862 98.571 22.3859 101.571 26.0862 101.571H35.7764L35.7765 83.653ZM98.2238 83.653C99.148 83.6475 100.133 83.6445 101.188 83.6445C104.132 83.6445 106.827 84.9493 107.914 88.171C111.614 88.171 114.614 91.1706 114.614 94.8709C114.614 98.571 111.614 101.571 107.914 101.571H98.224V83.653H98.2238Z" fill="#FECBAA"/>
<path d="M101.814 101.248H57.2178V39.6555C57.2178 38.2669 58.3435 37.1411 59.7321 37.1411H99.2995C100.688 37.1411 101.814 38.2669 101.814 39.6555L101.814 101.248Z" fill="url(#paint0_linear_2407_703)"/>
<path d="M93.6224 55.4876H78.1069V45.9263H93.6224C93.9643 45.9263 94.2923 46.0621 94.5341 46.3039C94.776 46.5458 94.9118 46.8737 94.9118 47.2157V54.1984C94.9117 54.5403 94.7758 54.8682 94.534 55.11C94.2922 55.3518 93.9643 55.4876 93.6224 55.4876ZM93.6224 73.2221H78.1069V63.6608H93.6224C93.9643 63.6608 94.2923 63.7966 94.5341 64.0384C94.776 64.2803 94.9118 64.6082 94.9118 64.9502V71.9329C94.9117 72.2748 94.7758 72.6027 94.534 72.8445C94.2922 73.0863 93.9643 73.2221 93.6224 73.2221ZM93.6224 90.9567H78.1069V81.3953H93.6224C93.9643 81.3953 94.2923 81.5311 94.5341 81.7729C94.776 82.0148 94.9118 82.3427 94.9118 82.6847V89.6674C94.9117 90.0093 94.7758 90.3372 94.534 90.579C94.2922 90.8208 93.9643 90.9566 93.6224 90.9567Z" fill="#FECBAA"/>
<path d="M79.6986 101.248H34.7368V14.57C34.7368 13.1814 35.8626 12.0557 37.2512 12.0557H77.1842C78.5728 12.0557 79.6986 13.1814 79.6986 14.57V101.248Z" fill="url(#paint1_linear_2407_703)"/>
<path d="M112.997 99.1704H21.0033C19.8968 99.1704 19 100.067 19 101.174V105.941C19 107.048 19.8968 107.944 21.0033 107.944H112.997C114.103 107.944 115 107.048 115 105.941V101.174C115 100.067 114.103 99.1704 112.997 99.1704Z" fill="#013378"/>
<path d="M62.8214 80.3818H51.452C51.2289 80.3818 51.015 80.4704 50.8573 80.6281C50.6995 80.7858 50.6109 80.9997 50.6108 81.2228V99.1705H63.6623V81.2228C63.6623 80.9997 63.5737 80.7858 63.416 80.6281C63.2583 80.4704 63.0444 80.3818 62.8214 80.3818Z" fill="#013378"/>
<path d="M59.5587 25.9239H54.7151C54.6046 25.9239 54.4952 25.9021 54.3932 25.8599C54.2911 25.8176 54.1984 25.7556 54.1203 25.6775C54.0422 25.5994 53.9802 25.5067 53.938 25.4046C53.8957 25.3026 53.8739 25.1932 53.8739 25.0828V20.2391C53.8739 20.016 53.9625 19.802 54.1203 19.6443C54.278 19.4866 54.492 19.3979 54.7151 19.3979H59.5587C59.7818 19.3979 59.9958 19.4866 60.1535 19.6443C60.3112 19.802 60.3999 20.016 60.3999 20.2391V25.0828C60.3998 25.3058 60.3112 25.5197 60.1534 25.6775C59.9957 25.8352 59.7818 25.9238 59.5587 25.9239ZM71.971 25.9239H67.1274C67.0169 25.9239 66.9075 25.9021 66.8055 25.8599C66.7034 25.8176 66.6107 25.7556 66.5326 25.6775C66.4545 25.5994 66.3925 25.5067 66.3503 25.4046C66.308 25.3026 66.2862 25.1932 66.2862 25.0828V20.2391C66.2862 20.016 66.3749 19.802 66.5326 19.6443C66.6903 19.4866 66.9043 19.3979 67.1274 19.3979H71.971C72.1941 19.3979 72.4081 19.4866 72.5658 19.6443C72.7236 19.802 72.8122 20.016 72.8122 20.2391V25.0828C72.8122 25.1932 72.7905 25.3026 72.7482 25.4047C72.7059 25.5067 72.644 25.5995 72.5659 25.6776C72.4878 25.7557 72.395 25.8176 72.293 25.8599C72.1909 25.9022 72.0815 25.9239 71.971 25.9239ZM59.5587 41.1697H54.7151C54.492 41.1697 54.278 41.0811 54.1203 40.9233C53.9625 40.7656 53.8739 40.5517 53.8739 40.3286V35.4849C53.8739 35.3744 53.8957 35.2651 53.938 35.163C53.9802 35.061 54.0422 34.9682 54.1203 34.8901C54.1984 34.812 54.2911 34.7501 54.3932 34.7078C54.4952 34.6655 54.6046 34.6438 54.7151 34.6438H59.5587C59.6692 34.6438 59.7786 34.6655 59.8806 34.7078C59.9827 34.7501 60.0754 34.812 60.1535 34.8901C60.2316 34.9682 60.2936 35.061 60.3358 35.163C60.3781 35.2651 60.3999 35.3744 60.3999 35.4849V40.3286C60.3998 40.5516 60.3112 40.7656 60.1534 40.9233C59.9957 41.081 59.7818 41.1696 59.5587 41.1697ZM71.971 41.1697H67.1274C66.9043 41.1697 66.6903 41.0811 66.5326 40.9233C66.3749 40.7656 66.2862 40.5517 66.2862 40.3286V35.4849C66.2862 35.3744 66.308 35.2651 66.3503 35.163C66.3925 35.061 66.4545 34.9682 66.5326 34.8901C66.6107 34.812 66.7034 34.7501 66.8055 34.7078C66.9075 34.6655 67.0169 34.6438 67.1274 34.6438H71.971C72.0815 34.6438 72.1909 34.6655 72.2929 34.7078C72.395 34.7501 72.4877 34.812 72.5658 34.8901C72.6439 34.9682 72.7059 35.061 72.7481 35.163C72.7904 35.2651 72.8122 35.3744 72.8122 35.4849V40.3286C72.8122 40.439 72.7905 40.5484 72.7482 40.6505C72.7059 40.7525 72.644 40.8453 72.5659 40.9234C72.4878 41.0015 72.395 41.0635 72.293 41.1057C72.1909 41.148 72.0815 41.1697 71.971 41.1697ZM59.5587 56.4157H54.7151C54.492 56.4157 54.278 56.3271 54.1203 56.1693C53.9625 56.0116 53.8739 55.7977 53.8739 55.5746V50.7309C53.8739 50.5078 53.9625 50.2939 54.1203 50.1361C54.278 49.9784 54.492 49.8898 54.7151 49.8898H59.5587C59.7818 49.8898 59.9958 49.9784 60.1535 50.1361C60.3112 50.2939 60.3999 50.5078 60.3999 50.7309V55.5746C60.3998 55.7976 60.3112 56.0116 60.1534 56.1693C59.9957 56.327 59.7818 56.4156 59.5587 56.4157ZM71.971 56.4157H67.1274C66.9043 56.4157 66.6903 56.3271 66.5326 56.1693C66.3749 56.0116 66.2862 55.7977 66.2862 55.5746V50.7309C66.2862 50.5078 66.3749 50.2939 66.5326 50.1361C66.6903 49.9784 66.9043 49.8898 67.1274 49.8898H71.971C72.1941 49.8898 72.4081 49.9784 72.5658 50.1361C72.7236 50.2939 72.8122 50.5078 72.8122 50.7309V55.5746C72.8122 55.685 72.7905 55.7944 72.7482 55.8965C72.7059 55.9985 72.644 56.0913 72.5659 56.1694C72.4878 56.2475 72.395 56.3095 72.293 56.3517C72.1909 56.394 72.0815 56.4157 71.971 56.4157ZM59.5587 71.6615H54.7151C54.492 71.6615 54.278 71.5729 54.1203 71.4151C53.9625 71.2574 53.8739 71.0435 53.8739 70.8204V65.9767C53.8739 65.7536 53.9625 65.5397 54.1203 65.3819C54.278 65.2242 54.492 65.1356 54.7151 65.1356H59.5587C59.7818 65.1356 59.9958 65.2242 60.1535 65.3819C60.3112 65.5397 60.3999 65.7536 60.3999 65.9767V70.8204C60.3998 71.0434 60.3112 71.2574 60.1534 71.4151C59.9957 71.5728 59.7818 71.6615 59.5587 71.6615ZM71.971 71.6615H67.1274C66.9043 71.6615 66.6903 71.5729 66.5326 71.4151C66.3749 71.2574 66.2862 71.0435 66.2862 70.8204V65.9767C66.2862 65.7536 66.3749 65.5397 66.5326 65.3819C66.6903 65.2242 66.9043 65.1356 67.1274 65.1356H71.971C72.1941 65.1356 72.4081 65.2242 72.5658 65.3819C72.7236 65.5397 72.8122 65.7536 72.8122 65.9767V70.8204C72.8122 70.9309 72.7905 71.0402 72.7482 71.1423C72.7059 71.2444 72.644 71.3371 72.5659 71.4152C72.4878 71.4933 72.395 71.5553 72.293 71.5975C72.1909 71.6398 72.0815 71.6615 71.971 71.6615ZM47.1462 25.9239H42.3026C42.1921 25.9239 42.0827 25.9021 41.9807 25.8599C41.8786 25.8176 41.7859 25.7556 41.7078 25.6775C41.6297 25.5994 41.5677 25.5067 41.5255 25.4046C41.4832 25.3026 41.4614 25.1932 41.4614 25.0828V20.2391C41.4614 20.016 41.55 19.802 41.7078 19.6443C41.8655 19.4866 42.0795 19.3979 42.3026 19.3979H47.1462C47.3693 19.3979 47.5833 19.4866 47.741 19.6443C47.8987 19.802 47.9874 20.016 47.9874 20.2391V25.0828C47.9874 25.1932 47.9656 25.3026 47.9233 25.4046C47.8811 25.5067 47.8191 25.5994 47.741 25.6775C47.6629 25.7556 47.5702 25.8176 47.4681 25.8599C47.3661 25.9021 47.2567 25.9239 47.1462 25.9239ZM47.1462 41.1697H42.3026C42.0795 41.1697 41.8655 41.0811 41.7078 40.9233C41.55 40.7656 41.4614 40.5517 41.4614 40.3286V35.4849C41.4614 35.3744 41.4832 35.2651 41.5255 35.163C41.5677 35.061 41.6297 34.9682 41.7078 34.8901C41.7859 34.812 41.8786 34.7501 41.9807 34.7078C42.0827 34.6655 42.1921 34.6438 42.3026 34.6438H47.1462C47.2567 34.6438 47.3661 34.6655 47.4681 34.7078C47.5702 34.7501 47.6629 34.812 47.741 34.8901C47.8191 34.9682 47.8811 35.061 47.9233 35.163C47.9656 35.2651 47.9874 35.3744 47.9874 35.4849V40.3286C47.9874 40.5517 47.8987 40.7656 47.741 40.9233C47.5833 41.0811 47.3693 41.1697 47.1462 41.1697ZM47.1462 56.4157H42.3026C42.0795 56.4157 41.8655 56.3271 41.7078 56.1693C41.55 56.0116 41.4614 55.7977 41.4614 55.5746V50.7309C41.4614 50.5078 41.55 50.2939 41.7078 50.1361C41.8655 49.9784 42.0795 49.8898 42.3026 49.8898H47.1462C47.3693 49.8898 47.5833 49.9784 47.741 50.1361C47.8987 50.2939 47.9874 50.5078 47.9874 50.7309V55.5746C47.9874 55.7977 47.8987 56.0116 47.741 56.1693C47.5833 56.3271 47.3693 56.4157 47.1462 56.4157ZM47.1462 71.6615H42.3026C42.0795 71.6615 41.8655 71.5729 41.7078 71.4151C41.55 71.2574 41.4614 71.0435 41.4614 70.8204V65.9767C41.4614 65.7536 41.55 65.5397 41.7078 65.3819C41.8655 65.2242 42.0795 65.1356 42.3026 65.1356H47.1462C47.3693 65.1356 47.5833 65.2242 47.741 65.3819C47.8987 65.5397 47.9874 65.7536 47.9874 65.9767V70.8204C47.9874 71.0435 47.8987 71.2574 47.741 71.4151C47.5833 71.5729 47.3693 71.6615 47.1462 71.6615Z" fill="white"/>
</g>
<path d="M43.6554 24.5522C42.6672 27.2304 41.1727 29.5592 39.2128 31.4731C36.982 33.6515 34.0608 35.3825 30.5304 36.6172C30.4145 36.6576 30.2936 36.6907 30.1722 36.7151C30.0117 36.7468 29.8485 36.7639 29.6866 36.7662H29.6549C29.4824 36.7662 29.3091 36.7488 29.1371 36.7151C29.0156 36.6907 28.8964 36.6576 28.7811 36.6181C25.2465 35.3853 22.3217 33.6551 20.0886 31.4767C18.1279 29.5628 16.6336 27.2355 15.6468 24.5572C13.8524 19.6877 13.9545 14.3233 14.0367 10.0126L14.0381 9.94637C14.0547 9.59041 14.0653 9.21649 14.0712 8.80359C14.1013 6.77639 15.713 5.09926 17.7405 4.98622C21.9677 4.75031 25.2378 3.37164 28.0319 0.648225L28.0563 0.625784C28.5203 0.20026 29.1048 -0.00843478 29.6866 0.000260875C30.2476 0.00755399 30.8064 0.215968 31.2538 0.625784L31.2776 0.648225C34.0723 3.37164 37.3424 4.75031 41.5696 4.98622C43.5971 5.09926 45.2089 6.77639 45.2389 8.80359C45.2448 9.2193 45.2554 9.59265 45.272 9.94637L45.2728 9.97442C45.3547 14.2933 45.4563 19.6683 43.6554 24.5522Z" fill="url(#paint2_linear_2407_703)"/>
<path d="M43.6558 24.5519C42.6676 27.2302 41.1731 29.5589 39.2132 31.4728C36.9824 33.6512 34.0612 35.3822 30.5308 36.617C30.4149 36.6574 30.294 36.6905 30.1726 36.7149C30.0121 36.7466 29.8489 36.7637 29.687 36.7659V0C30.248 0.00729312 30.8068 0.215707 31.2542 0.625524L31.278 0.647964C34.0727 3.37138 37.3428 4.75005 41.57 4.98596C43.5975 5.099 45.2093 6.77613 45.2393 8.80333C45.2452 9.21904 45.2558 9.59239 45.2724 9.94611L45.2732 9.97416C45.3551 14.2931 45.4567 19.6681 43.6558 24.5519Z" fill="url(#paint3_linear_2407_703)"/>
<path d="M38.8174 18.3827C38.8174 23.4242 34.724 27.5279 29.6867 27.5459H29.6544C24.6023 27.5459 20.4912 23.4351 20.4912 18.3827C20.4912 13.3305 24.6023 9.21973 29.6544 9.21973H29.6867C34.724 9.23768 38.8174 13.3415 38.8174 18.3827Z" fill="url(#paint4_linear_2407_703)"/>
<path d="M33.8131 17.0633L29.6863 21.1906L28.7946 22.0823C28.584 22.293 28.3077 22.3982 28.0316 22.3982C27.7553 22.3982 27.4793 22.293 27.2684 22.0823L25.3511 20.1642C24.9298 19.7429 24.9298 19.0604 25.3511 18.6388C25.7719 18.2175 26.4552 18.2175 26.8765 18.6388L28.0316 19.794L32.2877 15.5379C32.709 15.1163 33.3923 15.1163 33.8131 15.5379C34.2344 15.9592 34.2344 16.6425 33.8131 17.0633Z" fill="white"/>
<defs>
<linearGradient id="paint0_linear_2407_703" x1="79.5159" y1="37.1411" x2="79.5159" y2="101.248" gradientUnits="userSpaceOnUse">
<stop stop-color="#023D8E"/>
<stop offset="1" stop-color="#013378"/>
</linearGradient>
<linearGradient id="paint1_linear_2407_703" x1="57.2177" y1="12.0557" x2="57.2177" y2="101.248" gradientUnits="userSpaceOnUse">
<stop stop-color="#FFC178"/>
<stop offset="1" stop-color="#F39629"/>
</linearGradient>
<linearGradient id="paint2_linear_2407_703" x1="29.6546" y1="0" x2="29.6546" y2="36.7662" gradientUnits="userSpaceOnUse">
<stop stop-color="#114C9E"/>
<stop offset="1" stop-color="#013378"/>
</linearGradient>
<linearGradient id="paint3_linear_2407_703" x1="37.4983" y1="0" x2="37.4983" y2="36.7659" gradientUnits="userSpaceOnUse">
<stop stop-color="#114C9E"/>
<stop offset="1" stop-color="#013378"/>
</linearGradient>
<linearGradient id="paint4_linear_2407_703" x1="29.6543" y1="9.21973" x2="29.6543" y2="27.5459" gradientUnits="userSpaceOnUse">
<stop stop-color="#FFBB6B"/>
<stop offset="1" stop-color="#F39629"/>
</linearGradient>
<clipPath id="clip0_2407_703">
<rect width="96" height="96" fill="white" transform="translate(19 12)"/>
</clipPath>
</defs>
</svg>
