<svg width="315" height="313" viewBox="0 0 315 313" fill="none" xmlns="http://www.w3.org/2000/svg">
<path d="M65.988 276.81C66.3616 277.481 66.756 277.564 67.3373 277.239C68.3475 276.678 69.3854 276.152 70.3472 275.516C72.2985 274.229 74.3328 273.433 76.7061 274.07C78.4705 274.54 80.235 275.004 81.9994 275.467C83.6255 275.903 85.2515 276.339 86.8776 276.775C88.9741 277.343 91.0776 277.91 93.1742 278.47C95.0701 278.976 96.9729 279.474 98.8689 279.986C100.869 280.525 102.861 281.086 104.854 281.626C106.75 282.138 108.66 282.622 110.556 283.134C112.486 283.66 114.403 284.22 116.333 284.739C118.298 285.265 120.298 285.673 122.243 286.282C124.782 287.078 127.363 287.59 130.013 287.562C132.372 287.542 134.67 287.147 136.905 286.255C139.61 285.175 141.963 283.522 144.419 282.041C150.128 278.595 155.753 275.025 161.427 271.523C169.523 266.534 177.639 261.58 185.735 256.598C192.156 252.647 198.577 248.682 204.998 244.732C206.41 243.86 207.724 242.988 208.299 241.237C209.634 237.182 207.704 232.996 202.729 232.969C200.342 232.955 198.065 233.605 195.858 234.401C191.941 235.806 188.419 237.999 184.835 240.068C179.549 243.119 174.304 246.233 169.038 249.312C163.71 252.426 158.355 255.491 153.041 258.639C148.287 261.463 143.194 263.054 137.645 263.144C136.974 263.102 136.31 263.089 135.638 263.026C131.957 262.687 128.318 262.078 124.706 261.303C122.817 260.895 120.949 260.411 119.087 259.899C116.513 259.193 113.967 258.397 111.393 257.698C108.307 256.868 105.214 256.079 102.183 255.062C100.336 254.439 98.7581 251.768 99.111 249.886C99.6923 246.821 101.865 244.835 105.207 245.32C107.269 245.617 109.199 246.406 111.22 246.863C113.06 247.285 114.846 247.942 116.665 248.461C118.388 248.952 120.111 249.416 121.848 249.852C124.159 250.433 126.484 250.987 128.802 251.533C130.587 251.955 132.324 251.803 133.86 250.765C135.749 249.499 136.13 247.548 135.638 245.527C135.175 243.611 133.819 242.296 131.881 241.763C130.56 241.403 129.19 241.237 127.861 240.898C125.003 240.172 122.153 239.424 119.323 238.615C116.963 237.937 114.624 237.189 112.292 236.421C109.462 235.487 106.653 234.512 103.837 233.536C101.72 232.803 99.6231 232.007 97.4919 231.301C95.8312 230.747 94.2259 230.021 92.4823 229.716C88.1715 228.948 84.1859 230.049 80.3388 231.861C76.8168 233.522 73.5093 235.591 70.1327 237.521C63.9537 241.043 57.8162 244.648 51.6579 248.212C50.3917 248.945 50.3433 249.167 51.0698 250.426C53.111 253.983 55.1453 257.539 57.1589 261.11C60.1411 266.348 63.0818 271.572 65.988 276.81Z" fill="#F6DCCD"/>
<path d="M106.909 234.608L58.7224 263.85L50.6267 262.826L45.5341 248.288L83.5699 225.606L107.974 230.083L106.909 234.608Z" fill="#F1CBBC"/>
<path d="M18.9222 93.8893L6.52271 118.342L24.6376 117.498L32.0344 128.299L45.9216 101.736L60.2032 104.061L71.7309 121.276L80.9406 109.735L96.3016 111.098L81.6948 88.6721L63.5799 101.736L53.014 98.6083L38.3726 102.283L18.9222 93.8893Z" fill="#367CC3"/>
<path d="M87.6661 37.7108L81.3557 22.4397L66.7489 20.2809L52.9724 9.82568L36.871 18.9523L22.2642 20.2809L5.00037 51.1551L12.6324 84.1882L35.3903 101.784L69.6688 102.282L90.6415 80.7078L96.2877 50.1656L87.6661 37.7108ZM51.9068 87.1912C36.5458 87.1912 24.0978 74.7433 24.0978 59.3822C24.0978 44.0212 36.5458 31.5733 51.9068 31.5733C67.2678 31.5733 79.7158 44.0212 79.7158 59.3822C79.7158 74.7363 67.2678 87.1912 51.9068 87.1912Z" fill="#FEE076"/>
<path d="M76.0694 210.792H132.725L147.996 196.435L164.457 210.792H218.996L233.049 200.365L233.803 182.686L219.757 173.469L219.605 163.339L209.786 154.891L202.217 138.118L186.06 132.057L182.434 121.401L167.177 116.059L151.615 127.691L128.345 116.059L115.205 118.695L108.729 130.604L94.0528 139.931L87.0989 157.755L74.1043 170.902L60.2032 187.073L64.7424 204.295L76.0694 210.792Z" fill="#367CC3"/>
<path d="M114.022 58.9461L131.369 75.0544L128.269 97.7638L147.996 85.1221L166.063 96.7397L164.824 76.1822L180.469 59.5688L158.632 56.1576L147.996 35.0327L136.476 57.2854L114.022 58.9461Z" fill="#FEE076"/>
<path d="M222.29 123.961H271.009L281.208 93.8475L288.716 60.8628L264.525 31.8222L229.513 30.3899L207.385 59.7903L208.728 84.3956L220.816 104.144L222.29 123.961Z" fill="#FEE076"/>
<path d="M191.623 215.947C183.832 215.947 176.048 215.94 168.257 215.947C164.991 215.947 161.78 215.573 158.729 214.355C155.027 212.875 151.782 210.695 149.138 207.678C148.024 206.412 147.976 206.405 146.855 207.657C141.873 213.221 135.625 215.933 128.18 215.94C112.355 215.947 96.5304 215.961 80.7057 215.933C72.7554 215.919 66.2442 212.757 61.283 206.585C57.5051 201.887 55.6576 196.407 55.9897 190.407C56.4602 181.897 60.3074 175.192 67.552 170.542C68.0502 170.217 68.5415 169.864 69.0812 169.622C69.8008 169.296 70.1468 168.722 70.3197 168.023C72.0012 161.201 76.0144 156.15 81.9858 152.572C82.1934 152.448 82.4148 152.33 82.6432 152.24C83.5704 151.86 84.0132 151.285 84.0478 150.178C84.2831 142.069 87.5213 135.433 93.9979 130.479C96.7933 128.341 99.9416 126.908 103.415 126.237C104.038 126.12 104.418 125.794 104.668 125.241C107.255 119.484 111.421 115.318 117.205 112.765C122.526 110.419 127.979 110.06 133.597 111.478C139.071 112.862 143.52 115.817 147.153 120.079C147.962 121.027 148.087 121.02 148.875 120.065C152.709 115.415 157.608 112.433 163.448 111.208C174.055 108.973 184.476 113.346 190.191 122.902C190.336 123.144 190.475 123.4 190.551 123.663C191.084 125.656 192.613 126.258 194.426 126.749C200.667 128.451 205.324 132.312 208.597 137.806C210.845 141.584 212.042 145.729 211.946 150.164C211.925 151.237 212.375 151.735 213.226 152.171C218.436 154.835 222.103 158.966 224.497 164.245C225.099 165.581 225.466 167.027 225.881 168.438C226.02 168.909 226.213 169.213 226.67 169.456C231.209 171.843 234.779 175.275 237.167 179.8C240.017 185.19 240.723 190.913 239.374 196.891C237.976 203.077 234.586 207.927 229.465 211.567C225.12 214.653 220.207 215.995 214.872 215.961C207.13 215.905 199.373 215.947 191.623 215.947ZM82.4494 166.57C84.117 166.556 85.6877 166.598 87.2445 167.165C88.234 167.532 89.2927 167.795 90.2545 168.231C91.9566 169.006 93.6242 169.843 95.1811 170.936C96.4473 171.822 97.6928 172.742 98.364 174.064C99.0282 175.372 99.4918 176.762 98.7584 178.437C98.0526 180.049 96.2605 182.077 94.4684 182.312C92.4825 182.575 90.7665 181.959 89.3273 180.644C86.9055 178.437 83.854 177.883 80.8164 177.302C79.3565 177.025 78.0487 177.897 76.6233 178.077C76.0006 178.153 75.2048 178.389 74.5821 178.769C73.4473 179.468 72.3679 180.229 71.3507 181.115C69.1296 183.045 67.5174 185.474 67.0676 188.276C66.6802 190.726 66.5349 193.314 67.4482 195.86C68.1402 197.804 69.2888 199.368 70.4997 200.918C71.5445 202.26 73.046 203.105 74.5544 203.824C76.2773 204.648 78.0418 205.298 80.0415 205.298C96.4266 205.263 112.819 205.256 129.204 205.312C130.594 205.319 131.778 204.731 133.058 204.461C133.625 204.343 134.296 204.163 134.815 203.831C137.071 202.392 139.14 200.759 140.461 198.33C141.645 196.157 142.413 193.867 142.496 191.411C142.558 189.598 142.032 187.861 141.333 186.194C140.212 183.523 138.572 181.288 136.068 179.717C135.48 179.35 134.801 179.143 134.269 178.651C132.532 177.053 131.75 175.247 132.317 172.798C132.829 170.577 134.912 168.605 137.202 168.48C138.898 168.383 140.261 169.103 141.603 169.94C141.825 170.078 141.963 170.445 142.302 170.251C142.6 170.085 142.496 169.753 142.517 169.483C142.53 169.2 142.523 168.923 142.523 168.639C142.523 159.298 142.558 149.964 142.496 140.623C142.482 138.298 142.8 135.973 142.039 133.634C141.624 132.361 141.333 131.046 140.759 129.808C138.614 125.179 134.718 122.667 130.02 121.574C127.951 121.096 125.633 121.151 123.384 121.899C121.156 122.639 119.274 123.76 117.558 125.255C116.209 126.438 116.292 126.735 117.994 127.31C118.16 127.365 118.313 127.455 118.472 127.538C121.62 129.157 124.388 131.247 126.65 134.008C127.847 135.475 128.449 136.907 127.972 138.893C127.536 140.706 126.74 141.986 125.066 142.802C123.184 143.722 121.412 143.577 119.676 142.498C118.057 141.494 117.039 139.834 115.42 138.775C113.594 137.571 111.746 136.692 109.56 136.63C108.535 136.596 107.518 136.623 106.494 136.637C104.19 136.672 102.204 137.703 100.467 139.01C97.9142 140.941 96.1567 143.425 95.2987 146.663C94.7175 148.864 94.7452 151.015 95.0219 153.112C95.1949 154.42 95.4717 155.527 94.9181 156.814C94.4269 157.956 93.901 158.931 92.7731 159.54C91.6937 160.121 90.5243 160.433 89.4034 160.876C86.5318 162.003 84.1793 163.837 82.4494 166.57ZM179.674 126.569C178.656 125.144 177.321 124.217 175.937 123.303C174.477 122.342 172.837 121.691 171.204 121.539C169.087 121.345 166.942 121.241 164.748 121.919C162.486 122.618 160.569 123.753 158.749 125.13C157.103 126.376 156.065 128.154 155.179 129.96C154.466 131.413 153.823 132.921 153.823 134.617C153.823 146.179 153.809 157.734 153.788 169.296C153.788 169.905 153.837 170.286 154.549 169.829C154.722 169.719 154.971 169.725 155.137 169.608C156.95 168.328 158.853 168.037 160.825 169.165C162.548 170.148 163.731 171.601 163.96 173.607C164.25 176.14 162.839 177.904 160.867 179.157C159.047 180.312 157.532 181.751 156.21 183.391C155.048 184.837 154.12 186.595 153.954 188.38C153.726 190.843 153.428 193.362 154.369 195.867C155.082 197.756 156.162 199.347 157.359 200.883C158.473 202.309 160.078 203.181 161.683 203.949C163.081 204.613 164.534 205.277 166.132 205.277C183.016 205.291 199.899 205.284 216.782 205.284C217.1 205.284 217.44 205.333 217.73 205.222C219.709 204.495 221.861 204.108 223.515 202.696C224.836 201.568 226.151 200.434 227.071 198.87C227.964 197.341 228.448 195.715 229.043 194.082C229.964 191.542 229.382 189.148 228.6 186.92C227.556 183.945 225.708 181.405 222.864 179.641C220.692 178.292 218.318 177.828 215.931 177.33C214.381 177.012 212.887 177.752 211.427 178.098C209.448 178.568 207.635 179.676 206.092 181.094C205.476 181.661 204.708 181.952 203.974 182.222C201.975 182.962 198.944 181.613 197.816 179.786C197.027 178.52 197.02 177.191 197.103 175.828C197.193 174.424 197.865 173.261 198.986 172.445C200.079 171.649 201.096 170.75 202.245 170.002C204.085 168.798 206.078 167.92 208.133 167.338C209.634 166.916 211.191 166.287 212.852 166.556C213.385 166.639 213.475 166.363 213.191 165.941C213.018 165.678 212.859 165.401 212.651 165.173C211.648 164.052 210.52 163.097 209.275 162.218C207.829 161.208 206.216 160.737 204.618 160.197C203.359 159.775 201.048 157.886 200.978 156.572C200.875 154.634 200.535 152.642 201.393 150.753C201.56 150.393 201.601 149.957 201.366 149.632C200.951 149.071 200.875 148.448 200.944 147.826C201.075 146.594 200.446 145.577 200.023 144.532C199.221 142.539 197.775 140.975 196.183 139.571C194.052 137.696 191.63 136.499 188.696 136.623C187.326 136.679 185.839 136.388 184.6 136.81C182.607 137.495 180.642 138.415 179.155 140.048C178.56 140.699 177.93 141.315 177.286 141.916C175.612 143.494 172.484 143.916 170.713 142.74C167.558 140.65 166.831 136.561 169.592 133.62C172.47 130.555 175.813 128.237 179.674 126.569Z" fill="black"/>
<path d="M248.625 168.812C246.383 168.812 244.757 168.819 243.138 168.812C238.537 168.784 234.164 165.249 232.738 161.159C232.122 159.402 232.088 157.644 232.074 155.852C232.067 155.008 231.825 154.454 231.043 153.963C227.147 151.548 225.168 148.033 225.238 143.418C225.244 142.996 225.224 142.574 225.238 142.152C225.258 141.501 225.03 141.1 224.414 140.726C220.415 138.27 218.567 134.596 218.553 129.96C218.54 126.998 218.553 124.044 218.304 121.089C218 117.47 217.377 113.914 216.595 110.371C215.204 104.109 212.305 98.5252 209.088 93.0658C207.303 90.042 205.614 86.956 204.438 83.6416C202.48 78.113 202.037 72.3838 202.272 66.5646C202.466 61.9078 203.442 57.4172 205.095 53.0926C207.932 45.6681 212.409 39.3645 218.498 34.2096C222.643 30.7014 227.272 28.0029 232.351 26.1416C238.924 23.7336 245.767 22.8134 252.714 23.616C266.719 25.2351 277.825 31.9123 285.948 43.44C288.709 47.3633 290.646 51.7018 292.058 56.3101C293.829 62.067 294.203 67.9415 293.732 73.8645C293.331 78.9433 291.947 83.7938 289.567 88.3537C287.782 91.7788 285.713 95.0378 283.942 98.4698C282.523 101.21 281.354 104.061 280.406 107.015C279.306 110.454 278.621 113.969 278.164 117.519C277.79 120.446 277.43 123.393 277.472 126.362C277.493 127.946 277.479 129.531 277.437 131.122C277.32 135.302 275.278 138.395 271.86 140.609C271.099 141.1 270.898 141.612 270.933 142.394C271.016 144.491 270.732 146.518 269.909 148.476C268.885 150.912 267.197 152.738 264.955 154.046C264.256 154.454 264.041 154.911 264.048 155.645C264.062 157.471 264.09 159.291 263.412 161.062C262.104 164.474 259.779 166.819 256.389 168.169C253.642 169.241 250.798 168.632 248.625 168.812ZM260.298 101.397C260.298 106.752 260.319 112.108 260.284 117.47C260.277 118.391 260.554 118.73 261.488 118.695C263.211 118.626 264.941 118.64 266.671 118.626C267.21 118.619 267.591 118.55 267.667 117.858C268.145 113.637 268.913 109.479 270.075 105.375C270.85 102.635 271.805 99.9782 272.933 97.3835C274.587 93.564 276.711 89.9728 278.856 86.4024C281.368 82.2093 283.014 77.7255 283.429 72.875C283.852 67.9415 283.326 63.0772 281.762 58.3236C280.489 54.4487 278.634 50.9199 276.164 47.7024C269.923 39.5928 261.613 35.1022 251.524 33.8844C246.964 33.3377 242.446 33.919 238.059 35.1783C235.201 35.9948 232.489 37.2264 229.908 38.7694C222.096 43.4469 216.9 50.2072 214.084 58.7872C212.713 62.9665 212.464 67.3257 212.61 71.7195C212.762 76.2379 213.952 80.4587 216.069 84.3958C218.657 89.2048 221.646 93.7923 223.722 98.8781C224.878 101.708 225.805 104.607 226.587 107.548C227.486 110.911 227.895 114.377 228.441 117.809C228.552 118.488 228.863 118.688 229.486 118.681C231.174 118.661 232.87 118.654 234.558 118.688C235.506 118.709 235.838 118.349 235.838 117.374C235.81 106.801 235.81 96.2279 235.838 85.6551C235.838 84.638 235.437 84.3474 234.53 84.3889C233.824 84.4235 233.119 84.3889 232.413 84.3958C229.735 84.4166 227.196 83.8907 224.795 82.6521C220.581 80.4725 217.972 76.9921 217.08 72.4322C216.402 69.0002 216.865 65.6028 218.685 62.4475C222.532 55.7634 230.005 53.314 236.855 55.9087C242.571 58.0745 246.12 63.354 246.266 69.5399C246.293 70.6332 246.272 71.7264 246.279 72.8197C246.279 73.1726 246.252 73.6431 246.646 73.7331C247.608 73.9545 248.66 74.0721 249.552 73.6915C250.21 73.4078 249.898 72.536 249.877 71.9409C249.753 68.5574 250.016 65.2637 251.822 62.2746C254.057 58.5727 257.26 56.0679 261.481 55.2376C264.609 54.6217 267.764 54.8224 270.753 56.2893C275.535 58.635 278.344 62.4614 279.167 67.6302C279.755 71.2974 278.849 74.764 276.725 77.8362C274.476 81.0953 271.417 83.1296 267.508 83.9945C265.508 84.4373 263.522 84.4096 261.523 84.382C260.54 84.3681 260.263 84.6933 260.27 85.6551C260.319 90.9 260.298 96.1449 260.298 101.397ZM249.898 101.618C249.898 96.5808 249.912 91.5435 249.891 86.5062C249.884 84.1467 250.23 84.4096 247.732 84.3958C246.279 84.3889 246.272 84.3958 246.272 85.8489C246.272 96.0273 246.266 106.206 246.279 116.384C246.279 118.944 245.933 118.619 248.604 118.695C249.628 118.723 249.926 118.37 249.919 117.367C249.877 112.115 249.898 106.87 249.898 101.618ZM248.12 129.233C248.12 129.206 248.12 129.178 248.12 129.15C244.487 129.15 240.861 129.15 237.229 129.15C234.835 129.15 232.434 129.136 230.04 129.157C229.036 129.164 228.732 129.559 228.863 130.555C229.036 131.807 229.368 132.05 231.057 132.05C241.948 132.056 252.839 132.05 263.73 132.05C264.436 132.05 265.142 132.022 265.84 131.953C266.83 131.856 267.183 131.302 267.176 130.167C267.169 129.123 266.449 129.226 265.778 129.226C259.89 129.233 254.008 129.233 248.12 129.233ZM247.899 145.286C250.784 145.286 253.676 145.3 256.562 145.279C257.475 145.272 258.395 145.238 259.302 145.134C260.257 145.016 260.506 144.241 260.547 143.446C260.596 142.56 259.855 142.622 259.274 142.574C258.437 142.505 257.593 142.401 256.748 142.401C250.127 142.387 243.512 142.387 236.89 142.401C236.44 142.401 235.817 142.152 235.603 142.802C235.402 143.404 235.388 144.048 235.769 144.629C236.17 145.245 236.793 145.293 237.443 145.293C240.931 145.279 244.418 145.279 247.899 145.286ZM235.776 71.2144C235.776 70.5847 235.81 69.9482 235.762 69.3185C235.734 68.9794 235.575 68.6473 235.464 68.3083C234.945 66.6891 233.603 65.5405 232.074 65.4298C229.88 65.2707 228.552 66.0595 227.556 68.1214C226.96 69.3531 227.362 71.2282 228.414 72.4184C229.714 73.8991 231.465 73.8022 233.181 73.8368C236.246 73.8922 235.803 73.7469 235.776 71.2144ZM260.312 71.1521C260.312 71.7818 260.312 72.4184 260.312 73.048C260.312 73.5601 260.568 73.8299 261.087 73.8299C262.415 73.8161 263.758 73.9545 265.079 73.7123C268.11 73.1587 269.515 70.73 268.366 67.9C267.757 66.3985 266.56 65.5474 264.899 65.4229C263.1 65.2845 261.813 66.0733 260.893 67.5817C260.208 68.6957 260.284 69.9274 260.312 71.1521ZM248.03 158.468C248.03 158.461 248.03 158.461 248.03 158.454C249.476 158.454 250.922 158.502 252.361 158.44C253.289 158.399 253.669 157.762 253.69 156.862C253.704 156.247 253.552 155.825 252.832 155.825C249.663 155.831 246.494 155.831 243.325 155.831C242.75 155.831 242.522 156.136 242.481 156.683C242.391 157.859 242.91 158.454 244.121 158.468C245.421 158.482 246.729 158.468 248.03 158.468Z" fill="black"/>
<path d="M146.114 246.98C146.045 247.893 145.976 248.807 145.907 249.72C145.886 249.99 145.741 250.294 146.052 250.488C146.343 250.675 146.599 250.502 146.834 250.364C149.775 248.648 152.708 246.932 155.649 245.216C160.956 242.13 166.263 239.044 171.571 235.958C175.722 233.543 179.867 231.107 184.039 228.706C188.973 225.869 194.135 223.558 199.836 222.866C205.863 222.133 211.295 223.516 215.315 228.374C218.788 232.574 219.66 237.459 218.519 242.759C217.654 246.745 215.682 250.038 212.284 252.301C208.928 254.543 205.441 256.584 202.002 258.702C197.581 261.428 193.159 264.147 188.731 266.859C183.015 270.361 177.286 273.848 171.578 277.363C164.582 281.667 157.614 286.012 150.612 290.302C147.678 292.101 144.848 294.087 141.679 295.45C137.251 297.36 132.621 298.204 127.785 297.831C124.498 297.581 121.35 296.758 118.195 295.865C115.427 295.077 112.618 294.433 109.836 293.686C106.307 292.738 102.799 291.735 99.2701 290.787C96.5231 290.046 93.7622 289.368 91.0083 288.635C88.2613 287.901 85.5282 287.112 82.7812 286.379C80.5393 285.777 78.2974 285.196 76.0486 284.642C74.9139 284.365 74.2081 285.376 73.267 285.708C72.9418 285.825 72.6651 286.061 72.3606 286.234C71.7586 286.58 71.6479 287.002 72.0008 287.631C72.8726 289.188 73.869 290.676 74.4572 292.392C76.0417 297.014 74.3811 301.955 70.5685 304.411C66.6521 306.937 62.5835 309.254 58.3765 311.275C53.879 313.434 48.385 311.683 45.7625 307.67C42.9394 303.352 40.6076 298.737 38.0543 294.26C35.4181 289.624 32.7956 284.981 30.1663 280.345C27.5369 275.709 24.9006 271.073 22.2782 266.43C19.8287 262.092 17.4138 257.74 14.9298 253.422C12.1274 248.558 13.7535 242.095 18.6247 239.23C22.2228 237.113 25.8209 234.982 29.5228 233.058C34.2833 230.588 40.3585 232.11 43.2093 236.829C43.666 237.577 44.1019 238.338 44.524 239.106C44.9184 239.819 45.382 240.012 46.1569 239.569C52.6473 235.798 59.1584 232.055 65.6488 228.284C69.1708 226.243 72.6305 224.084 76.3323 222.382C82.2415 219.662 88.3651 218.175 94.8693 219.635C97.6786 220.264 100.356 221.365 103.069 222.319C105.747 223.26 108.411 224.257 111.095 225.184C114.015 226.187 116.942 227.184 119.89 228.097C122.54 228.921 125.218 229.626 127.909 230.325C130.594 231.024 133.417 231.218 135.998 232.263C139.998 233.882 142.973 236.649 144.765 240.635C145.685 242.655 146.17 244.752 146.114 246.98ZM137.666 263.158C136.995 263.116 136.33 263.102 135.659 263.04C131.978 262.701 128.338 262.092 124.726 261.317C122.837 260.909 120.969 260.424 119.108 259.912C116.534 259.207 113.988 258.411 111.414 257.712C108.328 256.882 105.235 256.093 102.204 255.076C100.356 254.453 98.7788 251.782 99.1317 249.9C99.7129 246.835 101.886 244.849 105.228 245.333C107.29 245.631 109.22 246.42 111.241 246.876C113.081 247.298 114.866 247.956 116.686 248.475C118.409 248.966 120.132 249.43 121.869 249.865C124.18 250.447 126.505 251 128.823 251.547C130.608 251.969 132.345 251.817 133.881 250.779C135.77 249.513 136.15 247.561 135.659 245.541C135.195 243.624 133.839 242.31 131.902 241.777C130.58 241.417 129.21 241.251 127.882 240.912C125.024 240.185 122.173 239.438 119.343 238.628C116.984 237.95 114.645 237.203 112.313 236.435C109.483 235.501 106.674 234.525 103.858 233.55C101.74 232.816 99.6437 232.02 97.5125 231.315C95.8519 230.761 94.2466 230.035 92.5029 229.73C88.1921 228.962 84.2066 230.062 80.3594 231.875C76.8374 233.536 73.53 235.605 70.1533 237.535C63.9743 241.057 57.8368 244.662 51.6786 248.226C50.4123 248.959 50.3639 249.18 51.0905 250.44C53.1317 253.996 55.166 257.553 57.1795 261.123C60.1272 266.341 63.0748 271.565 65.9809 276.81C66.3546 277.481 66.749 277.564 67.3302 277.239C68.3405 276.678 69.3784 276.152 70.3401 275.516C72.2914 274.229 74.3257 273.433 76.6991 274.069C78.4635 274.54 80.2279 275.004 81.9924 275.467C83.6184 275.903 85.2445 276.339 86.8705 276.775C88.9671 277.342 91.0706 277.91 93.1672 278.47C95.0631 278.975 96.9659 279.473 98.8618 279.985C100.862 280.525 102.854 281.086 104.847 281.625C106.743 282.137 108.653 282.622 110.549 283.134C112.479 283.66 114.396 284.22 116.326 284.739C118.291 285.265 120.291 285.673 122.235 286.282C124.775 287.078 127.356 287.59 130.006 287.562C132.365 287.541 134.663 287.147 136.898 286.254C139.603 285.175 141.956 283.521 144.412 282.041C150.121 278.595 155.746 275.024 161.42 271.523C169.516 266.534 177.632 261.58 185.728 256.598C192.149 252.647 198.57 248.682 204.991 244.731C206.403 243.859 207.717 242.988 208.292 241.237C209.627 237.182 207.697 232.996 202.722 232.968C200.334 232.955 198.058 233.605 195.844 234.401C191.927 235.805 188.405 237.999 184.821 240.068C179.535 243.119 174.29 246.233 169.024 249.312C163.696 252.426 158.341 255.491 153.027 258.639C148.301 261.476 143.215 263.075 137.666 263.158ZM64.6178 295.54C64.5971 295.478 64.5555 295.27 64.4518 295.091C61.511 289.866 58.5703 284.642 55.6088 279.425C52.1145 273.267 48.5926 267.122 45.0983 260.964C41.7216 255.02 38.338 249.077 35.0167 243.105C34.5185 242.213 34.0203 242.289 33.3215 242.683C30.4845 244.295 27.6614 245.928 24.8037 247.499C24.0218 247.928 23.925 248.447 24.3125 249.132C25.8624 251.879 27.4331 254.619 28.99 257.359C31.6401 262.023 34.2833 266.693 36.9265 271.364C39.3621 275.668 41.7977 279.965 44.2333 284.269C46.2538 287.839 48.2604 291.416 50.2809 294.987C51.4572 297.063 52.6611 299.118 53.8374 301.193C54.1004 301.657 54.3287 301.851 54.903 301.526C58.0029 299.74 61.1235 297.99 64.2442 296.239C64.4864 296.115 64.6593 295.976 64.6178 295.54Z" fill="black"/>
<path d="M102.944 52.096C103.131 54.8983 102.003 57.5969 100.612 60.2401C99.6645 62.0391 98.7788 63.8727 97.9347 65.7202C97.5679 66.5367 97.7063 67.457 97.7133 68.3357C97.7548 71.0897 98.4675 73.7744 98.5021 76.5352C98.5713 82.1676 96.3155 86.5199 91.555 89.5436C90.6901 90.0903 90.5794 90.6576 90.9738 91.5572C92.6483 95.3767 94.2812 99.2169 95.9281 103.05C97.2566 106.143 98.5713 109.243 99.9136 112.329C101.256 115.408 99.0556 119.062 95.6997 119.29C93.6931 119.428 91.8179 118.702 89.8805 118.363C87.4587 117.934 85.0646 117.353 82.6567 116.841C82.027 116.709 81.6119 116.931 81.259 117.498C79.1624 120.902 77.0658 124.313 74.8931 127.669C73.8345 129.309 72.1462 130.05 70.2572 129.842C68.2505 129.621 66.7906 128.465 65.9672 126.535C64.3688 122.798 62.715 119.076 61.0959 115.346C59.9819 112.772 58.8679 110.198 57.7884 107.61C57.5463 107.029 57.1934 106.718 56.5845 106.558C55.4635 106.268 54.3634 105.901 53.2493 105.569C52.1768 105.244 51.0905 105.23 50.0111 105.507C49.1392 105.728 48.5442 106.185 48.1152 107.119C45.5204 112.834 42.8149 118.494 40.1579 124.182C38.8986 126.881 37.833 129.676 36.3176 132.243C34.1795 135.862 29.4052 135.654 27.3086 131.952C25.4611 128.687 23.5237 125.469 21.6486 122.217C21.3095 121.629 20.9151 121.435 20.2716 121.553C16.5005 122.224 12.7226 122.895 8.94458 123.545C6.80649 123.912 5.04205 123.227 3.72737 121.511C2.35041 119.719 2.46112 117.823 3.38832 115.851C5.47797 111.409 7.52611 106.946 9.60884 102.504C11.1795 99.1339 12.771 95.778 14.3694 92.4221C14.7153 91.6886 14.7015 91.1351 13.8712 90.803C7.00024 88.0698 3.22226 80.9913 4.75836 73.3661C5.13893 71.4633 5.24271 69.519 5.31191 67.5815C5.40186 65.0975 3.85192 63.1531 2.82785 61.0635C1.62388 58.6002 0.274602 56.1853 0.0531818 53.3899C-0.341223 48.2765 1.46474 44.0349 5.24963 40.596C6.5228 39.4404 7.68526 38.1465 9.00686 37.0602C10.9097 35.4964 11.5463 33.3652 12.0652 31.1026C12.8817 27.5184 13.3868 23.8096 15.8363 20.8204C18.5625 17.4853 22.0084 15.4648 26.3676 15.1396C29.0039 14.9458 31.6401 14.7452 34.2764 14.5653C35.6534 14.4753 36.6982 13.6796 37.7569 12.9392C40.144 11.2717 42.2683 9.22352 44.8977 7.91576C48.0183 6.3589 51.2773 5.95758 54.737 6.69103C58.1898 7.42448 60.7707 9.59025 63.4762 11.5899C64.182 12.1158 64.8739 12.6555 65.5866 13.1745C66.839 14.074 68.1814 14.6206 69.7797 14.6691C72.1046 14.7383 74.4226 14.9597 76.7406 15.1534C81.8125 15.5755 85.549 18.1564 88.2268 22.3842C89.7145 24.7229 90.1988 27.4215 90.7108 30.0578C91.3197 33.1853 92.3092 35.9877 94.9663 38.0081C96.1633 38.9215 97.2012 40.0424 98.2876 41.0942C101.325 44.0487 102.951 47.5845 102.944 52.096ZM14.7361 76.549C14.8122 78.4173 15.3658 79.7804 16.7496 80.6661C18.3549 81.6901 20.1678 82.2644 21.9046 83.0117C25.0944 84.3749 28.1597 85.9248 30.2563 88.8171C31.8823 91.059 33.4323 93.3562 34.9407 95.6811C35.9232 97.1965 37.2587 97.833 39.0231 97.7569C40.6007 97.6946 42.0123 97.0304 43.4999 96.636C45.9356 95.9856 48.302 95.1137 50.876 95.0099C54.6678 94.8577 58.1413 96.1655 61.6218 97.321C64.2927 98.2067 66.6591 97.7846 68.1744 95.605C69.157 94.2004 70.0427 92.7196 70.9837 91.2873C72.7551 88.5957 74.7409 86.1462 77.7093 84.6309C80.2418 83.337 82.9058 82.3475 85.466 81.1366C87.1681 80.327 88.1991 79.0815 88.1645 77.1303C88.1438 76.0785 88.1507 74.9991 87.9431 73.975C87.348 71.0481 87.348 68.1005 87.4864 65.139C87.5072 64.6823 87.5625 64.2187 87.7009 63.7897C88.6627 60.6968 90.1435 57.8391 91.7003 55.0159C93.1188 52.435 93.015 50.1032 90.697 48.1312C89.5692 47.1763 88.5174 46.1384 87.4449 45.1212C85.4452 43.2253 83.5285 41.2533 82.4629 38.6586C81.1967 35.5587 80.5878 32.272 79.8751 29.0198C79.4876 27.2554 77.7785 25.5325 76.021 25.4841C73.3017 25.4079 70.6101 25.0758 67.9115 24.8751C65.3998 24.6883 63.1371 23.8442 61.0198 22.5295C58.6326 21.0418 56.4945 19.2151 54.1904 17.6098C52.3429 16.3228 50.6338 16.3228 48.8348 17.6375C47.3886 18.6892 45.9425 19.741 44.5102 20.8273C41.3411 23.2283 37.9368 24.8821 33.8336 25.0066C31.6263 25.0758 29.4121 25.3388 27.1979 25.4702C25.4404 25.574 24.181 26.5081 23.5237 28.1688C22.6657 30.3345 22.3543 32.6456 21.8077 34.8875C20.9705 38.3264 19.4897 41.3363 16.9295 43.7996C15.0544 45.6056 13.1239 47.3631 11.3664 49.2729C10.2939 50.4422 9.94097 51.923 10.7021 53.4868C11.7262 55.5972 12.7572 57.7007 13.7812 59.8111C15.2758 62.8694 16.0646 66.0454 15.5941 69.4913C15.255 71.92 15.3035 74.404 14.7361 76.549ZM31.3772 117.498C32.7403 114.875 33.9927 112.329 35.1206 109.714C35.3489 109.181 35.7572 108.406 34.7954 108.178C34.2072 108.032 33.6952 107.762 33.1416 107.569C29.9034 106.413 27.5369 104.254 25.7379 101.383C25.219 100.552 24.6516 99.7566 24.0634 98.9747C23.8282 98.6634 23.4683 98.3451 23.1777 98.9401C22.5135 100.276 21.8631 101.618 21.2265 102.967C20.4169 104.697 19.6281 106.441 18.8254 108.178C18.3757 109.153 17.9259 110.129 17.4762 111.097C18.1543 110.765 18.7908 110.786 19.4274 110.758C20.2578 110.724 21.0396 110.62 21.87 110.323C22.9702 109.928 24.2295 109.921 25.385 110.357C27.2532 111.056 28.4157 112.495 29.4259 114.142C30.0764 115.208 30.4708 116.419 31.3772 117.498ZM84.1167 106.385C84.6425 106.24 85.12 106.489 85.3345 106.033C85.5282 105.624 85.4244 105.223 85.12 104.856C84.9678 104.676 84.8986 104.427 84.8017 104.206C84.2205 102.87 83.6462 101.535 83.0788 100.199C82.5875 99.0509 82.0962 97.8953 81.6326 96.7329C81.5427 96.5115 81.6049 96.2139 81.3074 96.1309C80.9753 96.0409 80.7677 96.2969 80.6155 96.5114C80.0273 97.3418 79.4461 98.1721 78.9064 99.037C77.7854 100.822 76.706 102.67 75.2184 104.13C73.7999 105.527 72.2638 106.925 70.2295 107.499C69.8766 107.596 69.5445 107.769 69.7659 108.247C70.2641 109.354 70.8038 110.447 71.2466 111.575C71.5857 112.426 71.8971 112.232 72.2915 111.651C72.8519 110.814 73.4816 109.997 73.9314 109.125C75.163 106.752 76.8237 105.396 79.6606 105.597C81.2313 105.721 82.7812 105.797 84.1167 106.385Z" fill="black"/>
<path d="M121.184 96.6777C121.094 95.9096 121.675 94.7264 121.986 93.5155C123.087 89.2671 124.325 85.0532 125.495 80.8254C125.792 79.7391 126.014 78.6389 126.332 77.5595C126.588 76.6876 126.311 76.1271 125.612 75.5736C121.073 71.9686 116.569 68.3221 112.043 64.6963C110.535 63.4854 109.338 62.1154 108.867 60.1296C108.196 57.2788 110.051 53.653 112.804 52.622C113.912 52.2069 115.033 52.027 116.209 51.9993C122.021 51.8678 127.813 51.2589 133.632 51.2382C135.189 51.2312 135.299 50.0065 135.666 49.0793C137.61 44.1181 139.513 39.1362 141.368 34.1404C142.011 32.4036 142.662 30.736 144.232 29.5943C147.706 27.0757 152.688 28.3834 154.307 32.369C155.864 36.2023 157.275 40.091 158.749 43.959C159.579 46.1178 160.41 48.2836 161.247 50.4424C161.531 51.1828 162.188 51.2036 162.832 51.2312C166.001 51.3627 169.177 51.4181 172.339 51.6256C175.19 51.8125 178.033 51.9439 180.891 52.0477C184.538 52.1792 187.236 54.5871 187.624 58.2129C187.88 60.6208 186.883 62.6136 185.008 64.129C180.829 67.5125 176.629 70.8684 172.443 74.2382C172.034 74.5703 171.675 74.9855 171.218 75.2345C169.917 75.9334 169.779 76.9436 170.159 78.2514C171.162 81.6903 172.11 85.1431 173.058 88.5959C173.736 91.0661 174.456 93.5294 175.03 96.0273C175.605 98.5044 174.38 101.39 172.277 102.767C169.889 104.324 167.405 104.559 164.949 102.981C160.431 100.075 155.947 97.1205 151.449 94.1867C151.214 94.0345 150.909 93.9584 150.723 93.7646C149.007 92.0071 147.519 92.3669 145.582 93.737C140.966 96.996 136.15 99.9644 131.39 103.016C129.245 104.386 126.968 104.4 124.775 103.175C122.492 101.895 121.301 99.8675 121.184 96.6777ZM148.239 45.4882C147.865 46.2562 147.588 46.7406 147.388 47.2595C146.087 50.6223 144.876 54.0197 143.492 57.348C142.655 59.3684 141.042 60.607 138.849 61.0983C136.067 61.721 133.237 61.4996 130.428 61.6518C129.196 61.7141 127.965 61.7487 126.733 61.804C126.422 61.8179 126.069 61.804 125.91 62.1569C125.723 62.579 126.131 62.6897 126.339 62.8904C126.491 63.0357 126.657 63.1672 126.816 63.2986C129.501 65.4506 132.206 67.5748 134.863 69.7613C136.87 71.4081 137.659 73.5601 137.313 76.1341C137.071 77.9539 136.462 79.6768 135.971 81.4343C135.375 83.5586 134.815 85.6966 134.234 87.8209C134.165 88.0838 133.95 88.4021 134.213 88.6028C134.469 88.7896 134.725 88.5405 134.96 88.3814C137.853 86.4716 140.766 84.5826 143.644 82.6452C146.398 80.7977 149.18 80.4033 152.086 82.2923C155.199 84.3128 158.334 86.3125 161.455 88.3191C161.676 88.4644 161.904 88.7827 162.174 88.5128C162.354 88.3329 162.167 88.0562 162.098 87.8209C161.738 86.5408 161.385 85.2607 161.033 83.9806C160.534 82.1609 160.126 80.3064 159.538 78.5143C158.369 74.9439 158.749 71.8994 161.87 69.4569C164.499 67.4018 167.094 65.3122 169.675 63.2087C169.993 62.9527 170.609 62.7658 170.457 62.2123C170.298 61.6449 169.696 61.8525 169.267 61.7764C169.024 61.7348 168.775 61.7487 168.526 61.7418C165.675 61.6518 162.818 61.6103 159.974 61.4581C157.995 61.3543 156.064 60.9875 154.494 59.5968C152.916 58.206 152.369 56.2339 151.622 54.4003C150.446 51.5357 149.415 48.6019 148.239 45.4882Z" fill="black"/>
<path d="M278.932 27.9753C276.808 28.0168 275.299 27.0827 274.344 25.3528C273.431 23.6991 273.514 21.9693 274.462 20.3224C276.033 17.5824 277.61 14.8492 279.202 12.1161C280.385 10.0818 283 9.00234 284.993 9.70812C287.54 10.6076 289.013 12.8011 288.661 15.3128C288.46 16.7382 287.609 17.9007 286.903 19.1116C285.609 21.3188 284.391 23.5815 283.014 25.7334C282.08 27.1934 280.669 28.0375 278.932 27.9753Z" fill="black"/>
<path d="M314.746 41.5025C314.733 43.0525 313.335 44.5055 311.391 45.5988C308.948 46.9758 306.526 48.3735 304.084 49.7573C302.091 50.8921 300.119 50.8714 298.264 49.4736C296.548 48.1866 295.967 46.3876 296.389 44.3325C296.694 42.8587 297.621 41.7585 298.936 41.0043C301.883 39.316 304.699 37.3924 307.806 36.0085C311.072 34.5555 314.726 37.0603 314.746 41.5025Z" fill="black"/>
<path d="M181.383 40.8523C181.41 36.6384 185.541 34.3204 189.091 36.327C191.865 37.8977 194.612 39.5099 197.353 41.1429C199.221 42.2639 200.231 44.5888 199.754 46.457C199.159 48.7819 197.249 50.4495 194.979 50.5671C193.63 50.6363 192.44 50.062 191.312 49.4116C188.821 47.9793 186.323 46.5539 183.874 45.0593C182.241 44.0698 181.3 42.6098 181.383 40.8523Z" fill="black"/>
<path d="M217.245 27.975C215.142 28.0235 213.703 26.9095 212.699 25.228C211.053 22.4534 209.461 19.6441 207.918 16.8141C206.735 14.6483 207.614 11.6453 209.724 10.3237C211.931 8.93983 214.858 9.37575 216.374 11.417C217.882 13.4443 218.982 15.7346 220.235 17.9281C221.058 19.3742 222.137 20.7097 222.276 22.488C222.504 25.5394 220.297 27.9889 217.245 27.975Z" fill="black"/>
<path d="M242.993 9.82551C242.993 8.24097 243.027 6.65644 242.986 5.0719C242.903 2.20728 245.484 0 247.982 0C250.777 0 253.109 2.20728 253.157 5.05115C253.213 8.25482 253.206 11.4585 253.164 14.6622C253.123 17.6237 250.888 19.7548 247.961 19.7341C245.138 19.7064 243.055 17.6098 243 14.6898C242.965 13.0707 242.993 11.4446 242.993 9.82551Z" fill="black"/>
<path d="M103.837 174.617C103.837 173.808 103.823 172.998 103.837 172.189C103.878 170.431 104.529 168.812 104.937 167.131C105.345 165.435 106.238 163.996 106.95 162.453C107.31 161.678 107.767 160.972 108.251 160.301C110.106 157.741 112.306 155.561 114.963 153.776C116.665 152.634 118.464 151.77 120.312 150.974C122.512 150.026 124.872 149.784 127.21 150.157C128.525 150.365 129.528 151.347 130.22 152.475C130.829 153.465 131.12 154.565 131.016 155.783C130.836 157.789 129.964 159.236 128.144 160.197C126.595 161.014 124.865 161.249 123.28 161.962C120.104 163.394 117.904 165.671 116.319 168.764C114.873 171.594 114.839 174.576 115.268 177.489C115.586 179.668 116.589 181.8 118.243 183.474C119.627 184.879 120.326 186.491 120.298 188.567C120.277 190.096 118.423 192.449 117.018 193.113C114.326 194.393 112.244 193.459 110.341 191.556C108.452 189.667 107.033 187.411 105.982 185.017C105.276 183.412 104.826 181.62 104.342 179.897C103.83 178.125 103.947 176.382 103.837 174.617Z" fill="black"/>
<path d="M170.99 150.068C173.335 149.929 175.356 150.905 177.445 151.791C179.3 152.572 180.981 153.61 182.579 154.745C184.233 155.921 185.652 157.437 186.904 159.049C188.343 160.903 189.637 162.91 190.405 165.103C191.118 167.138 192.17 169.172 191.907 171.442C191.775 172.59 192.737 173.531 192.467 174.611C191.934 176.693 191.941 178.845 191.409 180.949C190.82 183.26 189.969 185.384 188.765 187.384C187.541 189.418 186.233 191.418 184.206 192.795C181.182 194.843 177.888 193.321 176.366 190.767C174.982 188.443 175.439 186.498 177.196 184.325C178.594 182.596 180.012 180.783 180.455 178.569C180.691 177.413 181.258 176.32 181.209 175.116C181.092 172.48 180.414 170.002 179.127 167.677C177.805 165.297 175.833 163.574 173.543 162.267C172.242 161.526 170.699 161.146 169.211 160.82C167.544 160.454 165.807 158.523 165.288 156.876C164.769 155.236 165.205 153.929 165.89 152.572C166.838 150.697 168.402 149.929 170.464 150.075C170.637 150.075 170.81 150.068 170.99 150.068Z" fill="black"/>
<path d="M36.3455 251.36C36.3385 253.471 34.7125 255.097 32.6228 255.097C30.5401 255.097 28.8587 253.415 28.914 251.333C28.9763 248.925 30.6439 247.596 32.6574 247.575C34.5672 247.561 36.4354 249.035 36.3455 251.36Z" fill="black"/>
<path d="M84.0611 57.2992C84.1787 75.2757 69.475 89.8963 51.5469 89.8963C33.5012 89.8963 18.9428 75.2549 18.929 57.2576C18.9151 39.3088 33.6949 24.6259 51.5815 24.6605C69.3781 24.702 84.2133 39.2811 84.0611 57.2992ZM51.4085 79.4827C63.5036 79.6972 73.6336 69.588 73.7304 57.5413C73.8342 45.2318 64.0087 35.1364 51.7268 35.0326C39.3757 34.9288 29.5156 44.6851 29.2665 56.9048C29.0174 69.069 38.9536 79.5311 51.4085 79.4827Z" fill="black"/>
</svg>
