<svg width="62" height="56" viewBox="0 0 62 56" fill="none" xmlns="http://www.w3.org/2000/svg">
<path fill-rule="evenodd" clip-rule="evenodd" d="M28.3848 0.733765C28.4729 0.733765 28.5023 1.23487 28.5023 5.05706L27.5914 5.58765C27.1017 5.87259 25.368 6.87481 23.7519 7.80825C22.1358 8.74169 20.1475 9.89129 19.3443 10.3629C18.5314 10.8346 17.689 11.3258 17.454 11.4536C17.2287 11.5813 17.0426 11.7287 17.0426 11.7876C17.0426 11.8466 17.3658 12.0628 17.7576 12.2888C18.1396 12.5049 19.0603 13.0355 19.7851 13.458C20.5099 13.8805 22.5374 15.0498 24.2906 16.0618C26.0439 17.0739 27.6894 18.027 28.4533 18.4789L28.4729 20.6602C28.4925 22.3502 28.4729 22.8415 28.375 22.8415C28.3162 22.8415 27.5522 22.419 26.6903 21.9179C25.8284 21.407 24.4375 20.6013 23.605 20.1198C22.7725 19.6285 21.2053 18.7246 20.1279 18.0957C19.0505 17.4767 16.5823 16.0422 14.6429 14.922C12.7036 13.8019 10.7349 12.6621 10.2647 12.387C9.79457 12.1119 9.39299 11.8466 9.3832 11.7876C9.36361 11.7385 9.99047 11.3258 10.774 10.8739C11.5576 10.4219 13.5165 9.2821 15.1326 8.34866C16.7488 7.41522 18.5999 6.34422 19.2464 5.97085C19.8928 5.59747 21.8714 4.44787 23.654 3.41617C25.4268 2.38448 27.1898 1.36261 27.5718 1.13662C27.9538 0.910627 28.3162 0.733765 28.375 0.733765L28.3848 0.733765ZM33.7229 0.733765C33.7914 0.733765 34.0657 0.861498 34.3399 1.01871C34.6044 1.16609 35.4859 1.68686 36.2988 2.15849C37.102 2.63012 38.4733 3.426 39.3352 3.92711C40.1971 4.41839 41.7642 5.33218 42.8123 5.94137C43.8603 6.55056 45.447 7.47418 46.3383 7.98511C47.2296 8.49605 49.0808 9.56705 50.4521 10.3629C51.8233 11.1686 54.6442 12.7997 56.7206 13.9984C58.7971 15.1972 60.7854 16.3566 61.1576 16.5629C61.52 16.7693 61.8138 16.9658 61.8138 16.9953C61.8138 17.0247 61.4025 17.2802 60.9029 17.575C60.4132 17.8599 59.8255 18.2038 59.6101 18.3217C59.3946 18.4396 58.9636 18.6853 58.0919 19.206L55.2221 17.5651C53.6549 16.671 51.5883 15.4821 50.648 14.9319C49.7077 14.3816 48.3168 13.5759 47.5627 13.1436C46.8085 12.7113 44.781 11.5322 43.0571 10.53C41.3333 9.52774 38.5124 7.89668 33.6543 5.08654L33.6249 2.90524C33.6053 1.2054 33.6249 0.733765 33.7229 0.733765ZM33.7033 11.149C33.762 11.149 35.4663 12.1119 37.5036 13.3008C39.5311 14.4799 42.3421 16.1109 43.7428 16.9167C45.1434 17.7224 47.4549 19.0685 48.8849 19.8938C50.315 20.7192 51.745 21.5544 52.0682 21.7312C52.3914 21.9179 52.695 22.0948 52.7342 22.1341C52.7734 22.1734 52.5971 22.3404 52.3424 22.5075C52.0878 22.6745 51.2552 23.1658 50.501 23.5981C49.7469 24.0304 47.8075 25.1506 46.1914 26.084C44.5753 27.0076 42.8515 28.0098 42.3715 28.2948C41.8916 28.5797 40.344 29.4739 38.9434 30.2796C37.5428 31.0853 36.2009 31.8615 35.956 31.9991C35.7112 32.1366 35.1333 32.4707 34.6631 32.7556C34.1832 33.0308 33.762 33.2567 33.7033 33.2567C33.6445 33.2567 33.6053 32.4707 33.6053 28.9335L34.0755 28.6485C34.3301 28.4913 35.4369 27.8428 36.5437 27.214C37.6505 26.5753 39.4331 25.5436 40.5105 24.9246C41.5879 24.3056 43.0473 23.4704 43.7428 23.0675C44.4382 22.6548 45.0552 22.3011 45.0944 22.2618C45.1336 22.2323 44.7614 21.967 44.2619 21.6723C43.7623 21.3775 43.1551 21.0238 42.9102 20.8764C42.6654 20.729 40.6868 19.5794 38.5026 18.3217C36.3184 17.064 34.3301 15.9144 33.6053 15.4723V13.3106C33.6053 11.935 33.6445 11.149 33.7033 11.149ZM4.12349 14.8336C4.20184 14.8631 5.04418 15.3445 5.98447 15.885C6.92475 16.4352 8.20785 17.1721 8.82491 17.5357C9.44197 17.8992 11.1658 18.8916 12.6448 19.7464C14.1238 20.6013 16.1121 21.7509 17.0524 22.3011C17.9927 22.8514 19.3345 23.6276 20.0398 24.0206C20.745 24.4136 21.8224 25.0327 22.4394 25.3962C23.0565 25.7598 24.32 26.4869 25.2309 27.0174C26.1516 27.548 27.2584 28.1965 28.5121 28.9335V31.0951C28.5121 32.4707 28.4729 33.2567 28.4142 33.2567C28.3554 33.2567 27.8853 33.0013 27.3563 32.6869C26.8372 32.3724 26.2691 32.0482 26.1124 31.9696C25.9557 31.8812 25.0742 31.3899 24.1535 30.8593C23.2426 30.3287 21.6755 29.4149 20.6764 28.8352C19.6774 28.2555 17.5421 27.0174 15.926 26.084C14.3099 25.1506 12.4391 24.0697 11.7633 23.6767C11.0875 23.2935 9.32443 22.2716 7.84544 21.4168C6.36646 20.562 4.48589 19.4812 3.68273 19.0095C2.86977 18.5379 1.77277 17.8992 1.23407 17.5848C0.646393 17.2507 0.293786 16.9953 0.352554 16.9461C0.401527 16.897 1.15571 16.4548 2.01764 15.9537C2.87957 15.4625 3.67293 14.9908 3.78067 14.9122C3.88841 14.8434 4.04513 14.8041 4.12349 14.8336ZM10.8132 29.1005C11.4107 29.4542 12.253 29.9357 13.4284 30.6038L13.4774 41.0583L15.2894 42.1097C16.2884 42.6796 18.2278 43.8095 19.599 44.6054C20.9702 45.4013 23.2622 46.7277 24.6922 47.5531C26.1222 48.3785 28.1399 49.5477 31.0587 51.2377L32.9491 50.1471C33.9775 49.5477 35.8483 48.4669 37.0824 47.7496C38.3165 47.0422 40.1971 45.9515 41.2451 45.3423C42.2932 44.7331 43.5763 43.9864 44.0856 43.6916C44.5949 43.3968 45.2609 43.0136 45.5548 42.8368C45.8486 42.6599 46.6714 42.1981 48.6401 41.0682L48.689 30.6038L49.3061 30.2599C49.6391 30.0732 50.4619 29.5918 51.1377 29.1889C51.8135 28.7861 52.3914 28.4815 52.4404 28.5011C52.4796 28.5208 52.5089 31.8615 52.5089 43.2789L51.7058 43.7407C51.2552 43.9962 50.8047 44.2615 50.6969 44.3205C50.5892 44.3794 49.9036 44.7724 49.1788 45.1949C48.454 45.6174 45.9857 47.0422 43.6938 48.3686C41.4018 49.6951 38.581 51.336 37.4252 52.0041C36.2695 52.6821 34.7709 53.5468 34.0951 53.9398C33.4192 54.3328 32.4887 54.8831 32.0186 55.1582C31.5387 55.4333 31.1175 55.6593 31.0587 55.6593C30.9999 55.6593 30.4906 55.3842 29.9127 55.0403C29.3251 54.6964 28.326 54.1068 27.6796 53.7236C27.0331 53.3503 25.7598 52.6035 24.8391 52.0729C23.9282 51.5423 22.557 50.7464 21.8028 50.3043C21.0486 49.8621 19.8341 49.1547 19.1093 48.7322C18.3845 48.3097 17.6597 47.897 17.4932 47.7987C17.3364 47.7103 16.4941 47.219 15.6322 46.7179C14.7702 46.2266 13.066 45.2441 9.60848 43.2789L9.58889 35.9293C9.57909 31.8812 9.60848 28.5503 9.63786 28.511C9.67704 28.4815 10.2059 28.7468 10.8132 29.1005ZM19.1876 33.9052C19.4423 34.0625 19.981 34.3769 20.3826 34.6225C20.7841 34.8682 21.5383 35.3005 22.0477 35.5953C22.557 35.89 23.1153 36.2045 23.272 36.3027C23.4385 36.3911 24.32 36.9021 25.2309 37.4327C26.1516 37.9632 27.5816 38.7984 28.4142 39.2897C29.2467 39.7712 30.1772 40.3018 30.471 40.459C30.9118 40.7046 31.0587 40.7341 31.2546 40.6653C31.3917 40.6064 33.9285 39.1522 36.8865 37.4327C39.8543 35.7132 42.5282 34.1607 42.8417 33.974C43.1453 33.7972 43.4195 33.6792 43.4489 33.7284C43.4783 33.7677 43.4979 34.7601 43.4979 38.0713L42.7927 38.4742C42.4009 38.7002 41.6369 39.1325 41.0982 39.4469C40.5595 39.7613 38.9924 40.6653 37.6211 41.4612C36.2499 42.2571 34.2126 43.4361 31.0587 45.2441L28.7374 43.9078C27.4543 43.161 24.6628 41.5594 18.6685 38.091L18.6489 35.9981C18.6391 34.8485 18.6587 33.8463 18.6783 33.7677C18.7175 33.6694 18.8448 33.7087 19.1876 33.9052Z" fill="#2346A3"/>
</svg>
