<svg width="124" height="108" viewBox="0 0 124 108" fill="none" xmlns="http://www.w3.org/2000/svg">
<path d="M104.554 97.2673L91.5521 94.4057L87.5223 107.127C87.2325 108.042 85.9937 108.176 85.5151 107.345L69.4302 79.403C77.3534 77.6862 84.4031 73.6174 89.8161 67.9624L105.747 95.6401C106.225 96.4703 105.49 97.4733 104.554 97.2673Z" fill="#FD646F"/>
<path d="M104.554 97.267L92.5361 94.6218C92.2672 94.5627 91.986 94.6062 91.7476 94.7439C91.5092 94.8816 91.3309 95.1034 91.2477 95.3658L87.5223 107.127C87.2325 108.042 85.9937 108.176 85.5151 107.344L71.7352 83.4049L69.4302 79.4025C77.3534 77.6857 84.4031 73.6169 89.8162 67.9619L92.1036 71.9332L105.747 95.6396C106.225 96.4703 105.49 97.473 104.554 97.267Z" fill="url(#paint0_linear_2407_736)"/>
<path d="M54.8239 79.0675L38.4847 107.446C38.006 108.278 36.7673 108.144 36.4774 107.229L32.7518 95.4678C32.6687 95.2053 32.4904 94.9835 32.252 94.8458C32.0136 94.7081 31.7323 94.6646 31.4634 94.7238L19.4456 97.3687C18.5099 97.5748 17.7747 96.5718 18.2527 95.7415L34 67.5C39.6733 72.8786 46.775 77.7422 54.8239 79.0675Z" fill="url(#paint1_linear_2407_736)"/>
<path d="M102.033 40.1539C102.033 50.9462 97.7866 60.7474 90.8759 67.9624C85.4629 73.6174 78.4131 77.6862 70.4899 79.4029C67.7002 80.0061 64.854 80.3095 61.9998 80.3078C59.7764 80.3078 57.597 80.1262 55.4728 79.7768C47.8364 78.5202 40.9256 75.0952 35.3935 70.1527C35.0939 69.8873 34.799 69.6166 34.509 69.3408C33.4765 68.3615 32.4958 67.3292 31.5708 66.2478C30.6841 65.208 29.8503 64.1216 29.0717 62.9934C26.7051 59.5701 24.8863 55.7991 23.6807 51.8159C22.5668 48.1256 21.9668 44.2117 21.9668 40.1541C21.9668 17.9783 39.8911 0 61.9998 0C66.043 0 69.9473 0.601741 73.6244 1.7214C77.6455 2.94055 81.3954 4.77908 84.7702 7.12649C85.8952 7.90756 86.9782 8.74378 88.0128 9.63536C89.3975 10.8219 90.6997 12.1014 91.9104 13.4651C98.2079 20.5605 102.033 29.9102 102.033 40.1539Z" fill="url(#paint2_linear_2407_736)"/>
<path d="M89.6733 40.1538C89.6733 55.4883 77.2806 67.9141 61.9998 67.9141C46.7189 67.9141 34.3262 55.4883 34.3262 40.1538C34.3262 24.8194 46.7189 12.3936 61.9998 12.3936C77.2806 12.3936 89.6733 24.8194 89.6733 40.1538Z" fill="#F4982E" stroke="url(#paint3_linear_2407_736)" stroke-width="2"/>
<path d="M42 40.7587L55.3118 34.2988V36.8248L44.7533 41.7399V41.7955L55.3118 46.7384V49.2389L42 42.779V40.7587Z" fill="white"/>
<path d="M57.2617 50.3608L64.1159 30H66.5305L59.6763 50.3608H57.2617Z" fill="white"/>
<path d="M81.5329 42.837L68.2212 49.2412V46.7408L78.9513 41.7978V41.7422L68.2212 36.7993V34.2988L81.5329 40.703V42.837Z" fill="white"/>
<defs>
<linearGradient id="paint0_linear_2407_736" x1="87.6637" y1="67.9619" x2="87.6637" y2="107.897" gradientUnits="userSpaceOnUse">
<stop stop-color="#01347A"/>
<stop offset="1" stop-color="#00419B"/>
</linearGradient>
<linearGradient id="paint1_linear_2407_736" x1="36.4632" y1="67.5" x2="36.4632" y2="107.999" gradientUnits="userSpaceOnUse">
<stop stop-color="#01347A"/>
<stop offset="1" stop-color="#00419B"/>
</linearGradient>
<linearGradient id="paint2_linear_2407_736" x1="61.9998" y1="0" x2="61.9998" y2="80.3078" gradientUnits="userSpaceOnUse">
<stop stop-color="#FFC684"/>
<stop offset="1" stop-color="#F4982C"/>
</linearGradient>
<linearGradient id="paint3_linear_2407_736" x1="61.9998" y1="11.3936" x2="61.9998" y2="68.9141" gradientUnits="userSpaceOnUse">
<stop stop-color="white"/>
<stop offset="1" stop-color="white" stop-opacity="0"/>
</linearGradient>
</defs>
</svg>
