<svg width="84" height="83" viewBox="0 0 84 83" fill="none" xmlns="http://www.w3.org/2000/svg">
<path d="M66.2854 37.1633C66.2854 50.0875 49.3202 68.1743 42.0035 76.9507C34.2419 67.9607 17.7217 50.0875 17.7217 37.1633C17.7217 24.2391 28.5809 13.7537 41.9857 13.7537C55.3906 13.7537 66.2854 24.2391 66.2854 37.1633Z" fill="#73BF44"/>
<path d="M41.9862 48.6455C47.374 48.6455 51.7417 44.4373 51.7417 39.2461C51.7417 34.0549 47.374 29.8467 41.9862 29.8467C36.5984 29.8467 32.2307 34.0549 32.2307 39.2461C32.2307 44.4373 36.5984 48.6455 41.9862 48.6455Z" fill="#0A1720"/>
<path opacity="0.43" d="M41.9503 16.0502C31.6964 16.0502 23.0625 23.0997 20.3566 32.7484C24.8071 40.3142 32.8891 45.37 42.1106 45.37C51.1896 45.37 59.1648 40.4566 63.6509 33.0688C61.034 23.2778 52.3111 16.0502 41.9503 16.0502Z" fill="#040507"/>
<path d="M42.0395 82.1132L39.3692 79.0335C38.7817 78.3392 38.1409 77.6093 37.4466 76.826C28.7948 66.8925 14.2863 50.2833 14.2863 37.1455C14.2863 22.4411 26.712 10.4604 41.9683 10.4604C57.2424 10.4604 69.6503 22.4233 69.6503 37.1455C69.6503 49.7137 56.3701 65.237 47.5759 75.5087C46.49 76.7726 45.4753 77.9654 44.6208 78.9801L42.0395 82.1132ZM41.9861 17.0293C30.4682 17.0293 21.1044 26.0549 21.1044 37.1455C21.1044 47.3104 33.6548 62.2462 41.3986 71.1472C41.7013 71.4855 42.2175 71.4855 42.5202 71.1472C44.0511 69.3314 48.4126 64.2045 50.8515 61.0535C57.0109 53.1138 62.8678 44.0348 62.8678 37.1455C62.8678 26.0549 53.504 17.0293 41.9861 17.0293Z" fill="#0A1720"/>
<path d="M41.9863 37.8398C49.9893 37.8398 56.4771 31.5832 56.4771 23.8652C56.4771 16.1473 49.9893 9.8907 41.9863 9.8907C33.9832 9.8907 27.4955 16.1473 27.4955 23.8652C27.4955 31.5832 33.9832 37.8398 41.9863 37.8398Z" fill="#FAEF5C"/>
<path d="M41.9856 40.7415C32.337 40.7415 24.4863 33.1756 24.4863 23.883C24.4863 14.5904 32.337 7.02458 41.9856 7.02458C51.6343 7.02458 59.485 14.5904 59.485 23.883C59.485 33.1756 51.6343 40.7415 41.9856 40.7415ZM41.9856 12.7924C35.6482 12.7924 30.4856 17.7592 30.4856 23.8652C30.4856 29.9713 35.6482 34.938 41.9856 34.938C48.3231 34.938 53.4857 29.9713 53.4857 23.8652C53.4857 17.7592 48.3231 12.7924 41.9856 12.7924Z" fill="#0A1720"/>
<path d="M27.9046 27.7814C27.6376 27.8349 27.513 27.8883 27.4774 27.8705C22.9913 24.0964 17.3303 24.7551 11.9719 24.3101C9.24818 24.0964 6.52448 24.0074 3.80078 23.7938C1.43312 23.6158 -0.133448 22.0314 0.00896777 20.0732C0.151383 18.0082 1.77136 16.5128 4.12122 16.6374C10.7792 16.9935 17.4193 17.4029 24.0594 17.9192C26.9433 18.1506 27.9046 19.4323 27.7266 22.156C27.6732 23.1173 27.691 24.0786 27.7088 25.0399C27.7622 25.9478 27.8512 26.8735 27.9046 27.7814Z" fill="#0A1720"/>
<path d="M56.1743 28.0843C56.1743 25.2716 55.8539 22.7615 56.3346 20.3938C56.5304 19.4147 58.3818 18.133 59.5923 18.0084C66.3927 17.3675 73.2108 16.9581 80.0468 16.6198C82.3966 16.4952 83.9454 18.0796 83.9988 20.1802C84.0522 22.1028 82.5924 23.5982 80.3316 23.7584C75.4004 24.0967 70.4515 24.4883 65.5026 24.6485C62.9213 24.7197 60.6248 25.1648 58.6132 26.7135C57.9901 27.212 57.2068 27.5146 56.1743 28.0843Z" fill="#0A1720"/>
<path d="M57.5094 19.0943C59.5032 16.2816 61.1766 13.7537 63.0458 11.3861C63.8291 10.3892 64.8972 10.1043 66.2501 11.1368C67.1224 11.8133 68.5644 12.1516 69.7215 12.1159C72.0358 12.0447 74.35 11.6887 76.6287 11.2793C79.6906 10.7274 81.3996 8.32413 81.0436 5.2978C80.7231 2.5919 78.2665 0.544678 75.2935 0.722698C72.8903 0.882915 70.5048 1.22115 68.1371 1.6306C65.6449 2.05784 64.2741 3.80244 63.8113 6.27691C63.6333 7.22041 62.8678 8.0749 62.2625 8.8938C60.5357 11.1902 58.5775 13.3443 57.0821 15.7653C56.5837 16.5486 57.3314 17.9906 57.5094 19.0943Z" fill="#0A1720"/>
<path d="M26.4803 19.0943C24.4865 16.2816 22.8131 13.7537 20.9439 11.3861C20.1607 10.3892 19.0925 10.1043 17.7396 11.1368C16.8673 11.8133 15.4253 12.1516 14.2682 12.1159C11.954 12.0447 9.6397 11.6887 7.36105 11.2793C4.29911 10.7274 2.59013 8.32413 2.94616 5.2978C3.2666 2.5919 5.72327 0.544678 8.6962 0.722698C11.0995 0.882915 13.4849 1.22115 15.8526 1.6306C18.3449 2.05784 19.7156 3.80244 20.1785 6.27691C20.3565 7.22041 21.122 8.0749 21.7272 8.8938C23.454 11.1902 25.4122 13.3443 26.9076 15.7653C27.3882 16.5486 26.6584 17.9906 26.4803 19.0943Z" fill="#0A1720"/>
<path d="M34.9184 24.6663C34.42 24.6663 34.0283 24.2747 34.0283 23.7762C34.0283 19.5394 37.5887 16.0858 41.9858 16.0858C43.2319 16.0858 44.4959 16.3706 45.5996 16.9225C46.0446 17.1361 46.2227 17.6702 46.009 18.1152C45.7954 18.5603 45.2613 18.7383 44.8163 18.5247C43.944 18.0974 42.9827 17.866 41.9858 17.866C38.5856 17.866 35.8085 20.5185 35.8085 23.7762C35.8085 24.2747 35.4169 24.6663 34.9184 24.6663Z" fill="#0A1720"/>
</svg>
