<svg width="124" height="108" viewBox="0 0 124 108" fill="none" xmlns="http://www.w3.org/2000/svg">
<path d="M106.586 12V85.75H10V24.7155H60.8349L76.0854 12H106.586Z" fill="#F39629"/>
<path d="M72.8955 14.6226H30.409C29.0675 14.6226 27.781 15.155 26.8325 16.1028C25.884 17.0506 25.3511 18.3361 25.3511 19.6765V24.7304H60.7565L72.8955 14.6226Z" fill="#FECBAA"/>
<path d="M120.4 65.1665L110.935 54.7475C110.718 54.5129 110.454 54.3255 110.162 54.1969C109.869 54.0684 109.553 54.0013 109.233 54H76.757C76.4373 54.0013 76.1212 54.0684 75.8284 54.1969C75.5356 54.3255 75.2724 54.5129 75.055 54.7475L65.5905 65.1665C65.2235 65.5609 65.0147 66.0768 65.004 66.6155C64.9697 67.1874 65.1548 67.7508 65.5215 68.191L91.224 99.034C91.4328 99.2877 91.6941 99.4931 91.9899 99.636C92.2858 99.779 92.6091 99.8561 92.9376 99.862H93.0525C93.381 99.8561 93.7043 99.779 94.0002 99.636C94.296 99.4931 94.5573 99.2877 94.7661 99.034L120.469 68.191C120.825 67.7585 121.009 67.2098 120.986 66.65V66.6155C120.975 66.0768 120.767 65.5609 120.4 65.1665Z" fill="#155ABB"/>
<path d="M92.9376 99.8622C92.6091 99.8563 92.2858 99.7792 91.9899 99.6362C91.6941 99.4933 91.4328 99.2879 91.224 99.0342L65.5215 68.1912C65.1548 67.7511 64.9697 67.1876 65.004 66.6157L65.395 66.6502H79.195L92.9376 99.8622ZM120.986 66.6502C121.009 67.2101 120.825 67.7587 120.469 68.1912L94.7661 99.0342C94.5573 99.2879 94.296 99.4933 94.0002 99.6362C93.7043 99.7792 93.381 99.8563 93.0525 99.8622L106.795 66.6502H120.986Z" fill="#01357E"/>
<path d="M106.795 66.65H79.1948L88.3948 54H97.5948L106.795 66.65Z" fill="#1E64C7"/>
<path d="M106.795 66.6499L93.0523 99.8619H92.9373L79.1948 66.6499H106.795Z" fill="#07459D"/>
<path d="M22 47.7587L35.3118 41.2988V43.8248L24.7533 48.7399V48.7955L35.3118 53.7384V56.2389L22 49.779V47.7587Z" fill="white"/>
<path d="M37.2617 57.3608L44.1159 37H46.5305L39.6763 57.3608H37.2617Z" fill="white"/>
<path d="M61.5329 49.837L48.2212 56.2412V53.7408L58.9513 48.7978V48.7422L48.2212 43.7993V41.2988L61.5329 47.703V49.837Z" fill="white"/>
</svg>
