<svg width="124" height="108" viewBox="0 0 124 108" fill="none" xmlns="http://www.w3.org/2000/svg">
<path d="M99.1835 42.5488V62.4056C99.1835 64.4536 96.9607 66.1141 94.2168 66.1141H41.8674C39.1251 66.1141 36.9023 64.4536 36.9023 62.4056V42.5488C36.9023 40.5008 39.1251 38.8403 41.8674 38.8403H94.2185C96.5006 38.8403 98.4068 39.9831 98.984 41.5347C99.1274 41.8596 99.1835 42.2042 99.1835 42.5488Z" fill="#F39629"/>
<path d="M41.3347 48.5052V44.5972C38.8448 44.8 36.9023 46.355 36.9023 48.2661V62.4076C36.9023 64.4556 39.1251 66.1161 41.8674 66.1161H94.2185C96.9624 66.1161 99.1851 64.4556 99.1851 62.4076V48.5068L41.3347 48.5052Z" fill="#F39629"/>
<path d="M43.67 103.101H40.3309C39.6749 103.101 39.0457 102.841 38.5819 102.377C38.118 101.913 37.8574 101.284 37.8574 100.628V98.0306C37.8574 97.3746 38.118 96.7454 38.5819 96.2816C39.0457 95.8177 39.6749 95.5571 40.3309 95.5571H43.6684C44.3243 95.5571 44.9535 95.8177 45.4173 96.2816C45.8812 96.7454 46.1418 97.3746 46.1418 98.0306V100.628C46.1418 101.284 45.8812 101.913 45.4173 102.377C44.9535 102.841 44.3243 103.101 43.6684 103.101H43.67ZM95.7342 103.101H92.3967C91.7407 103.101 91.1116 102.841 90.6477 102.377C90.1839 101.913 89.9233 101.284 89.9233 100.628V98.0306C89.9233 97.3746 90.1839 96.7454 90.6477 96.2816C91.1116 95.8177 91.7407 95.5571 92.3967 95.5571H95.7359C96.3918 95.5571 97.021 95.8177 97.4848 96.2816C97.9487 96.7454 98.2093 97.3746 98.2093 98.0306V100.628C98.2093 101.284 97.9487 101.913 97.4848 102.377C97.021 102.841 96.3902 103.101 95.7342 103.101Z" fill="#F39629"/>
<path d="M99.1835 67.2793V81.4208C99.1835 83.4688 96.9607 85.1293 94.2168 85.1293H41.8674C39.1251 85.1293 36.9023 83.4688 36.9023 81.4191V67.2793C36.9023 65.2313 39.1251 63.5708 41.8674 63.5708H94.2185C96.5006 63.5708 98.4068 64.7135 98.984 66.2652C99.1274 66.59 99.1835 66.9347 99.1835 67.2793Z" fill="#F39629"/>
<path d="M99.1841 67.2799V75.772L36.9029 72.3884C36.9029 72.3884 34.6785 70.8796 33.8408 70.685L36.9029 70.3832L81.4842 66.1157C81.4842 66.1157 92.054 66.1586 98.9829 66.2658C99.1264 66.5906 99.1841 66.9353 99.1841 67.2799Z" fill="#F39629"/>
<path d="M102.309 72.3815H33.7582C32.4837 72.3811 31.2615 71.8745 30.3604 70.9731C29.4593 70.0717 28.9531 68.8494 28.9531 67.5748V55.6314C28.9531 54.3566 29.4595 53.134 30.361 52.2326C31.2624 51.3311 32.485 50.8247 33.7598 50.8247H102.31C103.585 50.8247 104.808 51.3311 105.709 52.2326C106.611 53.134 107.117 54.3566 107.117 55.6314V67.5748C107.117 68.8496 106.611 70.0723 105.709 70.9737C104.808 71.8751 103.584 72.3815 102.309 72.3815Z" fill="url(#paint0_linear_2412_856)"/>
<path d="M102.309 99.3293H33.7582C32.4837 99.3289 31.2615 98.8222 30.3604 97.9209C29.4593 97.0195 28.9531 95.7971 28.9531 94.5226V82.5792C28.9531 81.3044 29.4595 80.0817 30.361 79.1803C31.2624 78.2789 32.485 77.7725 33.7598 77.7725H102.31C103.585 77.7725 104.808 78.2789 105.709 79.1803C106.611 80.0817 107.117 81.3044 107.117 82.5792V94.5226C107.117 95.7974 106.611 97.02 105.709 97.9214C104.808 98.8229 103.584 99.3293 102.309 99.3293Z" fill="url(#paint1_linear_2412_856)"/>
<path d="M36.3442 61.604C36.3442 60.2008 37.482 59.063 38.8853 59.063H66.4724C67.1463 59.063 67.7926 59.3307 68.2691 59.8072C68.7457 60.2838 69.0134 60.9301 69.0134 61.604C69.0134 62.278 68.7457 62.9243 68.2691 63.4008C67.7926 63.8774 67.1463 64.1451 66.4724 64.1451H38.8836C37.482 64.1451 36.3442 63.0073 36.3442 61.604ZM36.3442 88.116C36.3442 86.7127 37.482 85.5749 38.8853 85.5749H66.4724C67.1463 85.5749 67.7926 85.8427 68.2691 86.3192C68.7457 86.7957 69.0134 87.4421 69.0134 88.116C69.0134 88.7899 68.7457 89.4362 68.2691 89.9128C67.7926 90.3893 67.1463 90.657 66.4724 90.657H38.8836C37.482 90.657 36.3442 89.5192 36.3442 88.116Z" fill="#FECBAA"/>
<path d="M97.1423 91.9711C99.032 91.9711 100.564 90.4392 100.564 88.5495C100.564 86.6598 99.032 85.1279 97.1423 85.1279C95.2526 85.1279 93.7207 86.6598 93.7207 88.5495C93.7207 90.4392 95.2526 91.9711 97.1423 91.9711Z" fill="#FECBAA"/>
<path d="M87.4157 91.9711C89.3054 91.9711 90.8373 90.4392 90.8373 88.5495C90.8373 86.6598 89.3054 85.1279 87.4157 85.1279C85.526 85.1279 83.9941 86.6598 83.9941 88.5495C83.9941 90.4392 85.526 91.9711 87.4157 91.9711Z" fill="white"/>
<path d="M97.1423 65.0258C99.032 65.0258 100.564 63.4939 100.564 61.6042C100.564 59.7145 99.032 58.1826 97.1423 58.1826C95.2526 58.1826 93.7207 59.7145 93.7207 61.6042C93.7207 63.4939 95.2526 65.0258 97.1423 65.0258Z" fill="#FECBAA"/>
<path d="M87.4157 65.0258C89.3054 65.0258 90.8373 63.4939 90.8373 61.6042C90.8373 59.7145 89.3054 58.1826 87.4157 58.1826C85.526 58.1826 83.9941 59.7145 83.9941 61.6042C83.9941 63.4939 85.526 65.0258 87.4157 65.0258Z" fill="white"/>
<path d="M102.309 45.5085H33.7582C32.4837 45.5081 31.2615 45.0014 30.3604 44.1001C29.4593 43.1987 28.9531 41.9763 28.9531 40.7018V28.7584C28.9531 27.4838 29.4593 26.2615 30.3604 25.3601C31.2615 24.4587 32.4837 23.9521 33.7582 23.9517H102.309C103.583 23.9521 104.805 24.4587 105.706 25.3601C106.608 26.2615 107.114 27.4838 107.114 28.7584V40.7018C107.114 41.9766 106.607 43.1992 105.706 44.1006C104.804 45.0021 103.583 45.5085 102.309 45.5085Z" fill="url(#paint2_linear_2412_856)"/>
<path d="M36.3442 34.7305C36.3442 33.3272 37.482 32.1895 38.8853 32.1895H66.4724C67.1463 32.1895 67.7926 32.4572 68.2691 32.9337C68.7457 33.4102 69.0134 34.0566 69.0134 34.7305C69.0134 35.4044 68.7457 36.0507 68.2691 36.5273C67.7926 37.0038 67.1463 37.2715 66.4724 37.2715H38.8836C37.482 37.2715 36.3442 36.1338 36.3442 34.7305Z" fill="#FECBAA"/>
<path d="M97.1423 38.1527C99.032 38.1527 100.564 36.6208 100.564 34.7312C100.564 32.8415 99.032 31.3096 97.1423 31.3096C95.2526 31.3096 93.7207 32.8415 93.7207 34.7312C93.7207 36.6208 95.2526 38.1527 97.1423 38.1527Z" fill="#FECBAA"/>
<path d="M87.4157 38.1527C89.3054 38.1527 90.8373 36.6208 90.8373 34.7312C90.8373 32.8415 89.3054 31.3096 87.4157 31.3096C85.526 31.3096 83.9941 32.8415 83.9941 34.7312C83.9941 36.6208 85.526 38.1527 87.4157 38.1527Z" fill="white"/>
<circle cx="33.968" cy="28.968" r="22.968" fill="#F39629" stroke="url(#paint3_linear_2412_856)" stroke-width="2"/>
<path d="M34.7315 25.7641V27.4393C34.7315 27.9714 34.8378 28.4178 35.0475 28.7655C35.3368 29.2455 35.8116 29.5205 36.3508 29.5205C36.8791 29.5205 37.404 29.2633 37.9109 28.7564L43.444 23.2233C44.6589 22.0084 44.6589 20.0317 43.444 18.8168L37.9109 13.2837C37.404 12.7765 36.8791 12.5195 36.3508 12.5195C35.5447 12.5195 34.7315 13.1632 34.7315 14.6007V16.1222C26.8759 16.5861 20.3727 22.6147 19.4062 30.5076C19.3521 30.9484 19.6027 31.3704 20.0158 31.5339C20.1328 31.5801 20.2545 31.6025 20.3748 31.6025C20.6793 31.6025 20.9747 31.4599 21.1628 31.2029C23.7553 27.6607 27.9177 25.546 32.2972 25.546C33.1086 25.546 33.9246 25.6192 34.7315 25.7641V25.7641Z" fill="white"/>
<path d="M47.9197 26.8245C47.5066 26.6608 47.0353 26.7971 46.7727 27.1558C44.1805 30.6977 40.0181 32.8124 35.6386 32.8124C34.8271 32.8124 34.0111 32.7392 33.2043 32.5943V30.9191C33.2043 29.4815 32.3908 28.8379 31.585 28.8379C31.0567 28.8379 30.5318 29.0951 30.0246 29.6023L24.4915 35.1351C23.2769 36.35 23.2769 38.3267 24.4917 39.5419L30.0246 45.0747C30.5318 45.5819 31.0567 45.8389 31.585 45.8389C32.3908 45.8389 33.2043 45.1952 33.2043 43.7577V42.2362C41.0601 41.7723 47.563 35.7437 48.5295 27.851C48.5837 27.41 48.333 26.988 47.9197 26.8245V26.8245Z" fill="#013378"/>
<defs>
<linearGradient id="paint0_linear_2412_856" x1="68.0351" y1="50.8247" x2="68.0351" y2="72.3815" gradientUnits="userSpaceOnUse">
<stop stop-color="#013378"/>
<stop offset="1" stop-color="#084496"/>
</linearGradient>
<linearGradient id="paint1_linear_2412_856" x1="68.0351" y1="77.7725" x2="68.0351" y2="99.3293" gradientUnits="userSpaceOnUse">
<stop stop-color="#013378"/>
<stop offset="1" stop-color="#084496"/>
</linearGradient>
<linearGradient id="paint2_linear_2412_856" x1="68.0334" y1="23.9517" x2="68.0334" y2="45.5085" gradientUnits="userSpaceOnUse">
<stop stop-color="#013378"/>
<stop offset="1" stop-color="#084496"/>
</linearGradient>
<linearGradient id="paint3_linear_2412_856" x1="33.968" y1="5" x2="49" y2="53" gradientUnits="userSpaceOnUse">
<stop stop-color="white" stop-opacity="0"/>
<stop offset="1" stop-color="white"/>
</linearGradient>
</defs>
</svg>
