<svg width="124" height="108" viewBox="0 0 124 108" fill="none" xmlns="http://www.w3.org/2000/svg">
<g clip-path="url(#clip0_2406_674)">
<path fill-rule="evenodd" clip-rule="evenodd" d="M13.7817 53.514C13.2415 52.41 13.1045 51.0279 12.4356 50.0429C11.8328 49.1886 11.0041 48.6806 10.6358 47.6557C9.93183 44.9089 7.51647 42.3351 8.17577 39.8774C8.59062 39.5837 9.85542 39.8544 10.2216 39.7943C11.9275 39.6103 14.3254 39.3816 14.8321 37.4528C15.2828 35.7654 8.05142 40.2885 8.17567 38.4895C5.50998 32.7703 14.6563 31.7101 14.8001 30.9974C14.5719 27.8468 15.087 27.8419 16.4534 25.6261C17.3281 24.4786 17.0124 23.2631 18.1279 22.1562C22.3401 18.7297 25.3743 20.207 26.3739 19.507C30.7901 16.5009 31.7163 12.4319 33.9573 13.4475C35.601 14.0777 36.5307 16.6002 36.151 18.3159C35.8636 19.8004 33.8843 20.9072 33.0387 18.9264C32.8516 18.8473 32.0413 19.0268 31.9555 19.2053C31.4928 19.6156 31.7093 20.3662 32.1784 21.0536C33.6447 23.249 36.7611 23.0105 38.6358 22.9894C43.5153 22.683 42.354 23.4235 44.1884 23.8153C44.6295 23.8189 45.4391 23.2209 46.0746 23.0337C47.1778 22.8656 48.4024 22.9804 49.3307 24.0386C50.4607 24.3218 51.775 21.0614 53.0407 20.9185C55.7271 20.58 55.2433 24.0347 59.3608 21.8894C61.4285 20.9748 61.4257 20.8533 62.206 19.7386C62.9553 18.8377 64.2109 18.5838 65.1747 17.9593C68.6268 14.9377 67.7053 14.9784 71.1874 16.1144C72.2455 16.3267 72.529 16.7728 72.5888 17.5982C72.5073 19.3436 72.5438 20.5915 74.5871 20.8862C75.5864 20.8712 76.4895 20.0122 77.7921 20.3508C79.6229 20.699 81.2015 22.2624 83.108 22.1579C85.0682 20.945 86.1201 16.0683 88.2893 15.6145C89.3706 15.4071 90.4848 15.7451 91.4983 15.0329C96.3767 11.1767 94.8832 13.4427 97.3647 11.9004C98.1134 11.3077 98.3973 10.5814 98.69 9.76931C99.6829 5.63276 103.603 4.74937 106.338 2.49583C106.875 1.91156 107.184 0.98391 107.626 0.421849C108.535 -0.988043 110.313 1.52036 110.561 2.33542C110.393 3.08486 109.829 3.40634 109.429 3.89992C105.093 8.64495 109.456 7.45765 110.843 8.98296C111.3 9.85164 111.39 11.6537 111.55 13.3068C112.023 16.7507 109.586 19.1361 110.729 21.2131C111.349 22.3405 112.449 23.3695 113.017 24.142C114.218 25.7348 115.165 27.916 115.682 29.9729C116.845 35.5272 116.213 33.3797 115.263 32.7703C113.201 30.942 111.125 31.9023 109.838 30.084C108.18 27.6567 109.337 24.4662 109.179 23.8385C107.246 19.1514 104.331 23.0387 104.739 24.8021C104.952 25.5272 105.775 26.7544 105.833 27.6923C105.889 29.2148 103.679 29.9645 102.782 30.7588C101.194 32.118 97.548 35.0547 98.3079 36.8042C99.0843 38.7846 98.1953 39.6739 97.8364 40.8865C97.4531 41.6879 99.4964 41.8605 99.7867 41.6517C100.524 41.4076 101.373 40.8118 102.105 41.049C103.614 41.6195 105.126 43.6613 105.487 44.6335C107.031 49.5632 108.397 53.7576 106.64 57.1326C105.866 58.3154 104.928 60.2209 104.061 60.4506C102.661 60.3651 100.862 59.2751 101.224 58.1861C101.522 56.7145 103.776 54.9733 102.564 53.2921C102.218 52.7828 101.705 52.7137 101.155 52.8115C98.6211 53.6573 98.2518 53.4789 96.3692 52.9279C91.8423 52.251 93.4517 47.2685 87.6612 49.8632C86.5456 50.5779 87.8265 51.6256 87.6602 52.4732C87.5055 53.141 87.1268 53.4941 86.9764 54.2067C86.6577 55.4068 86.7529 56.1401 85.6009 56.7417C84.4772 57.2909 83.5713 57.1854 82.5939 57.4888C78.3379 59.6273 79.1234 59.3565 75.1416 57.5605C72.7182 56.5981 71.9187 58.7209 71.1057 58.1557C70.175 57.4401 69.4922 56.8103 68.4226 56.5693C66.1443 56.0525 67.2117 59.4336 65.8106 59.3979C64.3562 59.3973 63.0003 58.4183 61.9649 58.6237C55.9351 60.4162 58.9905 58.9304 55.4184 58.7739C55.0488 58.7426 54.8832 58.6844 54.5837 58.4271C52.9005 56.6588 52.7371 57.1394 51.1901 56.6292C49.1285 55.6775 49.9782 52.4626 48.6858 51.0374C47.9573 50.1902 46.6634 49.9742 45.7101 49.3663C45.1268 49.076 44.9227 48.365 44.6231 47.8361C43.5756 46.5899 41.1086 46.486 39.5946 46.2029C36.448 45.642 35.6646 45.0395 34.1954 47.9821C34.0944 48.373 33.9785 49.1523 33.8412 49.1697C33.4641 49.2425 31.8143 48.3286 31.5149 48.2832C26.0693 46.7581 28.3928 45.2065 25.8278 43.286C23.6653 42.0469 20.3456 43.2759 19.4939 45.0937C19.0293 45.8894 19.4745 47.2994 19.0298 48.2659C18.1889 49.4608 16.9123 48.0843 15.9778 49.5743C15.1645 50.6661 14.4155 52.6883 13.7817 53.514Z" fill="#FECBAA"/>
<g clip-path="url(#clip1_2406_674)">
<path d="M12.5996 50.6318H101.156V103.237H12.5996V50.6318Z" fill="url(#paint0_linear_2406_674)"/>
<path d="M56.8777 33.9908C56.0921 33.9908 55.4556 33.3541 55.4556 32.5687V20.3982C55.4556 19.6126 56.0923 18.9761 56.8777 18.9761C57.6631 18.9761 58.2998 19.6128 58.2998 20.3982V32.5687C58.2998 33.3541 57.6633 33.9908 56.8777 33.9908Z" fill="#013378"/>
<path d="M67.8359 22.3999H55.4556V15.194C55.4556 14.4609 56.0499 13.8667 56.7829 13.8667H67.8359C68.569 13.8667 69.1632 14.4611 69.1632 15.194V21.0725C69.1632 21.8057 68.5688 22.3999 67.8359 22.3999V22.3999Z" fill="#013378"/>
<path d="M102.673 53.5297H11.0827C10.3496 53.5297 9.75537 52.9353 9.75537 52.2023V45.0077C9.75537 44.2745 10.3497 43.6804 11.0827 43.6804H30.2952C30.9396 43.6804 31.5736 43.5162 32.137 43.2031L56.2329 29.8165C56.6338 29.5937 57.1212 29.5937 57.5221 29.8165L81.618 43.2031C82.1815 43.516 82.8154 43.6804 83.4598 43.6804H102.672C103.405 43.6804 104 44.2747 104 45.0077V52.2023C104 52.9353 103.406 53.5297 102.673 53.5297V53.5297Z" fill="url(#paint1_linear_2406_674)"/>
<path d="M56.8776 48.1405C59.6696 48.1405 61.9329 45.8771 61.9329 43.0851C61.9329 40.2931 59.6696 38.0298 56.8776 38.0298C54.0856 38.0298 51.8223 40.2931 51.8223 43.0851C51.8223 45.8771 54.0856 48.1405 56.8776 48.1405Z" fill="white"/>
<path d="M23.9771 53.5298H33.7203V102.411H23.9771V53.5298Z" fill="white"/>
<path d="M36.5648 53.5298H21.1328V57.3224C21.1328 58.3698 21.9818 59.2187 23.0291 59.2187H34.6687C35.7161 59.2187 36.565 58.3698 36.565 57.3224V53.5298H36.5648Z" fill="white"/>
<path d="M34.6685 96.7217H23.0291C21.9817 96.7217 21.1328 97.5706 21.1328 98.618V102.411H36.5648V98.618C36.5648 97.5708 35.7159 96.7217 34.6685 96.7217Z" fill="white"/>
<path d="M80.0347 53.5298H89.7779V102.411H80.0347V53.5298Z" fill="white"/>
<path d="M92.6229 53.5298H77.1909V57.3224C77.1909 58.3698 78.0399 59.2187 79.0872 59.2187H90.7268C91.7742 59.2187 92.6231 58.3698 92.6231 57.3224V53.5298H92.6229Z" fill="white"/>
<path d="M90.7258 96.7217H79.0862C78.0389 96.7217 77.1899 97.5706 77.1899 98.618V102.411H92.6219V98.618C92.6221 97.5708 91.7732 96.7217 90.7258 96.7217Z" fill="white"/>
<path d="M66.5537 102.411H47.2012V77.825C47.2012 76.7776 48.0501 75.9287 49.0975 75.9287H64.6576C65.705 75.9287 66.5539 76.7776 66.5539 77.825V102.411H66.5537Z" fill="#013378"/>
<path d="M69.1374 67.7787H44.6174C43.8842 67.7787 43.29 67.1843 43.29 66.4513V63.0075C43.29 62.2744 43.8844 61.6802 44.6174 61.6802H69.1374C69.8705 61.6802 70.4647 62.2745 70.4647 63.0075V66.4513C70.4649 67.1845 69.8705 67.7787 69.1374 67.7787Z" fill="#FECBAA"/>
<path d="M11.6517 102.411H102.104C103.151 102.411 104 103.261 104 104.311V106.211C104 107.26 103.151 108.111 102.104 108.111H11.6517C10.6043 108.111 9.75537 107.261 9.75537 106.211V104.311C9.75537 103.261 10.6043 102.411 11.6517 102.411V102.411Z" fill="#013378"/>
</g>
</g>
<defs>
<linearGradient id="paint0_linear_2406_674" x1="56.8776" y1="50.6318" x2="56.8776" y2="103.237" gradientUnits="userSpaceOnUse">
<stop stop-color="#F39629"/>
<stop offset="1" stop-color="#FFBD70"/>
</linearGradient>
<linearGradient id="paint1_linear_2406_674" x1="56.8775" y1="29.6494" x2="56.8775" y2="53.5297" gradientUnits="userSpaceOnUse">
<stop stop-color="#013378"/>
<stop offset="1" stop-color="#054092"/>
</linearGradient>
<clipPath id="clip0_2406_674">
<rect width="124" height="108" fill="white"/>
</clipPath>
<clipPath id="clip1_2406_674">
<rect width="94.2446" height="94.2446" fill="white" transform="translate(9.75537 13.8667)"/>
</clipPath>
</defs>
</svg>
